<?xml version="1.0" encoding="utf-8" standalone="no"?>
<!DOCTYPE svg PUBLIC "-//W3C//DTD SVG 1.1//EN"
  "http://www.w3.org/Graphics/SVG/1.1/DTD/svg11.dtd">
<svg xmlns:xlink="http://www.w3.org/1999/xlink" width="432pt" height="360pt" viewBox="0 0 432 360" xmlns="http://www.w3.org/2000/svg" version="1.1">
 <metadata>
  <rdf:RDF xmlns:dc="http://purl.org/dc/elements/1.1/" xmlns:cc="http://creativecommons.org/ns#" xmlns:rdf="http://www.w3.org/1999/02/22-rdf-syntax-ns#">
   <cc:Work>
    <dc:type rdf:resource="http://purl.org/dc/dcmitype/StillImage"/>
    <dc:date>2024-07-29T11:49:00.198101</dc:date>
    <dc:format>image/svg+xml</dc:format>
    <dc:creator>
     <cc:Agent>
      <dc:title>Matplotlib v3.9.1, https://matplotlib.org/</dc:title>
     </cc:Agent>
    </dc:creator>
   </cc:Work>
  </rdf:RDF>
 </metadata>
 <defs>
  <style type="text/css">*{stroke-linejoin: round; stroke-linecap: butt}</style>
 </defs>
 <g id="figure_1">
  <g id="patch_1">
   <path d="M 0 360 
L 432 360 
L 432 0 
L 0 0 
z
" style="fill: #ffffff"/>
  </g>
  <g id="axes_1">
   <g id="patch_2">
    <path d="M 55.59 307.83 
L 408.56 307.83 
L 408.56 17.32 
L 55.59 17.32 
z
" style="fill: #ffffff"/>
   </g>
   <g id="patch_3">
    <path d="M 408.56 17.32 
L 408.437367 17.524012 
L 408.422345 17.54897 
L 408.405482 17.576979 
L 408.386553 17.608409 
L 408.365306 17.643679 
L 408.341456 17.683256 
L 408.314685 17.727666 
L 408.284633 17.777496 
L 408.250901 17.833407 
L 408.213036 17.896138 
L 408.170533 17.966518 
L 408.122824 18.045477 
L 408.06927 18.134057 
L 408.009155 18.233424 
L 407.941677 18.344887 
L 407.865932 18.46991 
L 407.780909 18.610135 
L 407.68547 18.767398 
L 407.57834 18.943758 
L 407.458087 19.141515 
L 407.323102 19.363247 
L 407.171582 19.611835 
L 407.001501 19.890502 
L 406.810585 20.202852 
L 406.596282 20.552908 
L 406.355727 20.945168 
L 406.085703 21.38465 
L 405.782602 21.876952 
L 405.44237 22.428317 
L 405.060461 23.0457 
L 404.631767 23.736843 
L 404.150559 24.510356 
L 403.610402 25.375808 
L 403.004077 26.343818 
L 402.323476 27.426159 
L 401.559502 28.635866 
L 400.701941 29.987345 
L 399.739329 31.496495 
L 398.658797 33.180826 
L 397.445899 35.05958 
L 396.084422 37.153844 
L 394.556164 39.486666 
L 392.840694 42.083144 
L 390.915079 44.970503 
L 388.753577 48.178144 
L 386.32729 51.737648 
L 383.603783 55.682733 
L 380.546647 60.049139 
L 377.115011 64.874423 
L 373.263 70.197626 
L 373.263 70.197626 
L 366.779878 78.941548 
L 360.296755 87.42501 
L 353.813633 95.657668 
L 347.33051 103.647949 
L 340.847388 111.403371 
L 334.364265 118.93077 
L 327.881143 126.236449 
L 321.39802 133.326271 
L 314.914898 140.205735 
L 308.431776 146.880027 
L 301.948653 153.354062 
L 295.465531 159.632522 
L 288.982408 165.719886 
L 282.499286 171.620454 
L 276.016163 177.338374 
L 269.533041 182.877654 
L 263.049918 188.242185 
L 256.566796 193.435748 
L 250.083673 198.462029 
L 243.600551 203.324625 
L 237.117429 208.027055 
L 230.634306 212.572769 
L 224.151184 216.96515 
L 217.668061 221.207522 
L 211.184939 225.303154 
L 204.701816 229.255268 
L 198.218694 233.067039 
L 191.735571 236.741602 
L 185.252449 240.282051 
L 178.769327 243.691447 
L 172.286204 246.972816 
L 165.803082 250.129155 
L 159.319959 253.16343 
L 152.836837 256.07858 
L 146.353714 258.877518 
L 139.870592 261.563129 
L 133.387469 264.138275 
L 126.904347 266.605793 
L 120.421224 268.968496 
L 113.938102 271.229175 
L 107.45498 273.390596 
L 100.971857 275.455503 
L 94.488735 277.426618 
L 88.005612 279.306638 
L 81.52249 281.098239 
L 75.039367 282.804073 
L 68.556245 284.426766 
L 62.073122 285.968925 
L 55.59 287.433127 
L 55.59 -273.19 
L 531.192843 -273.19 
z
" clip-path="url(#p72e84f3b9e)" style="fill: #0072bd; opacity: 0.7"/>
   </g>
   <g id="patch_4">
    <path d="M 55.59 287.433127 
L 62.073122 285.968925 
L 68.556245 284.426766 
L 75.039367 282.804073 
L 81.52249 281.098239 
L 88.005612 279.306638 
L 94.488735 277.426618 
L 100.971857 275.455503 
L 107.45498 273.390596 
L 113.938102 271.229175 
L 120.421224 268.968496 
L 126.904347 266.605793 
L 133.387469 264.138275 
L 139.870592 261.563129 
L 146.353714 258.877518 
L 152.836837 256.07858 
L 159.319959 253.16343 
L 165.803082 250.129155 
L 172.286204 246.972816 
L 178.769327 243.691447 
L 185.252449 240.282051 
L 191.735571 236.741602 
L 198.218694 233.067039 
L 204.701816 229.255268 
L 211.184939 225.303154 
L 217.668061 221.207522 
L 224.151184 216.96515 
L 230.634306 212.572769 
L 237.117429 208.027055 
L 243.600551 203.324625 
L 250.083673 198.462029 
L 256.566796 193.435748 
L 263.049918 188.242185 
L 269.533041 182.877654 
L 276.016163 177.338374 
L 282.499286 171.620454 
L 288.982408 165.719886 
L 295.465531 159.632522 
L 301.948653 153.354062 
L 308.431776 146.880027 
L 314.914898 140.205735 
L 321.39802 133.326271 
L 327.881143 126.236449 
L 334.364265 118.93077 
L 340.847388 111.403371 
L 347.33051 103.647949 
L 353.813633 95.657668 
L 360.296755 87.42501 
L 366.779878 78.941548 
L 373.263 70.197626 
L 373.263 70.197626 
L 377.115011 64.874423 
L 380.546647 60.049139 
L 383.603783 55.682733 
L 386.32729 51.737648 
L 388.753577 48.178144 
L 390.915079 44.970503 
L 392.840694 42.083144 
L 394.556164 39.486666 
L 396.084422 37.153844 
L 397.445899 35.05958 
L 398.658797 33.180826 
L 399.739329 31.496495 
L 400.701941 29.987345 
L 401.559502 28.635866 
L 402.323476 27.426159 
L 403.004077 26.343818 
L 403.610402 25.375808 
L 404.150559 24.510356 
L 404.631767 23.736843 
L 405.060461 23.0457 
L 405.44237 22.428317 
L 405.782602 21.876952 
L 406.085703 21.38465 
L 406.355727 20.945168 
L 406.596282 20.552908 
L 406.810585 20.202852 
L 407.001501 19.890502 
L 407.171582 19.611835 
L 407.323102 19.363247 
L 407.458087 19.141515 
L 407.57834 18.943758 
L 407.68547 18.767398 
L 407.780909 18.610135 
L 407.865932 18.46991 
L 407.941677 18.344887 
L 408.009155 18.233424 
L 408.06927 18.134057 
L 408.122824 18.045477 
L 408.170533 17.966518 
L 408.213036 17.896138 
L 408.250901 17.833407 
L 408.284633 17.777496 
L 408.314685 17.727666 
L 408.341456 17.683256 
L 408.365306 17.643679 
L 408.386553 17.608409 
L 408.405482 17.576979 
L 408.422345 17.54897 
L 408.437367 17.524012 
L 408.56 17.32 
L 406.421431 21.062626 
L 406.406445 21.08967 
L 406.389624 21.120037 
L 406.370744 21.154136 
L 406.349554 21.192428 
L 406.325769 21.235432 
L 406.299073 21.28373 
L 406.269109 21.337978 
L 406.235478 21.398914 
L 406.197729 21.467369 
L 406.15536 21.544278 
L 406.107805 21.630696 
L 406.054429 21.727809 
L 405.994519 21.836958 
L 405.927276 21.95965 
L 405.851801 22.097592 
L 405.767089 22.252705 
L 405.672006 22.427164 
L 405.565286 22.623423 
L 405.445501 22.844261 
L 405.311055 23.092818 
L 405.160151 23.372655 
L 404.990776 23.687801 
L 404.800668 24.042828 
L 404.58729 24.442921 
L 404.347793 24.893966 
L 404.078979 25.402647 
L 403.777262 25.976562 
L 403.438612 26.624349 
L 403.058509 27.355832 
L 402.631879 28.18219 
L 402.153027 29.116147 
L 401.615561 30.172187 
L 401.012305 31.366802 
L 400.335206 32.71877 
L 399.575226 34.249476 
L 398.72222 35.983284 
L 397.764801 37.947961 
L 396.690187 40.175182 
L 395.484033 42.701143 
L 394.130239 45.567303 
L 392.610731 48.821329 
L 390.905225 52.518295 
L 388.990955 56.722218 
L 386.842366 61.507999 
L 384.430775 66.963811 
L 381.72399 73.193916 
L 378.685877 80.321873 
L 375.27588 88.494009 
L 371.448476 97.882967 
L 371.448476 97.882967 
L 369.759927 102.097424 
L 367.990137 106.561591 
L 366.135196 111.291429 
L 364.191009 116.303743 
L 362.15328 121.616119 
L 360.01751 127.246827 
L 357.778982 133.214655 
L 355.43275 139.538668 
L 352.973635 146.23785 
L 350.396203 153.330613 
L 347.694763 160.834127 
L 344.863348 168.763429 
L 341.895706 177.130296 
L 338.78528 185.941859 
L 335.525202 195.199043 
L 332.108272 204.895033 
L 328.526942 215.014243 
L 324.773304 225.532711 
L 320.839066 236.421422 
L 316.71554 247.654575 
L 312.393618 259.224264 
L 307.863754 271.160082 
L 303.115945 283.546425 
L 298.139704 296.526876 
L 292.92404 310.292159 
L 287.457434 325.061673 
L 281.727813 341.072014 
L 275.722521 358.576814 
L 269.428296 377.854321 
L 262.831237 399.218128 
L 255.916772 423.02836 
L 248.669631 449.702165 
L 241.073806 479.722718 
L 233.112523 513.645785 
L 224.768198 552.102177 
L 216.022401 595.793413 
L 206.855817 645.476353 
L 197.248199 701.930286 
L 187.178328 765.89674 
L 176.623965 837.978147 
L 165.561798 918.478163 
L 153.967396 1007.172282 
L 141.81515 1103.045349 
L 129.078222 1204.223906 
L 115.728481 1308.78332 
L 101.736441 1416.911998 
L 87.071201 1531.78978 
L 71.70037 1657.05713 
L 55.59 1795.352795 
z
" clip-path="url(#p72e84f3b9e)" style="fill: #0072bd; opacity: 0.5"/>
   </g>
   <g id="patch_5">
    <path d="M 406.421431 21.062626 
L 406.406445 21.08967 
L 406.389624 21.120037 
L 406.370744 21.154136 
L 406.349554 21.192428 
L 406.325769 21.235432 
L 406.299073 21.28373 
L 406.269109 21.337978 
L 406.235478 21.398914 
L 406.197729 21.467369 
L 406.15536 21.544278 
L 406.107805 21.630696 
L 406.054429 21.727809 
L 405.994519 21.836958 
L 405.927276 21.95965 
L 405.851801 22.097592 
L 405.767089 22.252705 
L 405.672006 22.427164 
L 405.565286 22.623423 
L 405.445501 22.844261 
L 405.311055 23.092818 
L 405.160151 23.372655 
L 404.990776 23.687801 
L 404.800668 24.042828 
L 404.58729 24.442921 
L 404.347793 24.893966 
L 404.078979 25.402647 
L 403.777262 25.976562 
L 403.438612 26.624349 
L 403.058509 27.355832 
L 402.631879 28.18219 
L 402.153027 29.116147 
L 401.615561 30.172187 
L 401.012305 31.366802 
L 400.335206 32.71877 
L 399.575226 34.249476 
L 398.72222 35.983284 
L 397.764801 37.947961 
L 396.690187 40.175182 
L 395.484033 42.701143 
L 394.130239 45.567303 
L 392.610731 48.821329 
L 390.905225 52.518295 
L 388.990955 56.722218 
L 386.842366 61.507999 
L 384.430775 66.963811 
L 381.72399 73.193916 
L 378.685877 80.321873 
L 375.27588 88.494009 
L 371.448476 97.882967 
L 371.448476 97.882967 
L 369.759927 102.097424 
L 367.990137 106.561591 
L 366.135196 111.291429 
L 364.191009 116.303743 
L 362.15328 121.616119 
L 360.01751 127.246827 
L 357.778982 133.214655 
L 355.43275 139.538668 
L 352.973635 146.23785 
L 350.396203 153.330613 
L 347.694763 160.834127 
L 344.863348 168.763429 
L 341.895706 177.130296 
L 338.78528 185.941859 
L 335.525202 195.199043 
L 332.108272 204.895033 
L 328.526942 215.014243 
L 324.773304 225.532711 
L 320.839066 236.421422 
L 316.71554 247.654575 
L 312.393618 259.224264 
L 307.863754 271.160082 
L 303.115945 283.546425 
L 298.139704 296.526876 
L 292.92404 310.292159 
L 287.457434 325.061673 
L 281.727813 341.072014 
L 275.722521 358.576814 
L 269.428296 377.854321 
L 262.831237 399.218128 
L 255.916772 423.02836 
L 248.669631 449.702165 
L 241.073806 479.722718 
L 233.112523 513.645785 
L 224.768198 552.102177 
L 216.022401 595.793413 
L 206.855817 645.476353 
L 197.248199 701.930286 
L 187.178328 765.89674 
L 176.623965 837.978147 
L 165.561798 918.478163 
L 153.967396 1007.172282 
L 141.81515 1103.045349 
L 129.078222 1204.223906 
L 115.728481 1308.78332 
L 101.736441 1416.911998 
L 87.071201 1531.78978 
L 71.70037 1657.05713 
L 55.59 1795.352795 
L 55.59 888.85 
L 531.192843 888.85 
z
" clip-path="url(#p72e84f3b9e)" style="fill: #d95319; opacity: 0.7"/>
   </g>
   <g id="matplotlib.axis_1">
    <g id="xtick_1">
     <g id="line2d_1">
      <defs>
       <path id="ma016b7a6f7" d="M 0 0 
L 0 -6 
" style="stroke: #000000; stroke-width: 1.25"/>
      </defs>
      <g>
       <use xlink:href="#ma016b7a6f7" x="101.977892" y="307.83" style="fill: #ffffff; stroke: #000000; stroke-width: 1.25"/>
      </g>
     </g>
     <g id="line2d_2">
      <defs>
       <path id="mf1c749d498" d="M 0 0 
L 0 6 
" style="stroke: #000000; stroke-width: 1.25"/>
      </defs>
      <g>
       <use xlink:href="#mf1c749d498" x="101.977892" y="17.32" style="fill: #ffffff; stroke: #000000; stroke-width: 1.25"/>
      </g>
     </g>
     <g id="text_1">
      <!-- 0.75 -->
      <g transform="translate(91.477892 319.6625) scale(0.12 -0.12)">
       <defs>
        <path id="TimesNewRomanPSMT-30" d="M 231 2094 
Q 231 2819 450 3342 
Q 669 3866 1031 4122 
Q 1313 4325 1613 4325 
Q 2100 4325 2488 3828 
Q 2972 3213 2972 2159 
Q 2972 1422 2759 906 
Q 2547 391 2217 158 
Q 1888 -75 1581 -75 
Q 975 -75 572 641 
Q 231 1244 231 2094 
z
M 844 2016 
Q 844 1141 1059 588 
Q 1238 122 1591 122 
Q 1759 122 1940 273 
Q 2122 425 2216 781 
Q 2359 1319 2359 2297 
Q 2359 3022 2209 3506 
Q 2097 3866 1919 4016 
Q 1791 4119 1609 4119 
Q 1397 4119 1231 3928 
Q 1006 3669 925 3112 
Q 844 2556 844 2016 
z
" transform="scale(0.015625)"/>
        <path id="TimesNewRomanPSMT-2e" d="M 800 606 
Q 947 606 1047 504 
Q 1147 403 1147 259 
Q 1147 116 1045 14 
Q 944 -88 800 -88 
Q 656 -88 554 14 
Q 453 116 453 259 
Q 453 406 554 506 
Q 656 606 800 606 
z
" transform="scale(0.015625)"/>
        <path id="TimesNewRomanPSMT-37" d="M 644 4238 
L 2916 4238 
L 2916 4119 
L 1503 -88 
L 1153 -88 
L 2419 3728 
L 1253 3728 
Q 900 3728 750 3644 
Q 488 3500 328 3200 
L 238 3234 
L 644 4238 
z
" transform="scale(0.015625)"/>
        <path id="TimesNewRomanPSMT-35" d="M 2778 4238 
L 2534 3706 
L 1259 3706 
L 981 3138 
Q 1809 3016 2294 2522 
Q 2709 2097 2709 1522 
Q 2709 1188 2573 903 
Q 2438 619 2231 419 
Q 2025 219 1772 97 
Q 1413 -75 1034 -75 
Q 653 -75 479 54 
Q 306 184 306 341 
Q 306 428 378 495 
Q 450 563 559 563 
Q 641 563 702 538 
Q 763 513 909 409 
Q 1144 247 1384 247 
Q 1750 247 2026 523 
Q 2303 800 2303 1197 
Q 2303 1581 2056 1914 
Q 1809 2247 1375 2428 
Q 1034 2569 447 2591 
L 1259 4238 
L 2778 4238 
z
" transform="scale(0.015625)"/>
       </defs>
       <use xlink:href="#TimesNewRomanPSMT-30"/>
       <use xlink:href="#TimesNewRomanPSMT-2e" x="50"/>
       <use xlink:href="#TimesNewRomanPSMT-37" x="75"/>
       <use xlink:href="#TimesNewRomanPSMT-35" x="125"/>
      </g>
     </g>
    </g>
    <g id="xtick_2">
     <g id="line2d_3">
      <g>
       <use xlink:href="#ma016b7a6f7" x="163.294314" y="307.83" style="fill: #ffffff; stroke: #000000; stroke-width: 1.25"/>
      </g>
     </g>
     <g id="line2d_4">
      <g>
       <use xlink:href="#mf1c749d498" x="163.294314" y="17.32" style="fill: #ffffff; stroke: #000000; stroke-width: 1.25"/>
      </g>
     </g>
     <g id="text_2">
      <!-- 0.80 -->
      <g transform="translate(152.794314 319.6625) scale(0.12 -0.12)">
       <defs>
        <path id="TimesNewRomanPSMT-38" d="M 1228 2134 
Q 725 2547 579 2797 
Q 434 3047 434 3316 
Q 434 3728 753 4026 
Q 1072 4325 1600 4325 
Q 2113 4325 2425 4047 
Q 2738 3769 2738 3413 
Q 2738 3175 2569 2928 
Q 2400 2681 1866 2347 
Q 2416 1922 2594 1678 
Q 2831 1359 2831 1006 
Q 2831 559 2490 242 
Q 2150 -75 1597 -75 
Q 994 -75 656 303 
Q 388 606 388 966 
Q 388 1247 577 1523 
Q 766 1800 1228 2134 
z
M 1719 2469 
Q 2094 2806 2194 3001 
Q 2294 3197 2294 3444 
Q 2294 3772 2109 3958 
Q 1925 4144 1606 4144 
Q 1288 4144 1088 3959 
Q 888 3775 888 3528 
Q 888 3366 970 3203 
Q 1053 3041 1206 2894 
L 1719 2469 
z
M 1375 2016 
Q 1116 1797 991 1539 
Q 866 1281 866 981 
Q 866 578 1086 336 
Q 1306 94 1647 94 
Q 1984 94 2187 284 
Q 2391 475 2391 747 
Q 2391 972 2272 1150 
Q 2050 1481 1375 2016 
z
" transform="scale(0.015625)"/>
       </defs>
       <use xlink:href="#TimesNewRomanPSMT-30"/>
       <use xlink:href="#TimesNewRomanPSMT-2e" x="50"/>
       <use xlink:href="#TimesNewRomanPSMT-38" x="75"/>
       <use xlink:href="#TimesNewRomanPSMT-30" x="125"/>
      </g>
     </g>
    </g>
    <g id="xtick_3">
     <g id="line2d_5">
      <g>
       <use xlink:href="#ma016b7a6f7" x="224.610735" y="307.83" style="fill: #ffffff; stroke: #000000; stroke-width: 1.25"/>
      </g>
     </g>
     <g id="line2d_6">
      <g>
       <use xlink:href="#mf1c749d498" x="224.610735" y="17.32" style="fill: #ffffff; stroke: #000000; stroke-width: 1.25"/>
      </g>
     </g>
     <g id="text_3">
      <!-- 0.85 -->
      <g transform="translate(214.110735 319.6625) scale(0.12 -0.12)">
       <use xlink:href="#TimesNewRomanPSMT-30"/>
       <use xlink:href="#TimesNewRomanPSMT-2e" x="50"/>
       <use xlink:href="#TimesNewRomanPSMT-38" x="75"/>
       <use xlink:href="#TimesNewRomanPSMT-35" x="125"/>
      </g>
     </g>
    </g>
    <g id="xtick_4">
     <g id="line2d_7">
      <g>
       <use xlink:href="#ma016b7a6f7" x="285.927157" y="307.83" style="fill: #ffffff; stroke: #000000; stroke-width: 1.25"/>
      </g>
     </g>
     <g id="line2d_8">
      <g>
       <use xlink:href="#mf1c749d498" x="285.927157" y="17.32" style="fill: #ffffff; stroke: #000000; stroke-width: 1.25"/>
      </g>
     </g>
     <g id="text_4">
      <!-- 0.90 -->
      <g transform="translate(275.427157 319.6625) scale(0.12 -0.12)">
       <defs>
        <path id="TimesNewRomanPSMT-39" d="M 338 -88 
L 338 28 
Q 744 34 1094 217 
Q 1444 400 1770 856 
Q 2097 1313 2225 1859 
Q 1734 1544 1338 1544 
Q 891 1544 572 1889 
Q 253 2234 253 2806 
Q 253 3363 572 3797 
Q 956 4325 1575 4325 
Q 2097 4325 2469 3894 
Q 2925 3359 2925 2575 
Q 2925 1869 2578 1258 
Q 2231 647 1613 244 
Q 1109 -88 516 -88 
L 338 -88 
z
M 2275 2091 
Q 2331 2497 2331 2741 
Q 2331 3044 2228 3395 
Q 2125 3747 1936 3934 
Q 1747 4122 1506 4122 
Q 1228 4122 1018 3872 
Q 809 3622 809 3128 
Q 809 2469 1088 2097 
Q 1291 1828 1588 1828 
Q 1731 1828 1928 1897 
Q 2125 1966 2275 2091 
z
" transform="scale(0.015625)"/>
       </defs>
       <use xlink:href="#TimesNewRomanPSMT-30"/>
       <use xlink:href="#TimesNewRomanPSMT-2e" x="50"/>
       <use xlink:href="#TimesNewRomanPSMT-39" x="75"/>
       <use xlink:href="#TimesNewRomanPSMT-30" x="125"/>
      </g>
     </g>
    </g>
    <g id="xtick_5">
     <g id="line2d_9">
      <g>
       <use xlink:href="#ma016b7a6f7" x="347.243578" y="307.83" style="fill: #ffffff; stroke: #000000; stroke-width: 1.25"/>
      </g>
     </g>
     <g id="line2d_10">
      <g>
       <use xlink:href="#mf1c749d498" x="347.243578" y="17.32" style="fill: #ffffff; stroke: #000000; stroke-width: 1.25"/>
      </g>
     </g>
     <g id="text_5">
      <!-- 0.95 -->
      <g transform="translate(336.743578 319.6625) scale(0.12 -0.12)">
       <use xlink:href="#TimesNewRomanPSMT-30"/>
       <use xlink:href="#TimesNewRomanPSMT-2e" x="50"/>
       <use xlink:href="#TimesNewRomanPSMT-39" x="75"/>
       <use xlink:href="#TimesNewRomanPSMT-35" x="125"/>
      </g>
     </g>
    </g>
    <g id="xtick_6">
     <g id="line2d_11">
      <g>
       <use xlink:href="#ma016b7a6f7" x="408.56" y="307.83" style="fill: #ffffff; stroke: #000000; stroke-width: 1.25"/>
      </g>
     </g>
     <g id="line2d_12">
      <g>
       <use xlink:href="#mf1c749d498" x="408.56" y="17.32" style="fill: #ffffff; stroke: #000000; stroke-width: 1.25"/>
      </g>
     </g>
     <g id="text_6">
      <!-- 1.00 -->
      <g transform="translate(398.06 319.6625) scale(0.12 -0.12)">
       <defs>
        <path id="TimesNewRomanPSMT-31" d="M 750 3822 
L 1781 4325 
L 1884 4325 
L 1884 747 
Q 1884 391 1914 303 
Q 1944 216 2037 169 
Q 2131 122 2419 116 
L 2419 0 
L 825 0 
L 825 116 
Q 1125 122 1212 167 
Q 1300 213 1334 289 
Q 1369 366 1369 747 
L 1369 3034 
Q 1369 3497 1338 3628 
Q 1316 3728 1258 3775 
Q 1200 3822 1119 3822 
Q 1003 3822 797 3725 
L 750 3822 
z
" transform="scale(0.015625)"/>
       </defs>
       <use xlink:href="#TimesNewRomanPSMT-31"/>
       <use xlink:href="#TimesNewRomanPSMT-2e" x="50"/>
       <use xlink:href="#TimesNewRomanPSMT-30" x="75"/>
       <use xlink:href="#TimesNewRomanPSMT-30" x="125"/>
      </g>
     </g>
    </g>
    <g id="xtick_7">
     <g id="line2d_13">
      <defs>
       <path id="mb6cc9d7898" d="M 0 0 
L 0 -3 
" style="stroke: #000000; stroke-width: 0.75"/>
      </defs>
      <g>
       <use xlink:href="#mb6cc9d7898" x="65.188039" y="307.83" style="fill: #ffffff; stroke: #000000; stroke-width: 0.75"/>
      </g>
     </g>
     <g id="line2d_14">
      <defs>
       <path id="m6df054fe37" d="M 0 0 
L 0 3 
" style="stroke: #000000; stroke-width: 0.75"/>
      </defs>
      <g>
       <use xlink:href="#m6df054fe37" x="65.188039" y="17.32" style="fill: #ffffff; stroke: #000000; stroke-width: 0.75"/>
      </g>
     </g>
    </g>
    <g id="xtick_8">
     <g id="line2d_15">
      <g>
       <use xlink:href="#mb6cc9d7898" x="77.451324" y="307.83" style="fill: #ffffff; stroke: #000000; stroke-width: 0.75"/>
      </g>
     </g>
     <g id="line2d_16">
      <g>
       <use xlink:href="#m6df054fe37" x="77.451324" y="17.32" style="fill: #ffffff; stroke: #000000; stroke-width: 0.75"/>
      </g>
     </g>
    </g>
    <g id="xtick_9">
     <g id="line2d_17">
      <g>
       <use xlink:href="#mb6cc9d7898" x="89.714608" y="307.83" style="fill: #ffffff; stroke: #000000; stroke-width: 0.75"/>
      </g>
     </g>
     <g id="line2d_18">
      <g>
       <use xlink:href="#m6df054fe37" x="89.714608" y="17.32" style="fill: #ffffff; stroke: #000000; stroke-width: 0.75"/>
      </g>
     </g>
    </g>
    <g id="xtick_10">
     <g id="line2d_19">
      <g>
       <use xlink:href="#mb6cc9d7898" x="114.241177" y="307.83" style="fill: #ffffff; stroke: #000000; stroke-width: 0.75"/>
      </g>
     </g>
     <g id="line2d_20">
      <g>
       <use xlink:href="#m6df054fe37" x="114.241177" y="17.32" style="fill: #ffffff; stroke: #000000; stroke-width: 0.75"/>
      </g>
     </g>
    </g>
    <g id="xtick_11">
     <g id="line2d_21">
      <g>
       <use xlink:href="#mb6cc9d7898" x="126.504461" y="307.83" style="fill: #ffffff; stroke: #000000; stroke-width: 0.75"/>
      </g>
     </g>
     <g id="line2d_22">
      <g>
       <use xlink:href="#m6df054fe37" x="126.504461" y="17.32" style="fill: #ffffff; stroke: #000000; stroke-width: 0.75"/>
      </g>
     </g>
    </g>
    <g id="xtick_12">
     <g id="line2d_23">
      <g>
       <use xlink:href="#mb6cc9d7898" x="138.767745" y="307.83" style="fill: #ffffff; stroke: #000000; stroke-width: 0.75"/>
      </g>
     </g>
     <g id="line2d_24">
      <g>
       <use xlink:href="#m6df054fe37" x="138.767745" y="17.32" style="fill: #ffffff; stroke: #000000; stroke-width: 0.75"/>
      </g>
     </g>
    </g>
    <g id="xtick_13">
     <g id="line2d_25">
      <g>
       <use xlink:href="#mb6cc9d7898" x="151.03103" y="307.83" style="fill: #ffffff; stroke: #000000; stroke-width: 0.75"/>
      </g>
     </g>
     <g id="line2d_26">
      <g>
       <use xlink:href="#m6df054fe37" x="151.03103" y="17.32" style="fill: #ffffff; stroke: #000000; stroke-width: 0.75"/>
      </g>
     </g>
    </g>
    <g id="xtick_14">
     <g id="line2d_27">
      <g>
       <use xlink:href="#mb6cc9d7898" x="175.557598" y="307.83" style="fill: #ffffff; stroke: #000000; stroke-width: 0.75"/>
      </g>
     </g>
     <g id="line2d_28">
      <g>
       <use xlink:href="#m6df054fe37" x="175.557598" y="17.32" style="fill: #ffffff; stroke: #000000; stroke-width: 0.75"/>
      </g>
     </g>
    </g>
    <g id="xtick_15">
     <g id="line2d_29">
      <g>
       <use xlink:href="#mb6cc9d7898" x="187.820883" y="307.83" style="fill: #ffffff; stroke: #000000; stroke-width: 0.75"/>
      </g>
     </g>
     <g id="line2d_30">
      <g>
       <use xlink:href="#m6df054fe37" x="187.820883" y="17.32" style="fill: #ffffff; stroke: #000000; stroke-width: 0.75"/>
      </g>
     </g>
    </g>
    <g id="xtick_16">
     <g id="line2d_31">
      <g>
       <use xlink:href="#mb6cc9d7898" x="200.084167" y="307.83" style="fill: #ffffff; stroke: #000000; stroke-width: 0.75"/>
      </g>
     </g>
     <g id="line2d_32">
      <g>
       <use xlink:href="#m6df054fe37" x="200.084167" y="17.32" style="fill: #ffffff; stroke: #000000; stroke-width: 0.75"/>
      </g>
     </g>
    </g>
    <g id="xtick_17">
     <g id="line2d_33">
      <g>
       <use xlink:href="#mb6cc9d7898" x="212.347451" y="307.83" style="fill: #ffffff; stroke: #000000; stroke-width: 0.75"/>
      </g>
     </g>
     <g id="line2d_34">
      <g>
       <use xlink:href="#m6df054fe37" x="212.347451" y="17.32" style="fill: #ffffff; stroke: #000000; stroke-width: 0.75"/>
      </g>
     </g>
    </g>
    <g id="xtick_18">
     <g id="line2d_35">
      <g>
       <use xlink:href="#mb6cc9d7898" x="236.87402" y="307.83" style="fill: #ffffff; stroke: #000000; stroke-width: 0.75"/>
      </g>
     </g>
     <g id="line2d_36">
      <g>
       <use xlink:href="#m6df054fe37" x="236.87402" y="17.32" style="fill: #ffffff; stroke: #000000; stroke-width: 0.75"/>
      </g>
     </g>
    </g>
    <g id="xtick_19">
     <g id="line2d_37">
      <g>
       <use xlink:href="#mb6cc9d7898" x="249.137304" y="307.83" style="fill: #ffffff; stroke: #000000; stroke-width: 0.75"/>
      </g>
     </g>
     <g id="line2d_38">
      <g>
       <use xlink:href="#m6df054fe37" x="249.137304" y="17.32" style="fill: #ffffff; stroke: #000000; stroke-width: 0.75"/>
      </g>
     </g>
    </g>
    <g id="xtick_20">
     <g id="line2d_39">
      <g>
       <use xlink:href="#mb6cc9d7898" x="261.400588" y="307.83" style="fill: #ffffff; stroke: #000000; stroke-width: 0.75"/>
      </g>
     </g>
     <g id="line2d_40">
      <g>
       <use xlink:href="#m6df054fe37" x="261.400588" y="17.32" style="fill: #ffffff; stroke: #000000; stroke-width: 0.75"/>
      </g>
     </g>
    </g>
    <g id="xtick_21">
     <g id="line2d_41">
      <g>
       <use xlink:href="#mb6cc9d7898" x="273.663873" y="307.83" style="fill: #ffffff; stroke: #000000; stroke-width: 0.75"/>
      </g>
     </g>
     <g id="line2d_42">
      <g>
       <use xlink:href="#m6df054fe37" x="273.663873" y="17.32" style="fill: #ffffff; stroke: #000000; stroke-width: 0.75"/>
      </g>
     </g>
    </g>
    <g id="xtick_22">
     <g id="line2d_43">
      <g>
       <use xlink:href="#mb6cc9d7898" x="298.190441" y="307.83" style="fill: #ffffff; stroke: #000000; stroke-width: 0.75"/>
      </g>
     </g>
     <g id="line2d_44">
      <g>
       <use xlink:href="#m6df054fe37" x="298.190441" y="17.32" style="fill: #ffffff; stroke: #000000; stroke-width: 0.75"/>
      </g>
     </g>
    </g>
    <g id="xtick_23">
     <g id="line2d_45">
      <g>
       <use xlink:href="#mb6cc9d7898" x="310.453726" y="307.83" style="fill: #ffffff; stroke: #000000; stroke-width: 0.75"/>
      </g>
     </g>
     <g id="line2d_46">
      <g>
       <use xlink:href="#m6df054fe37" x="310.453726" y="17.32" style="fill: #ffffff; stroke: #000000; stroke-width: 0.75"/>
      </g>
     </g>
    </g>
    <g id="xtick_24">
     <g id="line2d_47">
      <g>
       <use xlink:href="#mb6cc9d7898" x="322.71701" y="307.83" style="fill: #ffffff; stroke: #000000; stroke-width: 0.75"/>
      </g>
     </g>
     <g id="line2d_48">
      <g>
       <use xlink:href="#m6df054fe37" x="322.71701" y="17.32" style="fill: #ffffff; stroke: #000000; stroke-width: 0.75"/>
      </g>
     </g>
    </g>
    <g id="xtick_25">
     <g id="line2d_49">
      <g>
       <use xlink:href="#mb6cc9d7898" x="334.980294" y="307.83" style="fill: #ffffff; stroke: #000000; stroke-width: 0.75"/>
      </g>
     </g>
     <g id="line2d_50">
      <g>
       <use xlink:href="#m6df054fe37" x="334.980294" y="17.32" style="fill: #ffffff; stroke: #000000; stroke-width: 0.75"/>
      </g>
     </g>
    </g>
    <g id="xtick_26">
     <g id="line2d_51">
      <g>
       <use xlink:href="#mb6cc9d7898" x="359.506863" y="307.83" style="fill: #ffffff; stroke: #000000; stroke-width: 0.75"/>
      </g>
     </g>
     <g id="line2d_52">
      <g>
       <use xlink:href="#m6df054fe37" x="359.506863" y="17.32" style="fill: #ffffff; stroke: #000000; stroke-width: 0.75"/>
      </g>
     </g>
    </g>
    <g id="xtick_27">
     <g id="line2d_53">
      <g>
       <use xlink:href="#mb6cc9d7898" x="371.770147" y="307.83" style="fill: #ffffff; stroke: #000000; stroke-width: 0.75"/>
      </g>
     </g>
     <g id="line2d_54">
      <g>
       <use xlink:href="#m6df054fe37" x="371.770147" y="17.32" style="fill: #ffffff; stroke: #000000; stroke-width: 0.75"/>
      </g>
     </g>
    </g>
    <g id="xtick_28">
     <g id="line2d_55">
      <g>
       <use xlink:href="#mb6cc9d7898" x="384.033431" y="307.83" style="fill: #ffffff; stroke: #000000; stroke-width: 0.75"/>
      </g>
     </g>
     <g id="line2d_56">
      <g>
       <use xlink:href="#m6df054fe37" x="384.033431" y="17.32" style="fill: #ffffff; stroke: #000000; stroke-width: 0.75"/>
      </g>
     </g>
    </g>
    <g id="xtick_29">
     <g id="line2d_57">
      <g>
       <use xlink:href="#mb6cc9d7898" x="396.296716" y="307.83" style="fill: #ffffff; stroke: #000000; stroke-width: 0.75"/>
      </g>
     </g>
     <g id="line2d_58">
      <g>
       <use xlink:href="#m6df054fe37" x="396.296716" y="17.32" style="fill: #ffffff; stroke: #000000; stroke-width: 0.75"/>
      </g>
     </g>
    </g>
    <g id="text_7">
     <!-- $T/T_\text{crit}$ - Reduced temperature -->
     <g transform="translate(155.83 341.079375) scale(0.13 -0.13)">
      <defs>
       <path id="STIXGeneral-Italic-54" d="M 4051 4179 
L 3770 3130 
L 3661 3142 
Q 3680 3302 3680 3437 
Q 3680 3955 3034 3955 
L 2662 3955 
L 1786 819 
Q 1696 506 1696 397 
Q 1696 250 1766 195 
Q 1837 141 2035 122 
L 2259 102 
L 2259 0 
L 416 0 
L 416 102 
Q 749 134 889 230 
Q 1030 326 1101 582 
L 2016 3955 
Q 1254 3955 988 3817 
Q 723 3680 493 3162 
L 378 3187 
L 646 4179 
L 4051 4179 
z
" transform="scale(0.015625)"/>
       <path id="STIXGeneral-Regular-2f" d="M 1837 4326 
L 378 -90 
L -58 -90 
L 1408 4326 
L 1837 4326 
z
" transform="scale(0.015625)"/>
       <path id="STIXGeneral-Regular-63" d="M 2547 998 
L 2637 941 
Q 2362 403 2112 205 
Q 1786 -64 1376 -64 
Q 845 -64 502 336 
Q 160 736 160 1357 
Q 160 2170 698 2618 
Q 1094 2944 1562 2944 
Q 1965 2944 2256 2749 
Q 2547 2554 2547 2285 
Q 2547 2176 2457 2096 
Q 2368 2016 2246 2016 
Q 2022 2016 1939 2310 
L 1901 2451 
Q 1850 2630 1773 2694 
Q 1696 2758 1523 2758 
Q 1133 2758 893 2451 
Q 653 2144 653 1645 
Q 653 1094 928 745 
Q 1203 397 1645 397 
Q 1920 397 2118 528 
Q 2317 659 2547 998 
z
" transform="scale(0.015625)"/>
       <path id="STIXGeneral-Regular-72" d="M 1024 2931 
L 1024 2342 
Q 1267 2688 1430 2816 
Q 1594 2944 1792 2944 
Q 1958 2944 2051 2854 
Q 2144 2765 2144 2605 
Q 2144 2470 2077 2393 
Q 2010 2317 1894 2317 
Q 1773 2317 1638 2445 
Q 1536 2541 1472 2541 
Q 1338 2541 1181 2355 
Q 1024 2170 1024 2016 
L 1024 576 
Q 1024 301 1133 205 
Q 1242 109 1568 96 
L 1568 0 
L 32 0 
L 32 96 
Q 339 154 412 224 
Q 486 294 486 538 
L 486 2138 
Q 486 2349 438 2435 
Q 390 2522 269 2522 
Q 166 2522 45 2496 
L 45 2598 
Q 448 2726 992 2944 
L 1024 2931 
z
" transform="scale(0.015625)"/>
       <path id="STIXGeneral-Regular-69" d="M 1152 4045 
Q 1152 3904 1056 3811 
Q 960 3718 819 3718 
Q 685 3718 592 3811 
Q 499 3904 499 4045 
Q 499 4179 595 4275 
Q 691 4371 826 4371 
Q 966 4371 1059 4275 
Q 1152 4179 1152 4045 
z
M 1619 0 
L 102 0 
L 102 96 
Q 435 115 521 211 
Q 608 307 608 666 
L 608 2118 
Q 608 2342 563 2432 
Q 518 2522 397 2522 
Q 243 2522 128 2490 
L 128 2592 
L 1120 2944 
L 1146 2918 
L 1146 672 
Q 1146 314 1226 218 
Q 1306 122 1619 96 
L 1619 0 
z
" transform="scale(0.015625)"/>
       <path id="STIXGeneral-Regular-74" d="M 1702 493 
L 1786 422 
Q 1478 -64 1011 -64 
Q 448 -64 448 749 
L 448 2675 
L 109 2675 
Q 83 2694 83 2720 
Q 83 2771 192 2842 
Q 435 2982 813 3526 
Q 826 3546 874 3606 
Q 922 3667 941 3706 
Q 986 3706 986 3622 
L 986 2880 
L 1632 2880 
L 1632 2675 
L 986 2675 
L 986 845 
Q 986 538 1062 403 
Q 1139 269 1318 269 
Q 1510 269 1702 493 
z
" transform="scale(0.015625)"/>
       <path id="TimesNewRomanPSMT-20" transform="scale(0.015625)"/>
       <path id="TimesNewRomanPSMT-2d" d="M 259 1672 
L 1875 1672 
L 1875 1200 
L 259 1200 
L 259 1672 
z
" transform="scale(0.015625)"/>
       <path id="TimesNewRomanPSMT-52" d="M 4325 0 
L 3194 0 
L 1759 1981 
Q 1600 1975 1500 1975 
Q 1459 1975 1412 1976 
Q 1366 1978 1316 1981 
L 1316 750 
Q 1316 350 1403 253 
Q 1522 116 1759 116 
L 1925 116 
L 1925 0 
L 109 0 
L 109 116 
L 269 116 
Q 538 116 653 291 
Q 719 388 719 750 
L 719 3488 
Q 719 3888 631 3984 
Q 509 4122 269 4122 
L 109 4122 
L 109 4238 
L 1653 4238 
Q 2328 4238 2648 4139 
Q 2969 4041 3192 3777 
Q 3416 3513 3416 3147 
Q 3416 2756 3161 2468 
Q 2906 2181 2372 2063 
L 3247 847 
Q 3547 428 3762 290 
Q 3978 153 4325 116 
L 4325 0 
z
M 1316 2178 
Q 1375 2178 1419 2176 
Q 1463 2175 1491 2175 
Q 2097 2175 2405 2437 
Q 2713 2700 2713 3106 
Q 2713 3503 2464 3751 
Q 2216 4000 1806 4000 
Q 1625 4000 1316 3941 
L 1316 2178 
z
" transform="scale(0.015625)"/>
       <path id="TimesNewRomanPSMT-65" d="M 681 1784 
Q 678 1147 991 784 
Q 1303 422 1725 422 
Q 2006 422 2214 576 
Q 2422 731 2563 1106 
L 2659 1044 
Q 2594 616 2278 264 
Q 1963 -88 1488 -88 
Q 972 -88 605 314 
Q 238 716 238 1394 
Q 238 2128 614 2539 
Q 991 2950 1559 2950 
Q 2041 2950 2350 2633 
Q 2659 2316 2659 1784 
L 681 1784 
z
M 681 1966 
L 2006 1966 
Q 1991 2241 1941 2353 
Q 1863 2528 1708 2628 
Q 1553 2728 1384 2728 
Q 1125 2728 920 2526 
Q 716 2325 681 1966 
z
" transform="scale(0.015625)"/>
       <path id="TimesNewRomanPSMT-64" d="M 2222 322 
Q 2013 103 1813 7 
Q 1613 -88 1381 -88 
Q 913 -88 563 304 
Q 213 697 213 1313 
Q 213 1928 600 2439 
Q 988 2950 1597 2950 
Q 1975 2950 2222 2709 
L 2222 3238 
Q 2222 3728 2198 3840 
Q 2175 3953 2125 3993 
Q 2075 4034 2000 4034 
Q 1919 4034 1784 3984 
L 1744 4094 
L 2597 4444 
L 2738 4444 
L 2738 1134 
Q 2738 631 2761 520 
Q 2784 409 2836 365 
Q 2888 322 2956 322 
Q 3041 322 3181 375 
L 3216 266 
L 2366 -88 
L 2222 -88 
L 2222 322 
z
M 2222 541 
L 2222 2016 
Q 2203 2228 2109 2403 
Q 2016 2578 1861 2667 
Q 1706 2756 1559 2756 
Q 1284 2756 1069 2509 
Q 784 2184 784 1559 
Q 784 928 1059 592 
Q 1334 256 1672 256 
Q 1956 256 2222 541 
z
" transform="scale(0.015625)"/>
       <path id="TimesNewRomanPSMT-75" d="M 2709 2863 
L 2709 1128 
Q 2709 631 2732 520 
Q 2756 409 2807 365 
Q 2859 322 2928 322 
Q 3025 322 3147 375 
L 3191 266 
L 2334 -88 
L 2194 -88 
L 2194 519 
Q 1825 119 1631 15 
Q 1438 -88 1222 -88 
Q 981 -88 804 51 
Q 628 191 559 409 
Q 491 628 491 1028 
L 491 2306 
Q 491 2509 447 2587 
Q 403 2666 317 2708 
Q 231 2750 6 2747 
L 6 2863 
L 1009 2863 
L 1009 947 
Q 1009 547 1148 422 
Q 1288 297 1484 297 
Q 1619 297 1789 381 
Q 1959 466 2194 703 
L 2194 2325 
Q 2194 2569 2105 2655 
Q 2016 2741 1734 2747 
L 1734 2863 
L 2709 2863 
z
" transform="scale(0.015625)"/>
       <path id="TimesNewRomanPSMT-63" d="M 2631 1088 
Q 2516 522 2178 217 
Q 1841 -88 1431 -88 
Q 944 -88 581 321 
Q 219 731 219 1428 
Q 219 2103 620 2525 
Q 1022 2947 1584 2947 
Q 2006 2947 2278 2723 
Q 2550 2500 2550 2259 
Q 2550 2141 2473 2067 
Q 2397 1994 2259 1994 
Q 2075 1994 1981 2113 
Q 1928 2178 1911 2362 
Q 1894 2547 1784 2644 
Q 1675 2738 1481 2738 
Q 1169 2738 978 2506 
Q 725 2200 725 1697 
Q 725 1184 976 792 
Q 1228 400 1656 400 
Q 1963 400 2206 609 
Q 2378 753 2541 1131 
L 2631 1088 
z
" transform="scale(0.015625)"/>
       <path id="TimesNewRomanPSMT-74" d="M 1031 3803 
L 1031 2863 
L 1700 2863 
L 1700 2644 
L 1031 2644 
L 1031 788 
Q 1031 509 1111 412 
Q 1191 316 1316 316 
Q 1419 316 1516 380 
Q 1613 444 1666 569 
L 1788 569 
Q 1678 263 1478 108 
Q 1278 -47 1066 -47 
Q 922 -47 784 33 
Q 647 113 581 261 
Q 516 409 516 719 
L 516 2644 
L 63 2644 
L 63 2747 
Q 234 2816 414 2980 
Q 594 3144 734 3369 
Q 806 3488 934 3803 
L 1031 3803 
z
" transform="scale(0.015625)"/>
       <path id="TimesNewRomanPSMT-6d" d="M 1050 2338 
Q 1363 2650 1419 2697 
Q 1559 2816 1721 2881 
Q 1884 2947 2044 2947 
Q 2313 2947 2506 2790 
Q 2700 2634 2766 2338 
Q 3088 2713 3309 2830 
Q 3531 2947 3766 2947 
Q 3994 2947 4170 2830 
Q 4347 2713 4450 2447 
Q 4519 2266 4519 1878 
L 4519 647 
Q 4519 378 4559 278 
Q 4591 209 4675 161 
Q 4759 113 4950 113 
L 4950 0 
L 3538 0 
L 3538 113 
L 3597 113 
Q 3781 113 3884 184 
Q 3956 234 3988 344 
Q 4000 397 4000 647 
L 4000 1878 
Q 4000 2228 3916 2372 
Q 3794 2572 3525 2572 
Q 3359 2572 3192 2489 
Q 3025 2406 2788 2181 
L 2781 2147 
L 2788 2013 
L 2788 647 
Q 2788 353 2820 281 
Q 2853 209 2943 161 
Q 3034 113 3253 113 
L 3253 0 
L 1806 0 
L 1806 113 
Q 2044 113 2133 169 
Q 2222 225 2256 338 
Q 2272 391 2272 647 
L 2272 1878 
Q 2272 2228 2169 2381 
Q 2031 2581 1784 2581 
Q 1616 2581 1450 2491 
Q 1191 2353 1050 2181 
L 1050 647 
Q 1050 366 1089 281 
Q 1128 197 1204 155 
Q 1281 113 1516 113 
L 1516 0 
L 100 0 
L 100 113 
Q 297 113 375 155 
Q 453 197 493 289 
Q 534 381 534 647 
L 534 1741 
Q 534 2213 506 2350 
Q 484 2453 437 2492 
Q 391 2531 309 2531 
Q 222 2531 100 2484 
L 53 2597 
L 916 2947 
L 1050 2947 
L 1050 2338 
z
" transform="scale(0.015625)"/>
       <path id="TimesNewRomanPSMT-70" d="M -6 2578 
L 875 2934 
L 994 2934 
L 994 2266 
Q 1216 2644 1439 2795 
Q 1663 2947 1909 2947 
Q 2341 2947 2628 2609 
Q 2981 2197 2981 1534 
Q 2981 794 2556 309 
Q 2206 -88 1675 -88 
Q 1444 -88 1275 -22 
Q 1150 25 994 166 
L 994 -706 
Q 994 -1000 1030 -1079 
Q 1066 -1159 1155 -1206 
Q 1244 -1253 1478 -1253 
L 1478 -1369 
L -22 -1369 
L -22 -1253 
L 56 -1253 
Q 228 -1256 350 -1188 
Q 409 -1153 442 -1076 
Q 475 -1000 475 -688 
L 475 2019 
Q 475 2297 450 2372 
Q 425 2447 370 2484 
Q 316 2522 222 2522 
Q 147 2522 31 2478 
L -6 2578 
z
M 994 2081 
L 994 1013 
Q 994 666 1022 556 
Q 1066 375 1236 237 
Q 1406 100 1666 100 
Q 1978 100 2172 344 
Q 2425 663 2425 1241 
Q 2425 1897 2138 2250 
Q 1938 2494 1663 2494 
Q 1513 2494 1366 2419 
Q 1253 2363 994 2081 
z
" transform="scale(0.015625)"/>
       <path id="TimesNewRomanPSMT-72" d="M 1038 2947 
L 1038 2303 
Q 1397 2947 1775 2947 
Q 1947 2947 2059 2842 
Q 2172 2738 2172 2600 
Q 2172 2478 2090 2393 
Q 2009 2309 1897 2309 
Q 1788 2309 1652 2417 
Q 1516 2525 1450 2525 
Q 1394 2525 1328 2463 
Q 1188 2334 1038 2041 
L 1038 669 
Q 1038 431 1097 309 
Q 1138 225 1241 169 
Q 1344 113 1538 113 
L 1538 0 
L 72 0 
L 72 113 
Q 291 113 397 181 
Q 475 231 506 341 
Q 522 394 522 644 
L 522 1753 
Q 522 2253 501 2348 
Q 481 2444 426 2487 
Q 372 2531 291 2531 
Q 194 2531 72 2484 
L 41 2597 
L 906 2947 
L 1038 2947 
z
" transform="scale(0.015625)"/>
       <path id="TimesNewRomanPSMT-61" d="M 1822 413 
Q 1381 72 1269 19 
Q 1100 -59 909 -59 
Q 613 -59 420 144 
Q 228 347 228 678 
Q 228 888 322 1041 
Q 450 1253 767 1440 
Q 1084 1628 1822 1897 
L 1822 2009 
Q 1822 2438 1686 2597 
Q 1550 2756 1291 2756 
Q 1094 2756 978 2650 
Q 859 2544 859 2406 
L 866 2225 
Q 866 2081 792 2003 
Q 719 1925 600 1925 
Q 484 1925 411 2006 
Q 338 2088 338 2228 
Q 338 2497 613 2722 
Q 888 2947 1384 2947 
Q 1766 2947 2009 2819 
Q 2194 2722 2281 2516 
Q 2338 2381 2338 1966 
L 2338 994 
Q 2338 584 2353 492 
Q 2369 400 2405 369 
Q 2441 338 2488 338 
Q 2538 338 2575 359 
Q 2641 400 2828 588 
L 2828 413 
Q 2478 -56 2159 -56 
Q 2006 -56 1915 50 
Q 1825 156 1822 413 
z
M 1822 616 
L 1822 1706 
Q 1350 1519 1213 1441 
Q 966 1303 859 1153 
Q 753 1003 753 825 
Q 753 600 887 451 
Q 1022 303 1197 303 
Q 1434 303 1822 616 
z
" transform="scale(0.015625)"/>
      </defs>
      <use xlink:href="#STIXGeneral-Italic-54" transform="translate(0 0.5625)"/>
      <use xlink:href="#STIXGeneral-Regular-2f" transform="translate(55.599991 0.5625)"/>
      <use xlink:href="#STIXGeneral-Italic-54" transform="translate(83.399979 0.5625)"/>
      <use xlink:href="#STIXGeneral-Regular-63" transform="translate(138.999969 -12.665625) scale(0.7)"/>
      <use xlink:href="#STIXGeneral-Regular-72" transform="translate(170.079965 -12.665625) scale(0.7)"/>
      <use xlink:href="#STIXGeneral-Regular-69" transform="translate(193.389957 -12.665625) scale(0.7)"/>
      <use xlink:href="#STIXGeneral-Regular-74" transform="translate(212.849948 -12.665625) scale(0.7)"/>
      <use xlink:href="#TimesNewRomanPSMT-20" transform="translate(236.719315 0.5625)"/>
      <use xlink:href="#TimesNewRomanPSMT-2d" transform="translate(261.719315 0.5625)"/>
      <use xlink:href="#TimesNewRomanPSMT-20" transform="translate(295.020096 0.5625)"/>
      <use xlink:href="#TimesNewRomanPSMT-52" transform="translate(320.020096 0.5625)"/>
      <use xlink:href="#TimesNewRomanPSMT-65" transform="translate(386.719315 0.5625)"/>
      <use xlink:href="#TimesNewRomanPSMT-64" transform="translate(431.10408 0.5625)"/>
      <use xlink:href="#TimesNewRomanPSMT-75" transform="translate(481.10408 0.5625)"/>
      <use xlink:href="#TimesNewRomanPSMT-63" transform="translate(531.10408 0.5625)"/>
      <use xlink:href="#TimesNewRomanPSMT-65" transform="translate(575.488846 0.5625)"/>
      <use xlink:href="#TimesNewRomanPSMT-64" transform="translate(619.873611 0.5625)"/>
      <use xlink:href="#TimesNewRomanPSMT-20" transform="translate(669.873611 0.5625)"/>
      <use xlink:href="#TimesNewRomanPSMT-74" transform="translate(694.873611 0.5625)"/>
      <use xlink:href="#TimesNewRomanPSMT-65" transform="translate(722.656815 0.5625)"/>
      <use xlink:href="#TimesNewRomanPSMT-6d" transform="translate(767.04158 0.5625)"/>
      <use xlink:href="#TimesNewRomanPSMT-70" transform="translate(844.824783 0.5625)"/>
      <use xlink:href="#TimesNewRomanPSMT-65" transform="translate(894.824783 0.5625)"/>
      <use xlink:href="#TimesNewRomanPSMT-72" transform="translate(939.209549 0.5625)"/>
      <use xlink:href="#TimesNewRomanPSMT-61" transform="translate(972.51033 0.5625)"/>
      <use xlink:href="#TimesNewRomanPSMT-74" transform="translate(1016.895096 0.5625)"/>
      <use xlink:href="#TimesNewRomanPSMT-75" transform="translate(1044.678299 0.5625)"/>
      <use xlink:href="#TimesNewRomanPSMT-72" transform="translate(1094.678299 0.5625)"/>
      <use xlink:href="#TimesNewRomanPSMT-65" transform="translate(1127.97908 0.5625)"/>
     </g>
    </g>
   </g>
   <g id="matplotlib.axis_2">
    <g id="ytick_1">
     <g id="line2d_59">
      <defs>
       <path id="mafe77756f7" d="M 0 0 
L 6 0 
" style="stroke: #000000; stroke-width: 1.25"/>
      </defs>
      <g>
       <use xlink:href="#mafe77756f7" x="55.59" y="307.83" style="fill: #ffffff; stroke: #000000; stroke-width: 1.25"/>
      </g>
     </g>
     <g id="line2d_60">
      <defs>
       <path id="mca57c7ed9a" d="M 0 0 
L -6 0 
" style="stroke: #000000; stroke-width: 1.25"/>
      </defs>
      <g>
       <use xlink:href="#mca57c7ed9a" x="408.56" y="307.83" style="fill: #ffffff; stroke: #000000; stroke-width: 1.25"/>
      </g>
     </g>
     <g id="text_8">
      <!-- 0.0 -->
      <g transform="translate(37.09 311.99625) scale(0.12 -0.12)">
       <use xlink:href="#TimesNewRomanPSMT-30"/>
       <use xlink:href="#TimesNewRomanPSMT-2e" x="50"/>
       <use xlink:href="#TimesNewRomanPSMT-30" x="75"/>
      </g>
     </g>
    </g>
    <g id="ytick_2">
     <g id="line2d_61">
      <g>
       <use xlink:href="#mafe77756f7" x="55.59" y="249.728" style="fill: #ffffff; stroke: #000000; stroke-width: 1.25"/>
      </g>
     </g>
     <g id="line2d_62">
      <g>
       <use xlink:href="#mca57c7ed9a" x="408.56" y="249.728" style="fill: #ffffff; stroke: #000000; stroke-width: 1.25"/>
      </g>
     </g>
     <g id="text_9">
      <!-- 0.2 -->
      <g transform="translate(37.09 253.89425) scale(0.12 -0.12)">
       <defs>
        <path id="TimesNewRomanPSMT-32" d="M 2934 816 
L 2638 0 
L 138 0 
L 138 116 
Q 1241 1122 1691 1759 
Q 2141 2397 2141 2925 
Q 2141 3328 1894 3587 
Q 1647 3847 1303 3847 
Q 991 3847 742 3664 
Q 494 3481 375 3128 
L 259 3128 
Q 338 3706 661 4015 
Q 984 4325 1469 4325 
Q 1984 4325 2329 3994 
Q 2675 3663 2675 3213 
Q 2675 2891 2525 2569 
Q 2294 2063 1775 1497 
Q 997 647 803 472 
L 1909 472 
Q 2247 472 2383 497 
Q 2519 522 2628 598 
Q 2738 675 2819 816 
L 2934 816 
z
" transform="scale(0.015625)"/>
       </defs>
       <use xlink:href="#TimesNewRomanPSMT-30"/>
       <use xlink:href="#TimesNewRomanPSMT-2e" x="50"/>
       <use xlink:href="#TimesNewRomanPSMT-32" x="75"/>
      </g>
     </g>
    </g>
    <g id="ytick_3">
     <g id="line2d_63">
      <g>
       <use xlink:href="#mafe77756f7" x="55.59" y="191.626" style="fill: #ffffff; stroke: #000000; stroke-width: 1.25"/>
      </g>
     </g>
     <g id="line2d_64">
      <g>
       <use xlink:href="#mca57c7ed9a" x="408.56" y="191.626" style="fill: #ffffff; stroke: #000000; stroke-width: 1.25"/>
      </g>
     </g>
     <g id="text_10">
      <!-- 0.4 -->
      <g transform="translate(37.09 195.79225) scale(0.12 -0.12)">
       <defs>
        <path id="TimesNewRomanPSMT-34" d="M 2978 1563 
L 2978 1119 
L 2409 1119 
L 2409 0 
L 1894 0 
L 1894 1119 
L 100 1119 
L 100 1519 
L 2066 4325 
L 2409 4325 
L 2409 1563 
L 2978 1563 
z
M 1894 1563 
L 1894 3666 
L 406 1563 
L 1894 1563 
z
" transform="scale(0.015625)"/>
       </defs>
       <use xlink:href="#TimesNewRomanPSMT-30"/>
       <use xlink:href="#TimesNewRomanPSMT-2e" x="50"/>
       <use xlink:href="#TimesNewRomanPSMT-34" x="75"/>
      </g>
     </g>
    </g>
    <g id="ytick_4">
     <g id="line2d_65">
      <g>
       <use xlink:href="#mafe77756f7" x="55.59" y="133.524" style="fill: #ffffff; stroke: #000000; stroke-width: 1.25"/>
      </g>
     </g>
     <g id="line2d_66">
      <g>
       <use xlink:href="#mca57c7ed9a" x="408.56" y="133.524" style="fill: #ffffff; stroke: #000000; stroke-width: 1.25"/>
      </g>
     </g>
     <g id="text_11">
      <!-- 0.6 -->
      <g transform="translate(37.09 137.69025) scale(0.12 -0.12)">
       <defs>
        <path id="TimesNewRomanPSMT-36" d="M 2869 4325 
L 2869 4209 
Q 2456 4169 2195 4045 
Q 1934 3922 1679 3669 
Q 1425 3416 1258 3105 
Q 1091 2794 978 2366 
Q 1428 2675 1881 2675 
Q 2316 2675 2634 2325 
Q 2953 1975 2953 1425 
Q 2953 894 2631 456 
Q 2244 -75 1606 -75 
Q 1172 -75 869 213 
Q 275 772 275 1663 
Q 275 2231 503 2743 
Q 731 3256 1154 3653 
Q 1578 4050 1965 4187 
Q 2353 4325 2688 4325 
L 2869 4325 
z
M 925 2138 
Q 869 1716 869 1456 
Q 869 1156 980 804 
Q 1091 453 1309 247 
Q 1469 100 1697 100 
Q 1969 100 2183 356 
Q 2397 613 2397 1088 
Q 2397 1622 2184 2012 
Q 1972 2403 1581 2403 
Q 1463 2403 1327 2353 
Q 1191 2303 925 2138 
z
" transform="scale(0.015625)"/>
       </defs>
       <use xlink:href="#TimesNewRomanPSMT-30"/>
       <use xlink:href="#TimesNewRomanPSMT-2e" x="50"/>
       <use xlink:href="#TimesNewRomanPSMT-36" x="75"/>
      </g>
     </g>
    </g>
    <g id="ytick_5">
     <g id="line2d_67">
      <g>
       <use xlink:href="#mafe77756f7" x="55.59" y="75.422" style="fill: #ffffff; stroke: #000000; stroke-width: 1.25"/>
      </g>
     </g>
     <g id="line2d_68">
      <g>
       <use xlink:href="#mca57c7ed9a" x="408.56" y="75.422" style="fill: #ffffff; stroke: #000000; stroke-width: 1.25"/>
      </g>
     </g>
     <g id="text_12">
      <!-- 0.8 -->
      <g transform="translate(37.09 79.58825) scale(0.12 -0.12)">
       <use xlink:href="#TimesNewRomanPSMT-30"/>
       <use xlink:href="#TimesNewRomanPSMT-2e" x="50"/>
       <use xlink:href="#TimesNewRomanPSMT-38" x="75"/>
      </g>
     </g>
    </g>
    <g id="ytick_6">
     <g id="line2d_69">
      <g>
       <use xlink:href="#mafe77756f7" x="55.59" y="17.32" style="fill: #ffffff; stroke: #000000; stroke-width: 1.25"/>
      </g>
     </g>
     <g id="line2d_70">
      <g>
       <use xlink:href="#mca57c7ed9a" x="408.56" y="17.32" style="fill: #ffffff; stroke: #000000; stroke-width: 1.25"/>
      </g>
     </g>
     <g id="text_13">
      <!-- 1.0 -->
      <g transform="translate(37.09 21.48625) scale(0.12 -0.12)">
       <use xlink:href="#TimesNewRomanPSMT-31"/>
       <use xlink:href="#TimesNewRomanPSMT-2e" x="50"/>
       <use xlink:href="#TimesNewRomanPSMT-30" x="75"/>
      </g>
     </g>
    </g>
    <g id="ytick_7">
     <g id="line2d_71">
      <defs>
       <path id="m0b2c547088" d="M 0 0 
L 3 0 
" style="stroke: #000000; stroke-width: 0.75"/>
      </defs>
      <g>
       <use xlink:href="#m0b2c547088" x="55.59" y="293.3045" style="fill: #ffffff; stroke: #000000; stroke-width: 0.75"/>
      </g>
     </g>
     <g id="line2d_72">
      <defs>
       <path id="m89e5c722af" d="M 0 0 
L -3 0 
" style="stroke: #000000; stroke-width: 0.75"/>
      </defs>
      <g>
       <use xlink:href="#m89e5c722af" x="408.56" y="293.3045" style="fill: #ffffff; stroke: #000000; stroke-width: 0.75"/>
      </g>
     </g>
    </g>
    <g id="ytick_8">
     <g id="line2d_73">
      <g>
       <use xlink:href="#m0b2c547088" x="55.59" y="278.779" style="fill: #ffffff; stroke: #000000; stroke-width: 0.75"/>
      </g>
     </g>
     <g id="line2d_74">
      <g>
       <use xlink:href="#m89e5c722af" x="408.56" y="278.779" style="fill: #ffffff; stroke: #000000; stroke-width: 0.75"/>
      </g>
     </g>
    </g>
    <g id="ytick_9">
     <g id="line2d_75">
      <g>
       <use xlink:href="#m0b2c547088" x="55.59" y="264.2535" style="fill: #ffffff; stroke: #000000; stroke-width: 0.75"/>
      </g>
     </g>
     <g id="line2d_76">
      <g>
       <use xlink:href="#m89e5c722af" x="408.56" y="264.2535" style="fill: #ffffff; stroke: #000000; stroke-width: 0.75"/>
      </g>
     </g>
    </g>
    <g id="ytick_10">
     <g id="line2d_77">
      <g>
       <use xlink:href="#m0b2c547088" x="55.59" y="235.2025" style="fill: #ffffff; stroke: #000000; stroke-width: 0.75"/>
      </g>
     </g>
     <g id="line2d_78">
      <g>
       <use xlink:href="#m89e5c722af" x="408.56" y="235.2025" style="fill: #ffffff; stroke: #000000; stroke-width: 0.75"/>
      </g>
     </g>
    </g>
    <g id="ytick_11">
     <g id="line2d_79">
      <g>
       <use xlink:href="#m0b2c547088" x="55.59" y="220.677" style="fill: #ffffff; stroke: #000000; stroke-width: 0.75"/>
      </g>
     </g>
     <g id="line2d_80">
      <g>
       <use xlink:href="#m89e5c722af" x="408.56" y="220.677" style="fill: #ffffff; stroke: #000000; stroke-width: 0.75"/>
      </g>
     </g>
    </g>
    <g id="ytick_12">
     <g id="line2d_81">
      <g>
       <use xlink:href="#m0b2c547088" x="55.59" y="206.1515" style="fill: #ffffff; stroke: #000000; stroke-width: 0.75"/>
      </g>
     </g>
     <g id="line2d_82">
      <g>
       <use xlink:href="#m89e5c722af" x="408.56" y="206.1515" style="fill: #ffffff; stroke: #000000; stroke-width: 0.75"/>
      </g>
     </g>
    </g>
    <g id="ytick_13">
     <g id="line2d_83">
      <g>
       <use xlink:href="#m0b2c547088" x="55.59" y="177.1005" style="fill: #ffffff; stroke: #000000; stroke-width: 0.75"/>
      </g>
     </g>
     <g id="line2d_84">
      <g>
       <use xlink:href="#m89e5c722af" x="408.56" y="177.1005" style="fill: #ffffff; stroke: #000000; stroke-width: 0.75"/>
      </g>
     </g>
    </g>
    <g id="ytick_14">
     <g id="line2d_85">
      <g>
       <use xlink:href="#m0b2c547088" x="55.59" y="162.575" style="fill: #ffffff; stroke: #000000; stroke-width: 0.75"/>
      </g>
     </g>
     <g id="line2d_86">
      <g>
       <use xlink:href="#m89e5c722af" x="408.56" y="162.575" style="fill: #ffffff; stroke: #000000; stroke-width: 0.75"/>
      </g>
     </g>
    </g>
    <g id="ytick_15">
     <g id="line2d_87">
      <g>
       <use xlink:href="#m0b2c547088" x="55.59" y="148.0495" style="fill: #ffffff; stroke: #000000; stroke-width: 0.75"/>
      </g>
     </g>
     <g id="line2d_88">
      <g>
       <use xlink:href="#m89e5c722af" x="408.56" y="148.0495" style="fill: #ffffff; stroke: #000000; stroke-width: 0.75"/>
      </g>
     </g>
    </g>
    <g id="ytick_16">
     <g id="line2d_89">
      <g>
       <use xlink:href="#m0b2c547088" x="55.59" y="118.9985" style="fill: #ffffff; stroke: #000000; stroke-width: 0.75"/>
      </g>
     </g>
     <g id="line2d_90">
      <g>
       <use xlink:href="#m89e5c722af" x="408.56" y="118.9985" style="fill: #ffffff; stroke: #000000; stroke-width: 0.75"/>
      </g>
     </g>
    </g>
    <g id="ytick_17">
     <g id="line2d_91">
      <g>
       <use xlink:href="#m0b2c547088" x="55.59" y="104.473" style="fill: #ffffff; stroke: #000000; stroke-width: 0.75"/>
      </g>
     </g>
     <g id="line2d_92">
      <g>
       <use xlink:href="#m89e5c722af" x="408.56" y="104.473" style="fill: #ffffff; stroke: #000000; stroke-width: 0.75"/>
      </g>
     </g>
    </g>
    <g id="ytick_18">
     <g id="line2d_93">
      <g>
       <use xlink:href="#m0b2c547088" x="55.59" y="89.9475" style="fill: #ffffff; stroke: #000000; stroke-width: 0.75"/>
      </g>
     </g>
     <g id="line2d_94">
      <g>
       <use xlink:href="#m89e5c722af" x="408.56" y="89.9475" style="fill: #ffffff; stroke: #000000; stroke-width: 0.75"/>
      </g>
     </g>
    </g>
    <g id="ytick_19">
     <g id="line2d_95">
      <g>
       <use xlink:href="#m0b2c547088" x="55.59" y="60.8965" style="fill: #ffffff; stroke: #000000; stroke-width: 0.75"/>
      </g>
     </g>
     <g id="line2d_96">
      <g>
       <use xlink:href="#m89e5c722af" x="408.56" y="60.8965" style="fill: #ffffff; stroke: #000000; stroke-width: 0.75"/>
      </g>
     </g>
    </g>
    <g id="ytick_20">
     <g id="line2d_97">
      <g>
       <use xlink:href="#m0b2c547088" x="55.59" y="46.371" style="fill: #ffffff; stroke: #000000; stroke-width: 0.75"/>
      </g>
     </g>
     <g id="line2d_98">
      <g>
       <use xlink:href="#m89e5c722af" x="408.56" y="46.371" style="fill: #ffffff; stroke: #000000; stroke-width: 0.75"/>
      </g>
     </g>
    </g>
    <g id="ytick_21">
     <g id="line2d_99">
      <g>
       <use xlink:href="#m0b2c547088" x="55.59" y="31.8455" style="fill: #ffffff; stroke: #000000; stroke-width: 0.75"/>
      </g>
     </g>
     <g id="line2d_100">
      <g>
       <use xlink:href="#m89e5c722af" x="408.56" y="31.8455" style="fill: #ffffff; stroke: #000000; stroke-width: 0.75"/>
      </g>
     </g>
    </g>
    <g id="text_14">
     <!-- $p/p_\text{crit}$ - Reduced pressure -->
     <g transform="translate(24.48 228.745) rotate(-90) scale(0.13 -0.13)">
      <defs>
       <path id="STIXGeneral-Italic-70" d="M 1376 2739 
L 1190 2099 
Q 1670 2822 2285 2822 
Q 2637 2822 2829 2611 
Q 3021 2400 3021 2022 
Q 3021 1235 2422 582 
Q 1824 -70 1120 -70 
Q 890 -70 678 38 
Q 422 -1018 422 -1024 
Q 422 -1126 508 -1168 
Q 595 -1210 819 -1210 
L 819 -1312 
L -480 -1312 
L -480 -1210 
Q -275 -1203 -188 -1120 
Q -102 -1037 -45 -806 
L 691 1958 
Q 794 2330 794 2413 
Q 794 2586 512 2586 
L 371 2586 
L 358 2682 
L 1357 2822 
Q 1389 2822 1389 2797 
Q 1382 2765 1376 2739 
z
M 2445 2003 
Q 2445 2285 2352 2416 
Q 2259 2547 2048 2547 
Q 1798 2547 1548 2329 
Q 1299 2112 1184 1818 
Q 1043 1453 905 953 
Q 768 454 768 294 
Q 768 186 854 118 
Q 941 51 1075 51 
Q 1574 51 2003 659 
Q 2445 1274 2445 2003 
z
" transform="scale(0.015625)"/>
       <path id="TimesNewRomanPSMT-73" d="M 2050 2947 
L 2050 1972 
L 1947 1972 
Q 1828 2431 1642 2597 
Q 1456 2763 1169 2763 
Q 950 2763 815 2647 
Q 681 2531 681 2391 
Q 681 2216 781 2091 
Q 878 1963 1175 1819 
L 1631 1597 
Q 2266 1288 2266 781 
Q 2266 391 1970 151 
Q 1675 -88 1309 -88 
Q 1047 -88 709 6 
Q 606 38 541 38 
Q 469 38 428 -44 
L 325 -44 
L 325 978 
L 428 978 
Q 516 541 762 319 
Q 1009 97 1316 97 
Q 1531 97 1667 223 
Q 1803 350 1803 528 
Q 1803 744 1651 891 
Q 1500 1038 1047 1263 
Q 594 1488 453 1669 
Q 313 1847 313 2119 
Q 313 2472 555 2709 
Q 797 2947 1181 2947 
Q 1350 2947 1591 2875 
Q 1750 2828 1803 2828 
Q 1853 2828 1881 2850 
Q 1909 2872 1947 2947 
L 2050 2947 
z
" transform="scale(0.015625)"/>
      </defs>
      <use xlink:href="#STIXGeneral-Italic-70" transform="translate(0 0.5625)"/>
      <use xlink:href="#STIXGeneral-Regular-2f" transform="translate(50.399994 0.5625)"/>
      <use xlink:href="#STIXGeneral-Italic-70" transform="translate(78.199982 0.5625)"/>
      <use xlink:href="#STIXGeneral-Regular-63" transform="translate(128.599976 -12.665625) scale(0.7)"/>
      <use xlink:href="#STIXGeneral-Regular-72" transform="translate(159.679971 -12.665625) scale(0.7)"/>
      <use xlink:href="#STIXGeneral-Regular-69" transform="translate(182.989963 -12.665625) scale(0.7)"/>
      <use xlink:href="#STIXGeneral-Regular-74" transform="translate(202.449954 -12.665625) scale(0.7)"/>
      <use xlink:href="#TimesNewRomanPSMT-20" transform="translate(226.319321 0.5625)"/>
      <use xlink:href="#TimesNewRomanPSMT-2d" transform="translate(251.319321 0.5625)"/>
      <use xlink:href="#TimesNewRomanPSMT-20" transform="translate(284.620102 0.5625)"/>
      <use xlink:href="#TimesNewRomanPSMT-52" transform="translate(309.620102 0.5625)"/>
      <use xlink:href="#TimesNewRomanPSMT-65" transform="translate(376.319321 0.5625)"/>
      <use xlink:href="#TimesNewRomanPSMT-64" transform="translate(420.704086 0.5625)"/>
      <use xlink:href="#TimesNewRomanPSMT-75" transform="translate(470.704086 0.5625)"/>
      <use xlink:href="#TimesNewRomanPSMT-63" transform="translate(520.704086 0.5625)"/>
      <use xlink:href="#TimesNewRomanPSMT-65" transform="translate(565.088852 0.5625)"/>
      <use xlink:href="#TimesNewRomanPSMT-64" transform="translate(609.473618 0.5625)"/>
      <use xlink:href="#TimesNewRomanPSMT-20" transform="translate(659.473618 0.5625)"/>
      <use xlink:href="#TimesNewRomanPSMT-70" transform="translate(684.473618 0.5625)"/>
      <use xlink:href="#TimesNewRomanPSMT-72" transform="translate(734.473618 0.5625)"/>
      <use xlink:href="#TimesNewRomanPSMT-65" transform="translate(767.774399 0.5625)"/>
      <use xlink:href="#TimesNewRomanPSMT-73" transform="translate(812.159164 0.5625)"/>
      <use xlink:href="#TimesNewRomanPSMT-73" transform="translate(851.07518 0.5625)"/>
      <use xlink:href="#TimesNewRomanPSMT-75" transform="translate(889.991196 0.5625)"/>
      <use xlink:href="#TimesNewRomanPSMT-72" transform="translate(939.991196 0.5625)"/>
      <use xlink:href="#TimesNewRomanPSMT-65" transform="translate(973.291977 0.5625)"/>
     </g>
    </g>
   </g>
   <g id="line2d_101">
    <path d="M 406.421431 21.062626 
L 406.406445 21.08967 
L 406.389624 21.120037 
L 406.370744 21.154136 
L 406.349554 21.192428 
L 406.325769 21.235432 
L 406.299073 21.28373 
L 406.269109 21.337978 
L 406.235478 21.398914 
L 406.197729 21.467369 
L 406.15536 21.544278 
L 406.107805 21.630696 
L 406.054429 21.727809 
L 405.994519 21.836958 
L 405.927276 21.95965 
L 405.851801 22.097592 
L 405.767089 22.252705 
L 405.672006 22.427164 
L 405.565286 22.623423 
L 405.445501 22.844261 
L 405.311055 23.092818 
L 405.160151 23.372655 
L 404.990776 23.687801 
L 404.800668 24.042828 
L 404.58729 24.442921 
L 404.347793 24.893966 
L 404.078979 25.402647 
L 403.777262 25.976562 
L 403.438612 26.624349 
L 403.058509 27.355832 
L 402.631879 28.18219 
L 402.153027 29.116147 
L 401.615561 30.172187 
L 401.012305 31.366802 
L 400.335206 32.71877 
L 399.575226 34.249476 
L 398.72222 35.983284 
L 397.764801 37.947961 
L 396.690187 40.175182 
L 395.484033 42.701143 
L 394.130239 45.567303 
L 392.610731 48.821329 
L 390.905225 52.518295 
L 388.990955 56.722218 
L 386.842366 61.507999 
L 384.430775 66.963811 
L 381.72399 73.193916 
L 378.685877 80.321873 
L 375.27588 88.494009 
L 371.448476 97.882967 
L 371.448476 97.882967 
L 369.759927 102.097424 
L 367.990137 106.561591 
L 366.135196 111.291429 
L 364.191009 116.303743 
L 362.15328 121.616119 
L 360.01751 127.246827 
L 357.778982 133.214655 
L 355.43275 139.538668 
L 352.973635 146.23785 
L 350.396203 153.330613 
L 347.694763 160.834127 
L 344.863348 168.763429 
L 341.895706 177.130296 
L 338.78528 185.941859 
L 335.525202 195.199043 
L 332.108272 204.895033 
L 328.526942 215.014243 
L 324.773304 225.532711 
L 320.839066 236.421422 
L 316.71554 247.654575 
L 312.393618 259.224264 
L 307.863754 271.160082 
L 303.115945 283.546425 
L 298.139704 296.526876 
L 292.92404 310.292159 
L 287.457434 325.061673 
L 281.727813 341.072014 
L 275.722521 358.576814 
L 274.931336 361 
" clip-path="url(#p72e84f3b9e)" style="fill: none; stroke: #0072bd; stroke-width: 1.25; stroke-linecap: square"/>
   </g>
   <g id="line2d_102">
    <path d="M 406.421431 20.660963 
L 406.406445 20.683538 
L 406.389624 20.708866 
L 406.370744 20.73728 
L 406.349554 20.769156 
L 406.325769 20.804912 
L 406.299073 20.845019 
L 406.269109 20.890001 
L 406.235478 20.940448 
L 406.197729 20.997019 
L 406.15536 21.060449 
L 406.107805 21.131562 
L 406.054429 21.21128 
L 405.994519 21.30063 
L 405.927276 21.400761 
L 405.851801 21.512955 
L 405.767089 21.638643 
L 405.672006 21.779419 
L 405.565286 21.937059 
L 405.445501 22.113543 
L 405.311055 22.311072 
L 405.160151 22.532095 
L 404.990776 22.779332 
L 404.800668 23.055804 
L 404.58729 23.364864 
L 404.347793 23.710226 
L 404.078979 24.096007 
L 403.777262 24.526759 
L 403.438612 25.007521 
L 403.058509 25.543854 
L 402.631879 26.141899 
L 402.153027 26.808427 
L 401.615561 27.550898 
L 401.012305 28.377519 
L 400.335206 29.297319 
L 399.575226 30.32021 
L 398.72222 31.457068 
L 397.764801 32.71981 
L 396.690187 34.121474 
L 395.484033 35.676304 
L 394.130239 37.399832 
L 392.610731 39.308955 
L 390.905225 41.422007 
L 388.990955 43.758817 
L 386.842366 46.340743 
L 384.430775 49.190684 
L 381.72399 52.333047 
L 378.685877 55.793678 
L 375.27588 59.599733 
L 371.448476 63.779496 
L 371.448476 63.779496 
L 369.759927 65.594071 
L 367.990137 67.477351 
L 366.135196 69.431343 
L 364.191009 71.458059 
L 362.15328 73.559509 
L 360.01751 75.737697 
L 357.778982 77.994608 
L 355.43275 80.332204 
L 352.973635 82.752408 
L 350.396203 85.257093 
L 347.694763 87.848069 
L 344.863348 90.52706 
L 341.895706 93.295688 
L 338.78528 96.15545 
L 335.525202 99.107691 
L 332.108272 102.153572 
L 328.526942 105.294048 
L 324.773304 108.529828 
L 320.839066 111.861341 
L 316.71554 115.288712 
L 312.393618 118.811724 
L 307.863754 122.429801 
L 303.115945 126.141989 
L 298.139704 129.946964 
L 292.92404 133.843041 
L 287.457434 137.828215 
L 281.727813 141.900216 
L 275.722521 146.056565 
L 269.428296 150.294621 
L 262.831237 154.611552 
L 255.916772 159.004167 
L 248.669631 163.468498 
L 241.073806 167.999044 
L 233.112523 172.587667 
L 224.768198 177.22232 
L 216.022401 181.88614 
L 206.855817 186.557647 
L 197.248199 191.212901 
L 187.178328 195.830015 
L 176.623965 200.395713 
L 165.561798 204.912242 
L 153.967396 209.400504 
L 141.81515 213.891738 
L 129.078222 218.400547 
L 115.728481 222.887275 
L 101.736441 227.23597 
L 87.071201 231.247244 
L 71.70037 234.577568 
L 55.59 236.450114 
" clip-path="url(#p72e84f3b9e)" style="fill: none; stroke: #d95319; stroke-width: 1.25; stroke-linecap: square"/>
   </g>
   <g id="line2d_103">
    <path d="M 408.56 17.32 
L 408.437367 17.524012 
L 408.422345 17.54897 
L 408.405482 17.576979 
L 408.386553 17.608409 
L 408.365306 17.643679 
L 408.341456 17.683256 
L 408.314685 17.727666 
L 408.284633 17.777496 
L 408.250901 17.833407 
L 408.213036 17.896138 
L 408.170533 17.966518 
L 408.122824 18.045477 
L 408.06927 18.134057 
L 408.009155 18.233424 
L 407.941677 18.344887 
L 407.865932 18.46991 
L 407.780909 18.610135 
L 407.68547 18.767398 
L 407.57834 18.943758 
L 407.458087 19.141515 
L 407.323102 19.363247 
L 407.171582 19.611835 
L 407.001501 19.890502 
L 406.810585 20.202852 
L 406.596282 20.552908 
L 406.355727 20.945168 
L 406.085703 21.38465 
L 405.782602 21.876952 
L 405.44237 22.428317 
L 405.060461 23.0457 
L 404.631767 23.736843 
L 404.150559 24.510356 
L 403.610402 25.375808 
L 403.004077 26.343818 
L 402.323476 27.426159 
L 401.559502 28.635866 
L 400.701941 29.987345 
L 399.739329 31.496495 
L 398.658797 33.180826 
L 397.445899 35.05958 
L 396.084422 37.153844 
L 394.556164 39.486666 
L 392.840694 42.083144 
L 390.915079 44.970503 
L 388.753577 48.178144 
L 386.32729 51.737648 
L 383.603783 55.682733 
L 380.546647 60.049139 
L 377.115011 64.874423 
L 373.263 70.197626 
L 373.263 70.197626 
L 366.779878 78.941548 
L 360.296755 87.42501 
L 353.813633 95.657668 
L 347.33051 103.647949 
L 340.847388 111.403371 
L 334.364265 118.93077 
L 327.881143 126.236449 
L 321.39802 133.326271 
L 314.914898 140.205735 
L 308.431776 146.880027 
L 301.948653 153.354062 
L 295.465531 159.632522 
L 288.982408 165.719886 
L 282.499286 171.620454 
L 276.016163 177.338374 
L 269.533041 182.877654 
L 263.049918 188.242185 
L 256.566796 193.435748 
L 250.083673 198.462029 
L 243.600551 203.324625 
L 237.117429 208.027055 
L 230.634306 212.572769 
L 224.151184 216.96515 
L 217.668061 221.207522 
L 211.184939 225.303154 
L 204.701816 229.255268 
L 198.218694 233.067039 
L 191.735571 236.741602 
L 185.252449 240.282051 
L 178.769327 243.691447 
L 172.286204 246.972816 
L 165.803082 250.129155 
L 159.319959 253.16343 
L 152.836837 256.07858 
L 146.353714 258.877518 
L 139.870592 261.563129 
L 133.387469 264.138275 
L 126.904347 266.605793 
L 120.421224 268.968496 
L 113.938102 271.229175 
L 107.45498 273.390596 
L 100.971857 275.455503 
L 94.488735 277.426618 
L 88.005612 279.306638 
L 81.52249 281.098239 
L 75.039367 282.804073 
L 68.556245 284.426766 
L 62.073122 285.968925 
L 55.59 287.433127 
" clip-path="url(#p72e84f3b9e)" style="fill: none; stroke: #000000; stroke-width: 1.25; stroke-linecap: square"/>
   </g>
   <g id="line2d_104">
    <path d="M 408.56 17.32 
" clip-path="url(#p72e84f3b9e)" style="fill: none; stroke: #000000; stroke-width: 1.25; stroke-linecap: square"/>
    <defs>
     <path id="m22661724f2" d="M 0 2.5 
C 0.663008 2.5 1.29895 2.236584 1.767767 1.767767 
C 2.236584 1.29895 2.5 0.663008 2.5 0 
C 2.5 -0.663008 2.236584 -1.29895 1.767767 -1.767767 
C 1.29895 -2.236584 0.663008 -2.5 0 -2.5 
C -0.663008 -2.5 -1.29895 -2.236584 -1.767767 -1.767767 
C -2.236584 -1.29895 -2.5 -0.663008 -2.5 0 
C -2.5 0.663008 -2.236584 1.29895 -1.767767 1.767767 
C -1.29895 2.236584 -0.663008 2.5 0 2.5 
z
" style="stroke: #000000; stroke-width: 1.25"/>
    </defs>
    <g clip-path="url(#p72e84f3b9e)">
     <use xlink:href="#m22661724f2" x="408.56" y="17.32" style="fill: #ffffff; stroke: #000000; stroke-width: 1.25"/>
    </g>
   </g>
   <g id="patch_6">
    <path d="M 55.59 307.83 
L 55.59 17.32 
" style="fill: none; stroke: #000000; stroke-width: 1.25; stroke-linejoin: miter; stroke-linecap: square"/>
   </g>
   <g id="patch_7">
    <path d="M 408.56 307.83 
L 408.56 17.32 
" style="fill: none; stroke: #000000; stroke-width: 1.25; stroke-linejoin: miter; stroke-linecap: square"/>
   </g>
   <g id="patch_8">
    <path d="M 55.59 307.83 
L 408.56 307.83 
" style="fill: none; stroke: #000000; stroke-width: 1.25; stroke-linejoin: miter; stroke-linecap: square"/>
   </g>
   <g id="patch_9">
    <path d="M 55.59 17.32 
L 408.56 17.32 
" style="fill: none; stroke: #000000; stroke-width: 1.25; stroke-linejoin: miter; stroke-linecap: square"/>
   </g>
   <g id="legend_1">
    <g id="patch_10">
     <path d="M 69.99 127.52125 
L 200.84625 127.52125 
Q 203.24625 127.52125 203.24625 125.12125 
L 203.24625 31.72 
Q 203.24625 29.32 200.84625 29.32 
L 69.99 29.32 
Q 67.59 29.32 67.59 31.72 
L 67.59 125.12125 
Q 67.59 127.52125 69.99 127.52125 
z
" style="fill: #ffffff; stroke: #000000; stroke-linejoin: miter"/>
    </g>
    <g id="patch_11">
     <path d="M 74.79 44.92 
L 89.79 44.92 
L 89.79 36.52 
L 74.79 36.52 
z
" style="fill: #0072bd; opacity: 0.7"/>
    </g>
    <g id="text_15">
     <!-- Subcooled liquid -->
     <g transform="translate(99.39 44.92) scale(0.12 -0.12)">
      <defs>
       <path id="TimesNewRomanPSMT-53" d="M 2934 4334 
L 2934 2869 
L 2819 2869 
Q 2763 3291 2617 3541 
Q 2472 3791 2203 3937 
Q 1934 4084 1647 4084 
Q 1322 4084 1109 3886 
Q 897 3688 897 3434 
Q 897 3241 1031 3081 
Q 1225 2847 1953 2456 
Q 2547 2138 2764 1967 
Q 2981 1797 3098 1565 
Q 3216 1334 3216 1081 
Q 3216 600 2842 251 
Q 2469 -97 1881 -97 
Q 1697 -97 1534 -69 
Q 1438 -53 1133 45 
Q 828 144 747 144 
Q 669 144 623 97 
Q 578 50 556 -97 
L 441 -97 
L 441 1356 
L 556 1356 
Q 638 900 775 673 
Q 913 447 1195 297 
Q 1478 147 1816 147 
Q 2206 147 2432 353 
Q 2659 559 2659 841 
Q 2659 997 2573 1156 
Q 2488 1316 2306 1453 
Q 2184 1547 1640 1851 
Q 1097 2156 867 2337 
Q 638 2519 519 2737 
Q 400 2956 400 3219 
Q 400 3675 750 4004 
Q 1100 4334 1641 4334 
Q 1978 4334 2356 4169 
Q 2531 4091 2603 4091 
Q 2684 4091 2736 4139 
Q 2788 4188 2819 4334 
L 2934 4334 
z
" transform="scale(0.015625)"/>
       <path id="TimesNewRomanPSMT-62" d="M 984 2369 
Q 1400 2947 1881 2947 
Q 2322 2947 2650 2570 
Q 2978 2194 2978 1541 
Q 2978 778 2472 313 
Q 2038 -88 1503 -88 
Q 1253 -88 995 3 
Q 738 94 469 275 
L 469 3241 
Q 469 3728 445 3840 
Q 422 3953 372 3993 
Q 322 4034 247 4034 
Q 159 4034 28 3984 
L -16 4094 
L 844 4444 
L 984 4444 
L 984 2369 
z
M 984 2169 
L 984 456 
Q 1144 300 1314 220 
Q 1484 141 1663 141 
Q 1947 141 2192 453 
Q 2438 766 2438 1363 
Q 2438 1913 2192 2208 
Q 1947 2503 1634 2503 
Q 1469 2503 1303 2419 
Q 1178 2356 984 2169 
z
" transform="scale(0.015625)"/>
       <path id="TimesNewRomanPSMT-6f" d="M 1600 2947 
Q 2250 2947 2644 2453 
Q 2978 2031 2978 1484 
Q 2978 1100 2793 706 
Q 2609 313 2286 112 
Q 1963 -88 1566 -88 
Q 919 -88 538 428 
Q 216 863 216 1403 
Q 216 1797 411 2186 
Q 606 2575 925 2761 
Q 1244 2947 1600 2947 
z
M 1503 2744 
Q 1338 2744 1170 2645 
Q 1003 2547 900 2300 
Q 797 2053 797 1666 
Q 797 1041 1045 587 
Q 1294 134 1700 134 
Q 2003 134 2200 384 
Q 2397 634 2397 1244 
Q 2397 2006 2069 2444 
Q 1847 2744 1503 2744 
z
" transform="scale(0.015625)"/>
       <path id="TimesNewRomanPSMT-6c" d="M 1184 4444 
L 1184 647 
Q 1184 378 1223 290 
Q 1263 203 1344 158 
Q 1425 113 1647 113 
L 1647 0 
L 244 0 
L 244 113 
Q 441 113 512 153 
Q 584 194 625 287 
Q 666 381 666 647 
L 666 3247 
Q 666 3731 644 3842 
Q 622 3953 573 3993 
Q 525 4034 450 4034 
Q 369 4034 244 3984 
L 191 4094 
L 1044 4444 
L 1184 4444 
z
" transform="scale(0.015625)"/>
       <path id="TimesNewRomanPSMT-69" d="M 928 4444 
Q 1059 4444 1151 4351 
Q 1244 4259 1244 4128 
Q 1244 3997 1151 3903 
Q 1059 3809 928 3809 
Q 797 3809 703 3903 
Q 609 3997 609 4128 
Q 609 4259 701 4351 
Q 794 4444 928 4444 
z
M 1188 2947 
L 1188 647 
Q 1188 378 1227 289 
Q 1266 200 1342 156 
Q 1419 113 1622 113 
L 1622 0 
L 231 0 
L 231 113 
Q 441 113 512 153 
Q 584 194 626 287 
Q 669 381 669 647 
L 669 1750 
Q 669 2216 641 2353 
Q 619 2453 572 2492 
Q 525 2531 444 2531 
Q 356 2531 231 2484 
L 188 2597 
L 1050 2947 
L 1188 2947 
z
" transform="scale(0.015625)"/>
       <path id="TimesNewRomanPSMT-71" d="M 2734 2947 
L 2734 -734 
Q 2734 -1009 2771 -1087 
Q 2809 -1166 2889 -1209 
Q 2969 -1253 3200 -1253 
L 3200 -1369 
L 1756 -1369 
L 1756 -1253 
L 1816 -1253 
Q 1991 -1253 2081 -1203 
Q 2144 -1169 2181 -1080 
Q 2219 -991 2219 -734 
L 2219 497 
Q 1934 159 1721 35 
Q 1509 -88 1281 -88 
Q 866 -88 539 290 
Q 213 669 213 1303 
Q 213 2031 644 2489 
Q 1075 2947 1684 2947 
Q 1863 2947 2013 2897 
Q 2163 2847 2281 2747 
Q 2463 2834 2628 2947 
L 2734 2947 
z
M 2219 694 
L 2219 2038 
Q 2219 2272 2158 2406 
Q 2097 2541 1940 2634 
Q 1784 2728 1588 2728 
Q 1238 2728 988 2431 
Q 738 2134 738 1531 
Q 738 953 992 653 
Q 1247 353 1606 353 
Q 1791 353 1934 433 
Q 2078 513 2219 694 
z
" transform="scale(0.015625)"/>
      </defs>
      <use xlink:href="#TimesNewRomanPSMT-53"/>
      <use xlink:href="#TimesNewRomanPSMT-75" x="55.615234"/>
      <use xlink:href="#TimesNewRomanPSMT-62" x="105.615234"/>
      <use xlink:href="#TimesNewRomanPSMT-63" x="155.615234"/>
      <use xlink:href="#TimesNewRomanPSMT-6f" x="200"/>
      <use xlink:href="#TimesNewRomanPSMT-6f" x="250"/>
      <use xlink:href="#TimesNewRomanPSMT-6c" x="300"/>
      <use xlink:href="#TimesNewRomanPSMT-65" x="327.783203"/>
      <use xlink:href="#TimesNewRomanPSMT-64" x="372.167969"/>
      <use xlink:href="#TimesNewRomanPSMT-20" x="422.167969"/>
      <use xlink:href="#TimesNewRomanPSMT-6c" x="447.167969"/>
      <use xlink:href="#TimesNewRomanPSMT-69" x="474.951172"/>
      <use xlink:href="#TimesNewRomanPSMT-71" x="502.734375"/>
      <use xlink:href="#TimesNewRomanPSMT-75" x="552.734375"/>
      <use xlink:href="#TimesNewRomanPSMT-69" x="602.734375"/>
      <use xlink:href="#TimesNewRomanPSMT-64" x="630.517578"/>
     </g>
    </g>
    <g id="patch_12">
     <path d="M 74.79 59.486875 
L 89.79 59.486875 
L 89.79 51.086875 
L 74.79 51.086875 
z
" style="fill: #0072bd; opacity: 0.5"/>
    </g>
    <g id="text_16">
     <!-- Metastable liquid -->
     <g transform="translate(99.39 59.486875) scale(0.12 -0.12)">
      <defs>
       <path id="TimesNewRomanPSMT-4d" d="M 2619 0 
L 981 3566 
L 981 734 
Q 981 344 1066 247 
Q 1181 116 1431 116 
L 1581 116 
L 1581 0 
L 106 0 
L 106 116 
L 256 116 
Q 525 116 638 278 
Q 706 378 706 734 
L 706 3503 
Q 706 3784 644 3909 
Q 600 4000 483 4061 
Q 366 4122 106 4122 
L 106 4238 
L 1306 4238 
L 2844 922 
L 4356 4238 
L 5556 4238 
L 5556 4122 
L 5409 4122 
Q 5138 4122 5025 3959 
Q 4956 3859 4956 3503 
L 4956 734 
Q 4956 344 5044 247 
Q 5159 116 5409 116 
L 5556 116 
L 5556 0 
L 3756 0 
L 3756 116 
L 3906 116 
Q 4178 116 4288 278 
Q 4356 378 4356 734 
L 4356 3566 
L 2722 0 
L 2619 0 
z
" transform="scale(0.015625)"/>
      </defs>
      <use xlink:href="#TimesNewRomanPSMT-4d"/>
      <use xlink:href="#TimesNewRomanPSMT-65" x="88.916016"/>
      <use xlink:href="#TimesNewRomanPSMT-74" x="133.300781"/>
      <use xlink:href="#TimesNewRomanPSMT-61" x="161.083984"/>
      <use xlink:href="#TimesNewRomanPSMT-73" x="205.46875"/>
      <use xlink:href="#TimesNewRomanPSMT-74" x="244.384766"/>
      <use xlink:href="#TimesNewRomanPSMT-61" x="272.167969"/>
      <use xlink:href="#TimesNewRomanPSMT-62" x="316.552734"/>
      <use xlink:href="#TimesNewRomanPSMT-6c" x="366.552734"/>
      <use xlink:href="#TimesNewRomanPSMT-65" x="394.335938"/>
      <use xlink:href="#TimesNewRomanPSMT-20" x="438.720703"/>
      <use xlink:href="#TimesNewRomanPSMT-6c" x="463.720703"/>
      <use xlink:href="#TimesNewRomanPSMT-69" x="491.503906"/>
      <use xlink:href="#TimesNewRomanPSMT-71" x="519.287109"/>
      <use xlink:href="#TimesNewRomanPSMT-75" x="569.287109"/>
      <use xlink:href="#TimesNewRomanPSMT-69" x="619.287109"/>
      <use xlink:href="#TimesNewRomanPSMT-64" x="647.070312"/>
     </g>
    </g>
    <g id="patch_13">
     <path d="M 74.79 74.05375 
L 89.79 74.05375 
L 89.79 65.65375 
L 74.79 65.65375 
z
" style="fill: #d95319; opacity: 0.7"/>
    </g>
    <g id="text_17">
     <!-- Superheated vapor -->
     <g transform="translate(99.39 74.05375) scale(0.12 -0.12)">
      <defs>
       <path id="TimesNewRomanPSMT-68" d="M 1041 4444 
L 1041 2350 
Q 1388 2731 1591 2839 
Q 1794 2947 1997 2947 
Q 2241 2947 2416 2812 
Q 2591 2678 2675 2391 
Q 2734 2191 2734 1659 
L 2734 647 
Q 2734 375 2778 275 
Q 2809 200 2884 156 
Q 2959 113 3159 113 
L 3159 0 
L 1753 0 
L 1753 113 
L 1819 113 
Q 2019 113 2097 173 
Q 2175 234 2206 353 
Q 2216 403 2216 647 
L 2216 1659 
Q 2216 2128 2167 2275 
Q 2119 2422 2012 2495 
Q 1906 2569 1756 2569 
Q 1603 2569 1437 2487 
Q 1272 2406 1041 2159 
L 1041 647 
Q 1041 353 1073 281 
Q 1106 209 1195 161 
Q 1284 113 1503 113 
L 1503 0 
L 84 0 
L 84 113 
Q 275 113 384 172 
Q 447 203 484 290 
Q 522 378 522 647 
L 522 3238 
Q 522 3728 498 3840 
Q 475 3953 426 3993 
Q 378 4034 297 4034 
Q 231 4034 84 3984 
L 41 4094 
L 897 4444 
L 1041 4444 
z
" transform="scale(0.015625)"/>
       <path id="TimesNewRomanPSMT-76" d="M 53 2863 
L 1400 2863 
L 1400 2747 
L 1313 2747 
Q 1191 2747 1127 2687 
Q 1063 2628 1063 2528 
Q 1063 2419 1128 2269 
L 1794 688 
L 2463 2328 
Q 2534 2503 2534 2594 
Q 2534 2638 2509 2666 
Q 2475 2713 2422 2730 
Q 2369 2747 2206 2747 
L 2206 2863 
L 3141 2863 
L 3141 2747 
Q 2978 2734 2916 2681 
Q 2806 2588 2719 2369 
L 1703 -88 
L 1575 -88 
L 553 2328 
Q 484 2497 421 2570 
Q 359 2644 263 2694 
Q 209 2722 53 2747 
L 53 2863 
z
" transform="scale(0.015625)"/>
      </defs>
      <use xlink:href="#TimesNewRomanPSMT-53"/>
      <use xlink:href="#TimesNewRomanPSMT-75" x="55.615234"/>
      <use xlink:href="#TimesNewRomanPSMT-70" x="105.615234"/>
      <use xlink:href="#TimesNewRomanPSMT-65" x="155.615234"/>
      <use xlink:href="#TimesNewRomanPSMT-72" x="200"/>
      <use xlink:href="#TimesNewRomanPSMT-68" x="233.300781"/>
      <use xlink:href="#TimesNewRomanPSMT-65" x="283.300781"/>
      <use xlink:href="#TimesNewRomanPSMT-61" x="327.685547"/>
      <use xlink:href="#TimesNewRomanPSMT-74" x="372.070312"/>
      <use xlink:href="#TimesNewRomanPSMT-65" x="399.853516"/>
      <use xlink:href="#TimesNewRomanPSMT-64" x="444.238281"/>
      <use xlink:href="#TimesNewRomanPSMT-20" x="494.238281"/>
      <use xlink:href="#TimesNewRomanPSMT-76" x="519.238281"/>
      <use xlink:href="#TimesNewRomanPSMT-61" x="569.238281"/>
      <use xlink:href="#TimesNewRomanPSMT-70" x="613.623047"/>
      <use xlink:href="#TimesNewRomanPSMT-6f" x="663.623047"/>
      <use xlink:href="#TimesNewRomanPSMT-72" x="713.623047"/>
     </g>
    </g>
    <g id="line2d_105">
     <path d="M 74.79 84.420625 
L 82.29 84.420625 
L 89.79 84.420625 
" style="fill: none; stroke: #0072bd; stroke-width: 1.25; stroke-linecap: square"/>
    </g>
    <g id="text_18">
     <!-- Liquid spinodal line -->
     <g transform="translate(99.39 88.620625) scale(0.12 -0.12)">
      <defs>
       <path id="TimesNewRomanPSMT-4c" d="M 3669 1172 
L 3772 1150 
L 3409 0 
L 128 0 
L 128 116 
L 288 116 
Q 556 116 672 291 
Q 738 391 738 753 
L 738 3488 
Q 738 3884 650 3984 
Q 528 4122 288 4122 
L 128 4122 
L 128 4238 
L 2047 4238 
L 2047 4122 
Q 1709 4125 1573 4059 
Q 1438 3994 1388 3894 
Q 1338 3794 1338 3416 
L 1338 753 
Q 1338 494 1388 397 
Q 1425 331 1503 300 
Q 1581 269 1991 269 
L 2300 269 
Q 2788 269 2984 341 
Q 3181 413 3343 595 
Q 3506 778 3669 1172 
z
" transform="scale(0.015625)"/>
       <path id="TimesNewRomanPSMT-6e" d="M 1034 2341 
Q 1538 2947 1994 2947 
Q 2228 2947 2397 2830 
Q 2566 2713 2666 2444 
Q 2734 2256 2734 1869 
L 2734 647 
Q 2734 375 2778 278 
Q 2813 200 2889 156 
Q 2966 113 3172 113 
L 3172 0 
L 1756 0 
L 1756 113 
L 1816 113 
Q 2016 113 2095 173 
Q 2175 234 2206 353 
Q 2219 400 2219 647 
L 2219 1819 
Q 2219 2209 2117 2386 
Q 2016 2563 1775 2563 
Q 1403 2563 1034 2156 
L 1034 647 
Q 1034 356 1069 288 
Q 1113 197 1189 155 
Q 1266 113 1500 113 
L 1500 0 
L 84 0 
L 84 113 
L 147 113 
Q 366 113 442 223 
Q 519 334 519 647 
L 519 1709 
Q 519 2225 495 2337 
Q 472 2450 423 2490 
Q 375 2531 294 2531 
Q 206 2531 84 2484 
L 38 2597 
L 900 2947 
L 1034 2947 
L 1034 2341 
z
" transform="scale(0.015625)"/>
      </defs>
      <use xlink:href="#TimesNewRomanPSMT-4c"/>
      <use xlink:href="#TimesNewRomanPSMT-69" x="61.083984"/>
      <use xlink:href="#TimesNewRomanPSMT-71" x="88.867188"/>
      <use xlink:href="#TimesNewRomanPSMT-75" x="138.867188"/>
      <use xlink:href="#TimesNewRomanPSMT-69" x="188.867188"/>
      <use xlink:href="#TimesNewRomanPSMT-64" x="216.650391"/>
      <use xlink:href="#TimesNewRomanPSMT-20" x="266.650391"/>
      <use xlink:href="#TimesNewRomanPSMT-73" x="291.650391"/>
      <use xlink:href="#TimesNewRomanPSMT-70" x="330.566406"/>
      <use xlink:href="#TimesNewRomanPSMT-69" x="380.566406"/>
      <use xlink:href="#TimesNewRomanPSMT-6e" x="408.349609"/>
      <use xlink:href="#TimesNewRomanPSMT-6f" x="458.349609"/>
      <use xlink:href="#TimesNewRomanPSMT-64" x="508.349609"/>
      <use xlink:href="#TimesNewRomanPSMT-61" x="558.349609"/>
      <use xlink:href="#TimesNewRomanPSMT-6c" x="602.734375"/>
      <use xlink:href="#TimesNewRomanPSMT-20" x="630.517578"/>
      <use xlink:href="#TimesNewRomanPSMT-6c" x="655.517578"/>
      <use xlink:href="#TimesNewRomanPSMT-69" x="683.300781"/>
      <use xlink:href="#TimesNewRomanPSMT-6e" x="711.083984"/>
      <use xlink:href="#TimesNewRomanPSMT-65" x="761.083984"/>
     </g>
    </g>
    <g id="line2d_106">
     <path d="M 74.79 98.9875 
L 82.29 98.9875 
L 89.79 98.9875 
" style="fill: none; stroke: #d95319; stroke-width: 1.25; stroke-linecap: square"/>
    </g>
    <g id="text_19">
     <!-- Vapor spinodal line -->
     <g transform="translate(99.39 103.1875) scale(0.12 -0.12)">
      <defs>
       <path id="TimesNewRomanPSMT-56" d="M 4544 4238 
L 4544 4122 
Q 4319 4081 4203 3978 
Q 4038 3825 3909 3509 
L 2431 -97 
L 2316 -97 
L 728 3556 
Q 606 3838 556 3900 
Q 478 3997 364 4051 
Q 250 4106 56 4122 
L 56 4238 
L 1788 4238 
L 1788 4122 
Q 1494 4094 1406 4022 
Q 1319 3950 1319 3838 
Q 1319 3681 1463 3350 
L 2541 866 
L 3541 3319 
Q 3688 3681 3688 3822 
Q 3688 3913 3597 3995 
Q 3506 4078 3291 4113 
Q 3275 4116 3238 4122 
L 3238 4238 
L 4544 4238 
z
" transform="scale(0.015625)"/>
      </defs>
      <use xlink:href="#TimesNewRomanPSMT-56"/>
      <use xlink:href="#TimesNewRomanPSMT-61" x="61.091797"/>
      <use xlink:href="#TimesNewRomanPSMT-70" x="105.476562"/>
      <use xlink:href="#TimesNewRomanPSMT-6f" x="155.476562"/>
      <use xlink:href="#TimesNewRomanPSMT-72" x="205.476562"/>
      <use xlink:href="#TimesNewRomanPSMT-20" x="238.777344"/>
      <use xlink:href="#TimesNewRomanPSMT-73" x="263.777344"/>
      <use xlink:href="#TimesNewRomanPSMT-70" x="302.693359"/>
      <use xlink:href="#TimesNewRomanPSMT-69" x="352.693359"/>
      <use xlink:href="#TimesNewRomanPSMT-6e" x="380.476562"/>
      <use xlink:href="#TimesNewRomanPSMT-6f" x="430.476562"/>
      <use xlink:href="#TimesNewRomanPSMT-64" x="480.476562"/>
      <use xlink:href="#TimesNewRomanPSMT-61" x="530.476562"/>
      <use xlink:href="#TimesNewRomanPSMT-6c" x="574.861328"/>
      <use xlink:href="#TimesNewRomanPSMT-20" x="602.644531"/>
      <use xlink:href="#TimesNewRomanPSMT-6c" x="627.644531"/>
      <use xlink:href="#TimesNewRomanPSMT-69" x="655.427734"/>
      <use xlink:href="#TimesNewRomanPSMT-6e" x="683.210938"/>
      <use xlink:href="#TimesNewRomanPSMT-65" x="733.210938"/>
     </g>
    </g>
    <g id="line2d_107">
     <path d="M 74.79 113.554375 
L 82.29 113.554375 
L 89.79 113.554375 
" style="fill: none; stroke: #000000; stroke-width: 1.25; stroke-linecap: square"/>
    </g>
    <g id="text_20">
     <!-- Saturation line -->
     <g transform="translate(99.39 117.754375) scale(0.12 -0.12)">
      <use xlink:href="#TimesNewRomanPSMT-53"/>
      <use xlink:href="#TimesNewRomanPSMT-61" x="55.615234"/>
      <use xlink:href="#TimesNewRomanPSMT-74" x="100"/>
      <use xlink:href="#TimesNewRomanPSMT-75" x="127.783203"/>
      <use xlink:href="#TimesNewRomanPSMT-72" x="177.783203"/>
      <use xlink:href="#TimesNewRomanPSMT-61" x="211.083984"/>
      <use xlink:href="#TimesNewRomanPSMT-74" x="255.46875"/>
      <use xlink:href="#TimesNewRomanPSMT-69" x="283.251953"/>
      <use xlink:href="#TimesNewRomanPSMT-6f" x="311.035156"/>
      <use xlink:href="#TimesNewRomanPSMT-6e" x="361.035156"/>
      <use xlink:href="#TimesNewRomanPSMT-20" x="411.035156"/>
      <use xlink:href="#TimesNewRomanPSMT-6c" x="436.035156"/>
      <use xlink:href="#TimesNewRomanPSMT-69" x="463.818359"/>
      <use xlink:href="#TimesNewRomanPSMT-6e" x="491.601562"/>
      <use xlink:href="#TimesNewRomanPSMT-65" x="541.601562"/>
     </g>
    </g>
   </g>
  </g>
 </g>
 <defs>
  <clipPath id="p72e84f3b9e">
   <rect x="55.59" y="17.32" width="352.97" height="290.51"/>
  </clipPath>
 </defs>
</svg>
