<?xml version="1.0" encoding="utf-8" standalone="no"?>
<!DOCTYPE svg PUBLIC "-//W3C//DTD SVG 1.1//EN"
  "http://www.w3.org/Graphics/SVG/1.1/DTD/svg11.dtd">
<svg xmlns:xlink="http://www.w3.org/1999/xlink" width="346.101288pt" height="238.469844pt" viewBox="0 0 346.101288 238.469844" xmlns="http://www.w3.org/2000/svg" version="1.1">
 <metadata>
  <rdf:RDF xmlns:dc="http://purl.org/dc/elements/1.1/" xmlns:cc="http://creativecommons.org/ns#" xmlns:rdf="http://www.w3.org/1999/02/22-rdf-syntax-ns#">
   <cc:Work>
    <dc:type rdf:resource="http://purl.org/dc/dcmitype/StillImage"/>
    <dc:date>2025-11-20T21:08:19.538597</dc:date>
    <dc:format>image/svg+xml</dc:format>
    <dc:creator>
     <cc:Agent>
      <dc:title>Matplotlib v3.10.6, https://matplotlib.org/</dc:title>
     </cc:Agent>
    </dc:creator>
   </cc:Work>
  </rdf:RDF>
 </metadata>
 <defs>
  <style type="text/css">*{stroke-linejoin: round; stroke-linecap: butt}</style>
 </defs>
 <g id="figure_1">
  <g id="patch_1">
   <path d="M 0 238.469844 
L 346.101288 238.469844 
L 346.101288 0 
L 0 0 
z
" style="fill: #ffffff"/>
  </g>
  <g id="axes_1">
   <g id="patch_2">
    <path d="M 56.915938 189.22 
L 336.442756 189.22 
L 336.442756 7.2 
L 56.915938 7.2 
z
" style="fill: #ffffff"/>
   </g>
   <g id="matplotlib.axis_1">
    <g id="xtick_1">
     <g id="line2d_1">
      <defs>
       <path id="md4f2b628b3" d="M 0 0 
L 0 -6 
" style="stroke: #000000; stroke-width: 1.25"/>
      </defs>
      <g>
       <use xlink:href="#md4f2b628b3" x="69.621702" y="189.22" style="fill: #ffffff; stroke: #000000; stroke-width: 1.25"/>
      </g>
     </g>
     <g id="line2d_2">
      <defs>
       <path id="m741e9ea91b" d="M 0 0 
L 0 6 
" style="stroke: #000000; stroke-width: 1.25"/>
      </defs>
      <g>
       <use xlink:href="#m741e9ea91b" x="69.621702" y="7.2" style="fill: #ffffff; stroke: #000000; stroke-width: 1.25"/>
      </g>
     </g>
     <g id="text_1">
      <!-- 0.001% -->
      <g transform="translate(49.582405 201.746875) scale(0.13 -0.13)">
       <defs>
        <path id="TimesNewRomanPSMT-30" d="M 231 2094 
Q 231 2819 450 3342 
Q 669 3866 1031 4122 
Q 1313 4325 1613 4325 
Q 2100 4325 2488 3828 
Q 2972 3213 2972 2159 
Q 2972 1422 2759 906 
Q 2547 391 2217 158 
Q 1888 -75 1581 -75 
Q 975 -75 572 641 
Q 231 1244 231 2094 
z
M 844 2016 
Q 844 1141 1059 588 
Q 1238 122 1591 122 
Q 1759 122 1940 273 
Q 2122 425 2216 781 
Q 2359 1319 2359 2297 
Q 2359 3022 2209 3506 
Q 2097 3866 1919 4016 
Q 1791 4119 1609 4119 
Q 1397 4119 1231 3928 
Q 1006 3669 925 3112 
Q 844 2556 844 2016 
z
" transform="scale(0.015625)"/>
        <path id="TimesNewRomanPSMT-2e" d="M 800 606 
Q 947 606 1047 504 
Q 1147 403 1147 259 
Q 1147 116 1045 14 
Q 944 -88 800 -88 
Q 656 -88 554 14 
Q 453 116 453 259 
Q 453 406 554 506 
Q 656 606 800 606 
z
" transform="scale(0.015625)"/>
        <path id="TimesNewRomanPSMT-31" d="M 750 3822 
L 1781 4325 
L 1884 4325 
L 1884 747 
Q 1884 391 1914 303 
Q 1944 216 2037 169 
Q 2131 122 2419 116 
L 2419 0 
L 825 0 
L 825 116 
Q 1125 122 1212 167 
Q 1300 213 1334 289 
Q 1369 366 1369 747 
L 1369 3034 
Q 1369 3497 1338 3628 
Q 1316 3728 1258 3775 
Q 1200 3822 1119 3822 
Q 1003 3822 797 3725 
L 750 3822 
z
" transform="scale(0.015625)"/>
        <path id="TimesNewRomanPSMT-25" d="M 4350 4334 
L 1263 -175 
L 984 -175 
L 4072 4334 
L 4350 4334 
z
M 1138 4334 
Q 1559 4334 1792 3984 
Q 2025 3634 2025 3181 
Q 2025 2638 1762 2341 
Q 1500 2044 1131 2044 
Q 884 2044 678 2180 
Q 472 2316 348 2584 
Q 225 2853 225 3181 
Q 225 3509 350 3786 
Q 475 4063 692 4198 
Q 909 4334 1138 4334 
z
M 1128 4159 
Q 969 4159 845 3971 
Q 722 3784 722 3184 
Q 722 2750 791 2522 
Q 844 2350 956 2256 
Q 1022 2200 1119 2200 
Q 1269 2200 1375 2363 
Q 1531 2603 1531 3166 
Q 1531 3759 1378 4000 
Q 1278 4159 1128 4159 
z
M 4206 2103 
Q 4428 2103 4648 1962 
Q 4869 1822 4989 1553 
Q 5109 1284 5109 963 
Q 5109 409 4843 117 
Q 4578 -175 4216 -175 
Q 3988 -175 3773 -34 
Q 3559 106 3436 367 
Q 3313 628 3313 963 
Q 3313 1291 3436 1562 
Q 3559 1834 3773 1968 
Q 3988 2103 4206 2103 
z
M 4209 1938 
Q 4059 1938 3950 1769 
Q 3809 1550 3809 941 
Q 3809 381 3953 159 
Q 4059 0 4209 0 
Q 4353 0 4466 172 
Q 4616 400 4616 956 
Q 4616 1544 4466 1778 
Q 4363 1938 4209 1938 
z
" transform="scale(0.015625)"/>
       </defs>
       <use xlink:href="#TimesNewRomanPSMT-30"/>
       <use xlink:href="#TimesNewRomanPSMT-2e" transform="translate(50 0)"/>
       <use xlink:href="#TimesNewRomanPSMT-30" transform="translate(75 0)"/>
       <use xlink:href="#TimesNewRomanPSMT-30" transform="translate(125 0)"/>
       <use xlink:href="#TimesNewRomanPSMT-31" transform="translate(175 0)"/>
       <use xlink:href="#TimesNewRomanPSMT-25" transform="translate(225 0)"/>
      </g>
     </g>
    </g>
    <g id="xtick_2">
     <g id="line2d_3">
      <g>
       <use xlink:href="#md4f2b628b3" x="120.44476" y="189.22" style="fill: #ffffff; stroke: #000000; stroke-width: 1.25"/>
      </g>
     </g>
     <g id="line2d_4">
      <g>
       <use xlink:href="#m741e9ea91b" x="120.44476" y="7.2" style="fill: #ffffff; stroke: #000000; stroke-width: 1.25"/>
      </g>
     </g>
     <g id="text_2">
      <!-- 0.01% -->
      <g transform="translate(103.655463 201.746875) scale(0.13 -0.13)">
       <use xlink:href="#TimesNewRomanPSMT-30"/>
       <use xlink:href="#TimesNewRomanPSMT-2e" transform="translate(50 0)"/>
       <use xlink:href="#TimesNewRomanPSMT-30" transform="translate(75 0)"/>
       <use xlink:href="#TimesNewRomanPSMT-31" transform="translate(125 0)"/>
       <use xlink:href="#TimesNewRomanPSMT-25" transform="translate(175 0)"/>
      </g>
     </g>
    </g>
    <g id="xtick_3">
     <g id="line2d_5">
      <g>
       <use xlink:href="#md4f2b628b3" x="171.267818" y="189.22" style="fill: #ffffff; stroke: #000000; stroke-width: 1.25"/>
      </g>
     </g>
     <g id="line2d_6">
      <g>
       <use xlink:href="#m741e9ea91b" x="171.267818" y="7.2" style="fill: #ffffff; stroke: #000000; stroke-width: 1.25"/>
      </g>
     </g>
     <g id="text_3">
      <!-- 0.1% -->
      <g transform="translate(157.728521 201.746875) scale(0.13 -0.13)">
       <use xlink:href="#TimesNewRomanPSMT-30"/>
       <use xlink:href="#TimesNewRomanPSMT-2e" transform="translate(50 0)"/>
       <use xlink:href="#TimesNewRomanPSMT-31" transform="translate(75 0)"/>
       <use xlink:href="#TimesNewRomanPSMT-25" transform="translate(125 0)"/>
      </g>
     </g>
    </g>
    <g id="xtick_4">
     <g id="line2d_7">
      <g>
       <use xlink:href="#md4f2b628b3" x="222.090876" y="189.22" style="fill: #ffffff; stroke: #000000; stroke-width: 1.25"/>
      </g>
     </g>
     <g id="line2d_8">
      <g>
       <use xlink:href="#m741e9ea91b" x="222.090876" y="7.2" style="fill: #ffffff; stroke: #000000; stroke-width: 1.25"/>
      </g>
     </g>
     <g id="text_4">
      <!-- 1% -->
      <g transform="translate(213.426579 201.746875) scale(0.13 -0.13)">
       <use xlink:href="#TimesNewRomanPSMT-31"/>
       <use xlink:href="#TimesNewRomanPSMT-25" transform="translate(50 0)"/>
      </g>
     </g>
    </g>
    <g id="xtick_5">
     <g id="line2d_9">
      <g>
       <use xlink:href="#md4f2b628b3" x="272.913933" y="189.22" style="fill: #ffffff; stroke: #000000; stroke-width: 1.25"/>
      </g>
     </g>
     <g id="line2d_10">
      <g>
       <use xlink:href="#m741e9ea91b" x="272.913933" y="7.2" style="fill: #ffffff; stroke: #000000; stroke-width: 1.25"/>
      </g>
     </g>
     <g id="text_5">
      <!-- 10% -->
      <g transform="translate(260.999636 201.746875) scale(0.13 -0.13)">
       <use xlink:href="#TimesNewRomanPSMT-31"/>
       <use xlink:href="#TimesNewRomanPSMT-30" transform="translate(50 0)"/>
       <use xlink:href="#TimesNewRomanPSMT-25" transform="translate(100 0)"/>
      </g>
     </g>
    </g>
    <g id="xtick_6">
     <g id="line2d_11">
      <g>
       <use xlink:href="#md4f2b628b3" x="323.736991" y="189.22" style="fill: #ffffff; stroke: #000000; stroke-width: 1.25"/>
      </g>
     </g>
     <g id="line2d_12">
      <g>
       <use xlink:href="#m741e9ea91b" x="323.736991" y="7.2" style="fill: #ffffff; stroke: #000000; stroke-width: 1.25"/>
      </g>
     </g>
     <g id="text_6">
      <!-- 100% -->
      <g transform="translate(308.572694 201.746875) scale(0.13 -0.13)">
       <use xlink:href="#TimesNewRomanPSMT-31"/>
       <use xlink:href="#TimesNewRomanPSMT-30" transform="translate(50 0)"/>
       <use xlink:href="#TimesNewRomanPSMT-30" transform="translate(100 0)"/>
       <use xlink:href="#TimesNewRomanPSMT-25" transform="translate(150 0)"/>
      </g>
     </g>
    </g>
    <g id="xtick_7">
     <g id="line2d_13">
      <defs>
       <path id="m0cd5052679" d="M 0 0 
L 0 -3 
" style="stroke: #000000; stroke-width: 0.75"/>
      </defs>
      <g>
       <use xlink:href="#m0cd5052679" x="58.34667" y="189.22" style="fill: #ffffff; stroke: #000000; stroke-width: 0.75"/>
      </g>
     </g>
     <g id="line2d_14">
      <defs>
       <path id="mf304d29069" d="M 0 0 
L 0 3 
" style="stroke: #000000; stroke-width: 0.75"/>
      </defs>
      <g>
       <use xlink:href="#mf304d29069" x="58.34667" y="7.2" style="fill: #ffffff; stroke: #000000; stroke-width: 0.75"/>
      </g>
     </g>
    </g>
    <g id="xtick_8">
     <g id="line2d_15">
      <g>
       <use xlink:href="#m0cd5052679" x="61.749111" y="189.22" style="fill: #ffffff; stroke: #000000; stroke-width: 0.75"/>
      </g>
     </g>
     <g id="line2d_16">
      <g>
       <use xlink:href="#mf304d29069" x="61.749111" y="7.2" style="fill: #ffffff; stroke: #000000; stroke-width: 0.75"/>
      </g>
     </g>
    </g>
    <g id="xtick_9">
     <g id="line2d_17">
      <g>
       <use xlink:href="#m0cd5052679" x="64.696439" y="189.22" style="fill: #ffffff; stroke: #000000; stroke-width: 0.75"/>
      </g>
     </g>
     <g id="line2d_18">
      <g>
       <use xlink:href="#mf304d29069" x="64.696439" y="7.2" style="fill: #ffffff; stroke: #000000; stroke-width: 0.75"/>
      </g>
     </g>
    </g>
    <g id="xtick_10">
     <g id="line2d_19">
      <g>
       <use xlink:href="#m0cd5052679" x="67.296166" y="189.22" style="fill: #ffffff; stroke: #000000; stroke-width: 0.75"/>
      </g>
     </g>
     <g id="line2d_20">
      <g>
       <use xlink:href="#mf304d29069" x="67.296166" y="7.2" style="fill: #ffffff; stroke: #000000; stroke-width: 0.75"/>
      </g>
     </g>
    </g>
    <g id="xtick_11">
     <g id="line2d_21">
      <g>
       <use xlink:href="#m0cd5052679" x="84.920967" y="189.22" style="fill: #ffffff; stroke: #000000; stroke-width: 0.75"/>
      </g>
     </g>
     <g id="line2d_22">
      <g>
       <use xlink:href="#mf304d29069" x="84.920967" y="7.2" style="fill: #ffffff; stroke: #000000; stroke-width: 0.75"/>
      </g>
     </g>
    </g>
    <g id="xtick_12">
     <g id="line2d_23">
      <g>
       <use xlink:href="#m0cd5052679" x="93.870463" y="189.22" style="fill: #ffffff; stroke: #000000; stroke-width: 0.75"/>
      </g>
     </g>
     <g id="line2d_24">
      <g>
       <use xlink:href="#mf304d29069" x="93.870463" y="7.2" style="fill: #ffffff; stroke: #000000; stroke-width: 0.75"/>
      </g>
     </g>
    </g>
    <g id="xtick_13">
     <g id="line2d_25">
      <g>
       <use xlink:href="#m0cd5052679" x="100.220232" y="189.22" style="fill: #ffffff; stroke: #000000; stroke-width: 0.75"/>
      </g>
     </g>
     <g id="line2d_26">
      <g>
       <use xlink:href="#mf304d29069" x="100.220232" y="7.2" style="fill: #ffffff; stroke: #000000; stroke-width: 0.75"/>
      </g>
     </g>
    </g>
    <g id="xtick_14">
     <g id="line2d_27">
      <g>
       <use xlink:href="#m0cd5052679" x="105.145495" y="189.22" style="fill: #ffffff; stroke: #000000; stroke-width: 0.75"/>
      </g>
     </g>
     <g id="line2d_28">
      <g>
       <use xlink:href="#mf304d29069" x="105.145495" y="7.2" style="fill: #ffffff; stroke: #000000; stroke-width: 0.75"/>
      </g>
     </g>
    </g>
    <g id="xtick_15">
     <g id="line2d_29">
      <g>
       <use xlink:href="#m0cd5052679" x="109.169728" y="189.22" style="fill: #ffffff; stroke: #000000; stroke-width: 0.75"/>
      </g>
     </g>
     <g id="line2d_30">
      <g>
       <use xlink:href="#mf304d29069" x="109.169728" y="7.2" style="fill: #ffffff; stroke: #000000; stroke-width: 0.75"/>
      </g>
     </g>
    </g>
    <g id="xtick_16">
     <g id="line2d_31">
      <g>
       <use xlink:href="#m0cd5052679" x="112.572169" y="189.22" style="fill: #ffffff; stroke: #000000; stroke-width: 0.75"/>
      </g>
     </g>
     <g id="line2d_32">
      <g>
       <use xlink:href="#mf304d29069" x="112.572169" y="7.2" style="fill: #ffffff; stroke: #000000; stroke-width: 0.75"/>
      </g>
     </g>
    </g>
    <g id="xtick_17">
     <g id="line2d_33">
      <g>
       <use xlink:href="#m0cd5052679" x="115.519497" y="189.22" style="fill: #ffffff; stroke: #000000; stroke-width: 0.75"/>
      </g>
     </g>
     <g id="line2d_34">
      <g>
       <use xlink:href="#mf304d29069" x="115.519497" y="7.2" style="fill: #ffffff; stroke: #000000; stroke-width: 0.75"/>
      </g>
     </g>
    </g>
    <g id="xtick_18">
     <g id="line2d_35">
      <g>
       <use xlink:href="#m0cd5052679" x="118.119224" y="189.22" style="fill: #ffffff; stroke: #000000; stroke-width: 0.75"/>
      </g>
     </g>
     <g id="line2d_36">
      <g>
       <use xlink:href="#mf304d29069" x="118.119224" y="7.2" style="fill: #ffffff; stroke: #000000; stroke-width: 0.75"/>
      </g>
     </g>
    </g>
    <g id="xtick_19">
     <g id="line2d_37">
      <g>
       <use xlink:href="#m0cd5052679" x="135.744025" y="189.22" style="fill: #ffffff; stroke: #000000; stroke-width: 0.75"/>
      </g>
     </g>
     <g id="line2d_38">
      <g>
       <use xlink:href="#mf304d29069" x="135.744025" y="7.2" style="fill: #ffffff; stroke: #000000; stroke-width: 0.75"/>
      </g>
     </g>
    </g>
    <g id="xtick_20">
     <g id="line2d_39">
      <g>
       <use xlink:href="#m0cd5052679" x="144.693521" y="189.22" style="fill: #ffffff; stroke: #000000; stroke-width: 0.75"/>
      </g>
     </g>
     <g id="line2d_40">
      <g>
       <use xlink:href="#mf304d29069" x="144.693521" y="7.2" style="fill: #ffffff; stroke: #000000; stroke-width: 0.75"/>
      </g>
     </g>
    </g>
    <g id="xtick_21">
     <g id="line2d_41">
      <g>
       <use xlink:href="#m0cd5052679" x="151.04329" y="189.22" style="fill: #ffffff; stroke: #000000; stroke-width: 0.75"/>
      </g>
     </g>
     <g id="line2d_42">
      <g>
       <use xlink:href="#mf304d29069" x="151.04329" y="7.2" style="fill: #ffffff; stroke: #000000; stroke-width: 0.75"/>
      </g>
     </g>
    </g>
    <g id="xtick_22">
     <g id="line2d_43">
      <g>
       <use xlink:href="#m0cd5052679" x="155.968553" y="189.22" style="fill: #ffffff; stroke: #000000; stroke-width: 0.75"/>
      </g>
     </g>
     <g id="line2d_44">
      <g>
       <use xlink:href="#mf304d29069" x="155.968553" y="7.2" style="fill: #ffffff; stroke: #000000; stroke-width: 0.75"/>
      </g>
     </g>
    </g>
    <g id="xtick_23">
     <g id="line2d_45">
      <g>
       <use xlink:href="#m0cd5052679" x="159.992786" y="189.22" style="fill: #ffffff; stroke: #000000; stroke-width: 0.75"/>
      </g>
     </g>
     <g id="line2d_46">
      <g>
       <use xlink:href="#mf304d29069" x="159.992786" y="7.2" style="fill: #ffffff; stroke: #000000; stroke-width: 0.75"/>
      </g>
     </g>
    </g>
    <g id="xtick_24">
     <g id="line2d_47">
      <g>
       <use xlink:href="#m0cd5052679" x="163.395226" y="189.22" style="fill: #ffffff; stroke: #000000; stroke-width: 0.75"/>
      </g>
     </g>
     <g id="line2d_48">
      <g>
       <use xlink:href="#mf304d29069" x="163.395226" y="7.2" style="fill: #ffffff; stroke: #000000; stroke-width: 0.75"/>
      </g>
     </g>
    </g>
    <g id="xtick_25">
     <g id="line2d_49">
      <g>
       <use xlink:href="#m0cd5052679" x="166.342554" y="189.22" style="fill: #ffffff; stroke: #000000; stroke-width: 0.75"/>
      </g>
     </g>
     <g id="line2d_50">
      <g>
       <use xlink:href="#mf304d29069" x="166.342554" y="7.2" style="fill: #ffffff; stroke: #000000; stroke-width: 0.75"/>
      </g>
     </g>
    </g>
    <g id="xtick_26">
     <g id="line2d_51">
      <g>
       <use xlink:href="#m0cd5052679" x="168.942282" y="189.22" style="fill: #ffffff; stroke: #000000; stroke-width: 0.75"/>
      </g>
     </g>
     <g id="line2d_52">
      <g>
       <use xlink:href="#mf304d29069" x="168.942282" y="7.2" style="fill: #ffffff; stroke: #000000; stroke-width: 0.75"/>
      </g>
     </g>
    </g>
    <g id="xtick_27">
     <g id="line2d_53">
      <g>
       <use xlink:href="#m0cd5052679" x="186.567083" y="189.22" style="fill: #ffffff; stroke: #000000; stroke-width: 0.75"/>
      </g>
     </g>
     <g id="line2d_54">
      <g>
       <use xlink:href="#mf304d29069" x="186.567083" y="7.2" style="fill: #ffffff; stroke: #000000; stroke-width: 0.75"/>
      </g>
     </g>
    </g>
    <g id="xtick_28">
     <g id="line2d_55">
      <g>
       <use xlink:href="#m0cd5052679" x="195.516579" y="189.22" style="fill: #ffffff; stroke: #000000; stroke-width: 0.75"/>
      </g>
     </g>
     <g id="line2d_56">
      <g>
       <use xlink:href="#mf304d29069" x="195.516579" y="7.2" style="fill: #ffffff; stroke: #000000; stroke-width: 0.75"/>
      </g>
     </g>
    </g>
    <g id="xtick_29">
     <g id="line2d_57">
      <g>
       <use xlink:href="#m0cd5052679" x="201.866347" y="189.22" style="fill: #ffffff; stroke: #000000; stroke-width: 0.75"/>
      </g>
     </g>
     <g id="line2d_58">
      <g>
       <use xlink:href="#mf304d29069" x="201.866347" y="7.2" style="fill: #ffffff; stroke: #000000; stroke-width: 0.75"/>
      </g>
     </g>
    </g>
    <g id="xtick_30">
     <g id="line2d_59">
      <g>
       <use xlink:href="#m0cd5052679" x="206.791611" y="189.22" style="fill: #ffffff; stroke: #000000; stroke-width: 0.75"/>
      </g>
     </g>
     <g id="line2d_60">
      <g>
       <use xlink:href="#mf304d29069" x="206.791611" y="7.2" style="fill: #ffffff; stroke: #000000; stroke-width: 0.75"/>
      </g>
     </g>
    </g>
    <g id="xtick_31">
     <g id="line2d_61">
      <g>
       <use xlink:href="#m0cd5052679" x="210.815844" y="189.22" style="fill: #ffffff; stroke: #000000; stroke-width: 0.75"/>
      </g>
     </g>
     <g id="line2d_62">
      <g>
       <use xlink:href="#mf304d29069" x="210.815844" y="7.2" style="fill: #ffffff; stroke: #000000; stroke-width: 0.75"/>
      </g>
     </g>
    </g>
    <g id="xtick_32">
     <g id="line2d_63">
      <g>
       <use xlink:href="#m0cd5052679" x="214.218284" y="189.22" style="fill: #ffffff; stroke: #000000; stroke-width: 0.75"/>
      </g>
     </g>
     <g id="line2d_64">
      <g>
       <use xlink:href="#mf304d29069" x="214.218284" y="7.2" style="fill: #ffffff; stroke: #000000; stroke-width: 0.75"/>
      </g>
     </g>
    </g>
    <g id="xtick_33">
     <g id="line2d_65">
      <g>
       <use xlink:href="#m0cd5052679" x="217.165612" y="189.22" style="fill: #ffffff; stroke: #000000; stroke-width: 0.75"/>
      </g>
     </g>
     <g id="line2d_66">
      <g>
       <use xlink:href="#mf304d29069" x="217.165612" y="7.2" style="fill: #ffffff; stroke: #000000; stroke-width: 0.75"/>
      </g>
     </g>
    </g>
    <g id="xtick_34">
     <g id="line2d_67">
      <g>
       <use xlink:href="#m0cd5052679" x="219.76534" y="189.22" style="fill: #ffffff; stroke: #000000; stroke-width: 0.75"/>
      </g>
     </g>
     <g id="line2d_68">
      <g>
       <use xlink:href="#mf304d29069" x="219.76534" y="7.2" style="fill: #ffffff; stroke: #000000; stroke-width: 0.75"/>
      </g>
     </g>
    </g>
    <g id="xtick_35">
     <g id="line2d_69">
      <g>
       <use xlink:href="#m0cd5052679" x="237.39014" y="189.22" style="fill: #ffffff; stroke: #000000; stroke-width: 0.75"/>
      </g>
     </g>
     <g id="line2d_70">
      <g>
       <use xlink:href="#mf304d29069" x="237.39014" y="7.2" style="fill: #ffffff; stroke: #000000; stroke-width: 0.75"/>
      </g>
     </g>
    </g>
    <g id="xtick_36">
     <g id="line2d_71">
      <g>
       <use xlink:href="#m0cd5052679" x="246.339637" y="189.22" style="fill: #ffffff; stroke: #000000; stroke-width: 0.75"/>
      </g>
     </g>
     <g id="line2d_72">
      <g>
       <use xlink:href="#mf304d29069" x="246.339637" y="7.2" style="fill: #ffffff; stroke: #000000; stroke-width: 0.75"/>
      </g>
     </g>
    </g>
    <g id="xtick_37">
     <g id="line2d_73">
      <g>
       <use xlink:href="#m0cd5052679" x="252.689405" y="189.22" style="fill: #ffffff; stroke: #000000; stroke-width: 0.75"/>
      </g>
     </g>
     <g id="line2d_74">
      <g>
       <use xlink:href="#mf304d29069" x="252.689405" y="7.2" style="fill: #ffffff; stroke: #000000; stroke-width: 0.75"/>
      </g>
     </g>
    </g>
    <g id="xtick_38">
     <g id="line2d_75">
      <g>
       <use xlink:href="#m0cd5052679" x="257.614668" y="189.22" style="fill: #ffffff; stroke: #000000; stroke-width: 0.75"/>
      </g>
     </g>
     <g id="line2d_76">
      <g>
       <use xlink:href="#mf304d29069" x="257.614668" y="7.2" style="fill: #ffffff; stroke: #000000; stroke-width: 0.75"/>
      </g>
     </g>
    </g>
    <g id="xtick_39">
     <g id="line2d_77">
      <g>
       <use xlink:href="#m0cd5052679" x="261.638902" y="189.22" style="fill: #ffffff; stroke: #000000; stroke-width: 0.75"/>
      </g>
     </g>
     <g id="line2d_78">
      <g>
       <use xlink:href="#mf304d29069" x="261.638902" y="7.2" style="fill: #ffffff; stroke: #000000; stroke-width: 0.75"/>
      </g>
     </g>
    </g>
    <g id="xtick_40">
     <g id="line2d_79">
      <g>
       <use xlink:href="#m0cd5052679" x="265.041342" y="189.22" style="fill: #ffffff; stroke: #000000; stroke-width: 0.75"/>
      </g>
     </g>
     <g id="line2d_80">
      <g>
       <use xlink:href="#mf304d29069" x="265.041342" y="7.2" style="fill: #ffffff; stroke: #000000; stroke-width: 0.75"/>
      </g>
     </g>
    </g>
    <g id="xtick_41">
     <g id="line2d_81">
      <g>
       <use xlink:href="#m0cd5052679" x="267.98867" y="189.22" style="fill: #ffffff; stroke: #000000; stroke-width: 0.75"/>
      </g>
     </g>
     <g id="line2d_82">
      <g>
       <use xlink:href="#mf304d29069" x="267.98867" y="7.2" style="fill: #ffffff; stroke: #000000; stroke-width: 0.75"/>
      </g>
     </g>
    </g>
    <g id="xtick_42">
     <g id="line2d_83">
      <g>
       <use xlink:href="#m0cd5052679" x="270.588398" y="189.22" style="fill: #ffffff; stroke: #000000; stroke-width: 0.75"/>
      </g>
     </g>
     <g id="line2d_84">
      <g>
       <use xlink:href="#mf304d29069" x="270.588398" y="7.2" style="fill: #ffffff; stroke: #000000; stroke-width: 0.75"/>
      </g>
     </g>
    </g>
    <g id="xtick_43">
     <g id="line2d_85">
      <g>
       <use xlink:href="#m0cd5052679" x="288.213198" y="189.22" style="fill: #ffffff; stroke: #000000; stroke-width: 0.75"/>
      </g>
     </g>
     <g id="line2d_86">
      <g>
       <use xlink:href="#mf304d29069" x="288.213198" y="7.2" style="fill: #ffffff; stroke: #000000; stroke-width: 0.75"/>
      </g>
     </g>
    </g>
    <g id="xtick_44">
     <g id="line2d_87">
      <g>
       <use xlink:href="#m0cd5052679" x="297.162694" y="189.22" style="fill: #ffffff; stroke: #000000; stroke-width: 0.75"/>
      </g>
     </g>
     <g id="line2d_88">
      <g>
       <use xlink:href="#mf304d29069" x="297.162694" y="7.2" style="fill: #ffffff; stroke: #000000; stroke-width: 0.75"/>
      </g>
     </g>
    </g>
    <g id="xtick_45">
     <g id="line2d_89">
      <g>
       <use xlink:href="#m0cd5052679" x="303.512463" y="189.22" style="fill: #ffffff; stroke: #000000; stroke-width: 0.75"/>
      </g>
     </g>
     <g id="line2d_90">
      <g>
       <use xlink:href="#mf304d29069" x="303.512463" y="7.2" style="fill: #ffffff; stroke: #000000; stroke-width: 0.75"/>
      </g>
     </g>
    </g>
    <g id="xtick_46">
     <g id="line2d_91">
      <g>
       <use xlink:href="#m0cd5052679" x="308.437726" y="189.22" style="fill: #ffffff; stroke: #000000; stroke-width: 0.75"/>
      </g>
     </g>
     <g id="line2d_92">
      <g>
       <use xlink:href="#mf304d29069" x="308.437726" y="7.2" style="fill: #ffffff; stroke: #000000; stroke-width: 0.75"/>
      </g>
     </g>
    </g>
    <g id="xtick_47">
     <g id="line2d_93">
      <g>
       <use xlink:href="#m0cd5052679" x="312.461959" y="189.22" style="fill: #ffffff; stroke: #000000; stroke-width: 0.75"/>
      </g>
     </g>
     <g id="line2d_94">
      <g>
       <use xlink:href="#mf304d29069" x="312.461959" y="7.2" style="fill: #ffffff; stroke: #000000; stroke-width: 0.75"/>
      </g>
     </g>
    </g>
    <g id="xtick_48">
     <g id="line2d_95">
      <g>
       <use xlink:href="#m0cd5052679" x="315.8644" y="189.22" style="fill: #ffffff; stroke: #000000; stroke-width: 0.75"/>
      </g>
     </g>
     <g id="line2d_96">
      <g>
       <use xlink:href="#mf304d29069" x="315.8644" y="7.2" style="fill: #ffffff; stroke: #000000; stroke-width: 0.75"/>
      </g>
     </g>
    </g>
    <g id="xtick_49">
     <g id="line2d_97">
      <g>
       <use xlink:href="#m0cd5052679" x="318.811728" y="189.22" style="fill: #ffffff; stroke: #000000; stroke-width: 0.75"/>
      </g>
     </g>
     <g id="line2d_98">
      <g>
       <use xlink:href="#mf304d29069" x="318.811728" y="7.2" style="fill: #ffffff; stroke: #000000; stroke-width: 0.75"/>
      </g>
     </g>
    </g>
    <g id="xtick_50">
     <g id="line2d_99">
      <g>
       <use xlink:href="#m0cd5052679" x="321.411456" y="189.22" style="fill: #ffffff; stroke: #000000; stroke-width: 0.75"/>
      </g>
     </g>
     <g id="line2d_100">
      <g>
       <use xlink:href="#mf304d29069" x="321.411456" y="7.2" style="fill: #ffffff; stroke: #000000; stroke-width: 0.75"/>
      </g>
     </g>
    </g>
    <g id="text_7">
     <!-- Vapor quality [%] -->
     <g transform="translate(146.530909 228.248906) scale(0.14 -0.14)">
      <defs>
       <path id="TimesNewRomanPSMT-56" d="M 4544 4238 
L 4544 4122 
Q 4319 4081 4203 3978 
Q 4038 3825 3909 3509 
L 2431 -97 
L 2316 -97 
L 728 3556 
Q 606 3838 556 3900 
Q 478 3997 364 4051 
Q 250 4106 56 4122 
L 56 4238 
L 1788 4238 
L 1788 4122 
Q 1494 4094 1406 4022 
Q 1319 3950 1319 3838 
Q 1319 3681 1463 3350 
L 2541 866 
L 3541 3319 
Q 3688 3681 3688 3822 
Q 3688 3913 3597 3995 
Q 3506 4078 3291 4113 
Q 3275 4116 3238 4122 
L 3238 4238 
L 4544 4238 
z
" transform="scale(0.015625)"/>
       <path id="TimesNewRomanPSMT-61" d="M 1822 413 
Q 1381 72 1269 19 
Q 1100 -59 909 -59 
Q 613 -59 420 144 
Q 228 347 228 678 
Q 228 888 322 1041 
Q 450 1253 767 1440 
Q 1084 1628 1822 1897 
L 1822 2009 
Q 1822 2438 1686 2597 
Q 1550 2756 1291 2756 
Q 1094 2756 978 2650 
Q 859 2544 859 2406 
L 866 2225 
Q 866 2081 792 2003 
Q 719 1925 600 1925 
Q 484 1925 411 2006 
Q 338 2088 338 2228 
Q 338 2497 613 2722 
Q 888 2947 1384 2947 
Q 1766 2947 2009 2819 
Q 2194 2722 2281 2516 
Q 2338 2381 2338 1966 
L 2338 994 
Q 2338 584 2353 492 
Q 2369 400 2405 369 
Q 2441 338 2488 338 
Q 2538 338 2575 359 
Q 2641 400 2828 588 
L 2828 413 
Q 2478 -56 2159 -56 
Q 2006 -56 1915 50 
Q 1825 156 1822 413 
z
M 1822 616 
L 1822 1706 
Q 1350 1519 1213 1441 
Q 966 1303 859 1153 
Q 753 1003 753 825 
Q 753 600 887 451 
Q 1022 303 1197 303 
Q 1434 303 1822 616 
z
" transform="scale(0.015625)"/>
       <path id="TimesNewRomanPSMT-70" d="M -6 2578 
L 875 2934 
L 994 2934 
L 994 2266 
Q 1216 2644 1439 2795 
Q 1663 2947 1909 2947 
Q 2341 2947 2628 2609 
Q 2981 2197 2981 1534 
Q 2981 794 2556 309 
Q 2206 -88 1675 -88 
Q 1444 -88 1275 -22 
Q 1150 25 994 166 
L 994 -706 
Q 994 -1000 1030 -1079 
Q 1066 -1159 1155 -1206 
Q 1244 -1253 1478 -1253 
L 1478 -1369 
L -22 -1369 
L -22 -1253 
L 56 -1253 
Q 228 -1256 350 -1188 
Q 409 -1153 442 -1076 
Q 475 -1000 475 -688 
L 475 2019 
Q 475 2297 450 2372 
Q 425 2447 370 2484 
Q 316 2522 222 2522 
Q 147 2522 31 2478 
L -6 2578 
z
M 994 2081 
L 994 1013 
Q 994 666 1022 556 
Q 1066 375 1236 237 
Q 1406 100 1666 100 
Q 1978 100 2172 344 
Q 2425 663 2425 1241 
Q 2425 1897 2138 2250 
Q 1938 2494 1663 2494 
Q 1513 2494 1366 2419 
Q 1253 2363 994 2081 
z
" transform="scale(0.015625)"/>
       <path id="TimesNewRomanPSMT-6f" d="M 1600 2947 
Q 2250 2947 2644 2453 
Q 2978 2031 2978 1484 
Q 2978 1100 2793 706 
Q 2609 313 2286 112 
Q 1963 -88 1566 -88 
Q 919 -88 538 428 
Q 216 863 216 1403 
Q 216 1797 411 2186 
Q 606 2575 925 2761 
Q 1244 2947 1600 2947 
z
M 1503 2744 
Q 1338 2744 1170 2645 
Q 1003 2547 900 2300 
Q 797 2053 797 1666 
Q 797 1041 1045 587 
Q 1294 134 1700 134 
Q 2003 134 2200 384 
Q 2397 634 2397 1244 
Q 2397 2006 2069 2444 
Q 1847 2744 1503 2744 
z
" transform="scale(0.015625)"/>
       <path id="TimesNewRomanPSMT-72" d="M 1038 2947 
L 1038 2303 
Q 1397 2947 1775 2947 
Q 1947 2947 2059 2842 
Q 2172 2738 2172 2600 
Q 2172 2478 2090 2393 
Q 2009 2309 1897 2309 
Q 1788 2309 1652 2417 
Q 1516 2525 1450 2525 
Q 1394 2525 1328 2463 
Q 1188 2334 1038 2041 
L 1038 669 
Q 1038 431 1097 309 
Q 1138 225 1241 169 
Q 1344 113 1538 113 
L 1538 0 
L 72 0 
L 72 113 
Q 291 113 397 181 
Q 475 231 506 341 
Q 522 394 522 644 
L 522 1753 
Q 522 2253 501 2348 
Q 481 2444 426 2487 
Q 372 2531 291 2531 
Q 194 2531 72 2484 
L 41 2597 
L 906 2947 
L 1038 2947 
z
" transform="scale(0.015625)"/>
       <path id="TimesNewRomanPSMT-20" transform="scale(0.015625)"/>
       <path id="TimesNewRomanPSMT-71" d="M 2734 2947 
L 2734 -734 
Q 2734 -1009 2771 -1087 
Q 2809 -1166 2889 -1209 
Q 2969 -1253 3200 -1253 
L 3200 -1369 
L 1756 -1369 
L 1756 -1253 
L 1816 -1253 
Q 1991 -1253 2081 -1203 
Q 2144 -1169 2181 -1080 
Q 2219 -991 2219 -734 
L 2219 497 
Q 1934 159 1721 35 
Q 1509 -88 1281 -88 
Q 866 -88 539 290 
Q 213 669 213 1303 
Q 213 2031 644 2489 
Q 1075 2947 1684 2947 
Q 1863 2947 2013 2897 
Q 2163 2847 2281 2747 
Q 2463 2834 2628 2947 
L 2734 2947 
z
M 2219 694 
L 2219 2038 
Q 2219 2272 2158 2406 
Q 2097 2541 1940 2634 
Q 1784 2728 1588 2728 
Q 1238 2728 988 2431 
Q 738 2134 738 1531 
Q 738 953 992 653 
Q 1247 353 1606 353 
Q 1791 353 1934 433 
Q 2078 513 2219 694 
z
" transform="scale(0.015625)"/>
       <path id="TimesNewRomanPSMT-75" d="M 2709 2863 
L 2709 1128 
Q 2709 631 2732 520 
Q 2756 409 2807 365 
Q 2859 322 2928 322 
Q 3025 322 3147 375 
L 3191 266 
L 2334 -88 
L 2194 -88 
L 2194 519 
Q 1825 119 1631 15 
Q 1438 -88 1222 -88 
Q 981 -88 804 51 
Q 628 191 559 409 
Q 491 628 491 1028 
L 491 2306 
Q 491 2509 447 2587 
Q 403 2666 317 2708 
Q 231 2750 6 2747 
L 6 2863 
L 1009 2863 
L 1009 947 
Q 1009 547 1148 422 
Q 1288 297 1484 297 
Q 1619 297 1789 381 
Q 1959 466 2194 703 
L 2194 2325 
Q 2194 2569 2105 2655 
Q 2016 2741 1734 2747 
L 1734 2863 
L 2709 2863 
z
" transform="scale(0.015625)"/>
       <path id="TimesNewRomanPSMT-6c" d="M 1184 4444 
L 1184 647 
Q 1184 378 1223 290 
Q 1263 203 1344 158 
Q 1425 113 1647 113 
L 1647 0 
L 244 0 
L 244 113 
Q 441 113 512 153 
Q 584 194 625 287 
Q 666 381 666 647 
L 666 3247 
Q 666 3731 644 3842 
Q 622 3953 573 3993 
Q 525 4034 450 4034 
Q 369 4034 244 3984 
L 191 4094 
L 1044 4444 
L 1184 4444 
z
" transform="scale(0.015625)"/>
       <path id="TimesNewRomanPSMT-69" d="M 928 4444 
Q 1059 4444 1151 4351 
Q 1244 4259 1244 4128 
Q 1244 3997 1151 3903 
Q 1059 3809 928 3809 
Q 797 3809 703 3903 
Q 609 3997 609 4128 
Q 609 4259 701 4351 
Q 794 4444 928 4444 
z
M 1188 2947 
L 1188 647 
Q 1188 378 1227 289 
Q 1266 200 1342 156 
Q 1419 113 1622 113 
L 1622 0 
L 231 0 
L 231 113 
Q 441 113 512 153 
Q 584 194 626 287 
Q 669 381 669 647 
L 669 1750 
Q 669 2216 641 2353 
Q 619 2453 572 2492 
Q 525 2531 444 2531 
Q 356 2531 231 2484 
L 188 2597 
L 1050 2947 
L 1188 2947 
z
" transform="scale(0.015625)"/>
       <path id="TimesNewRomanPSMT-74" d="M 1031 3803 
L 1031 2863 
L 1700 2863 
L 1700 2644 
L 1031 2644 
L 1031 788 
Q 1031 509 1111 412 
Q 1191 316 1316 316 
Q 1419 316 1516 380 
Q 1613 444 1666 569 
L 1788 569 
Q 1678 263 1478 108 
Q 1278 -47 1066 -47 
Q 922 -47 784 33 
Q 647 113 581 261 
Q 516 409 516 719 
L 516 2644 
L 63 2644 
L 63 2747 
Q 234 2816 414 2980 
Q 594 3144 734 3369 
Q 806 3488 934 3803 
L 1031 3803 
z
" transform="scale(0.015625)"/>
       <path id="TimesNewRomanPSMT-79" d="M 38 2863 
L 1372 2863 
L 1372 2747 
L 1306 2747 
Q 1166 2747 1095 2686 
Q 1025 2625 1025 2534 
Q 1025 2413 1128 2197 
L 1825 753 
L 2466 2334 
Q 2519 2463 2519 2588 
Q 2519 2644 2497 2672 
Q 2472 2706 2419 2726 
Q 2366 2747 2231 2747 
L 2231 2863 
L 3163 2863 
L 3163 2747 
Q 3047 2734 2984 2696 
Q 2922 2659 2847 2556 
Q 2819 2513 2741 2316 
L 1575 -541 
Q 1406 -956 1132 -1168 
Q 859 -1381 606 -1381 
Q 422 -1381 303 -1275 
Q 184 -1169 184 -1031 
Q 184 -900 270 -820 
Q 356 -741 506 -741 
Q 609 -741 788 -809 
Q 913 -856 944 -856 
Q 1038 -856 1148 -759 
Q 1259 -663 1372 -384 
L 1575 113 
L 547 2272 
Q 500 2369 397 2513 
Q 319 2622 269 2659 
Q 197 2709 38 2747 
L 38 2863 
z
" transform="scale(0.015625)"/>
       <path id="TimesNewRomanPSMT-5b" d="M 1900 -1269 
L 525 -1269 
L 525 4334 
L 1900 4334 
L 1900 4088 
L 994 4088 
L 994 -1025 
L 1900 -1025 
L 1900 -1269 
z
" transform="scale(0.015625)"/>
       <path id="TimesNewRomanPSMT-5d" d="M 234 4334 
L 1609 4334 
L 1609 -1272 
L 234 -1272 
L 234 -1025 
L 1141 -1025 
L 1141 4088 
L 234 4088 
L 234 4334 
z
" transform="scale(0.015625)"/>
      </defs>
      <use xlink:href="#TimesNewRomanPSMT-56"/>
      <use xlink:href="#TimesNewRomanPSMT-61" transform="translate(61.091797 0)"/>
      <use xlink:href="#TimesNewRomanPSMT-70" transform="translate(105.476562 0)"/>
      <use xlink:href="#TimesNewRomanPSMT-6f" transform="translate(155.476562 0)"/>
      <use xlink:href="#TimesNewRomanPSMT-72" transform="translate(205.476562 0)"/>
      <use xlink:href="#TimesNewRomanPSMT-20" transform="translate(238.777344 0)"/>
      <use xlink:href="#TimesNewRomanPSMT-71" transform="translate(263.777344 0)"/>
      <use xlink:href="#TimesNewRomanPSMT-75" transform="translate(313.777344 0)"/>
      <use xlink:href="#TimesNewRomanPSMT-61" transform="translate(363.777344 0)"/>
      <use xlink:href="#TimesNewRomanPSMT-6c" transform="translate(408.162109 0)"/>
      <use xlink:href="#TimesNewRomanPSMT-69" transform="translate(435.945312 0)"/>
      <use xlink:href="#TimesNewRomanPSMT-74" transform="translate(463.728516 0)"/>
      <use xlink:href="#TimesNewRomanPSMT-79" transform="translate(491.511719 0)"/>
      <use xlink:href="#TimesNewRomanPSMT-20" transform="translate(541.511719 0)"/>
      <use xlink:href="#TimesNewRomanPSMT-5b" transform="translate(566.511719 0)"/>
      <use xlink:href="#TimesNewRomanPSMT-25" transform="translate(599.8125 0)"/>
      <use xlink:href="#TimesNewRomanPSMT-5d" transform="translate(683.113281 0)"/>
     </g>
    </g>
   </g>
   <g id="matplotlib.axis_2">
    <g id="ytick_1">
     <g id="line2d_101">
      <defs>
       <path id="mfa19405ed3" d="M 0 0 
L 6 0 
" style="stroke: #000000; stroke-width: 1.25"/>
      </defs>
      <g>
       <use xlink:href="#mfa19405ed3" x="56.915938" y="145.730553" style="fill: #ffffff; stroke: #000000; stroke-width: 1.25"/>
      </g>
     </g>
     <g id="line2d_102">
      <defs>
       <path id="m0b078633b3" d="M 0 0 
L -6 0 
" style="stroke: #000000; stroke-width: 1.25"/>
      </defs>
      <g>
       <use xlink:href="#m0b078633b3" x="336.442756" y="145.730553" style="fill: #ffffff; stroke: #000000; stroke-width: 1.25"/>
      </g>
     </g>
     <g id="text_8">
      <!-- 100 -->
      <g transform="translate(33.915938 150.24399) scale(0.13 -0.13)">
       <use xlink:href="#TimesNewRomanPSMT-31"/>
       <use xlink:href="#TimesNewRomanPSMT-30" transform="translate(50 0)"/>
       <use xlink:href="#TimesNewRomanPSMT-30" transform="translate(100 0)"/>
      </g>
     </g>
    </g>
    <g id="ytick_2">
     <g id="line2d_103">
      <g>
       <use xlink:href="#mfa19405ed3" x="56.915938" y="94.061967" style="fill: #ffffff; stroke: #000000; stroke-width: 1.25"/>
      </g>
     </g>
     <g id="line2d_104">
      <g>
       <use xlink:href="#m0b078633b3" x="336.442756" y="94.061967" style="fill: #ffffff; stroke: #000000; stroke-width: 1.25"/>
      </g>
     </g>
     <g id="text_9">
      <!-- 200 -->
      <g transform="translate(33.915938 98.575404) scale(0.13 -0.13)">
       <defs>
        <path id="TimesNewRomanPSMT-32" d="M 2934 816 
L 2638 0 
L 138 0 
L 138 116 
Q 1241 1122 1691 1759 
Q 2141 2397 2141 2925 
Q 2141 3328 1894 3587 
Q 1647 3847 1303 3847 
Q 991 3847 742 3664 
Q 494 3481 375 3128 
L 259 3128 
Q 338 3706 661 4015 
Q 984 4325 1469 4325 
Q 1984 4325 2329 3994 
Q 2675 3663 2675 3213 
Q 2675 2891 2525 2569 
Q 2294 2063 1775 1497 
Q 997 647 803 472 
L 1909 472 
Q 2247 472 2383 497 
Q 2519 522 2628 598 
Q 2738 675 2819 816 
L 2934 816 
z
" transform="scale(0.015625)"/>
       </defs>
       <use xlink:href="#TimesNewRomanPSMT-32"/>
       <use xlink:href="#TimesNewRomanPSMT-30" transform="translate(50 0)"/>
       <use xlink:href="#TimesNewRomanPSMT-30" transform="translate(100 0)"/>
      </g>
     </g>
    </g>
    <g id="ytick_3">
     <g id="line2d_105">
      <g>
       <use xlink:href="#mfa19405ed3" x="56.915938" y="42.393381" style="fill: #ffffff; stroke: #000000; stroke-width: 1.25"/>
      </g>
     </g>
     <g id="line2d_106">
      <g>
       <use xlink:href="#m0b078633b3" x="336.442756" y="42.393381" style="fill: #ffffff; stroke: #000000; stroke-width: 1.25"/>
      </g>
     </g>
     <g id="text_10">
      <!-- 300 -->
      <g transform="translate(33.915938 46.906819) scale(0.13 -0.13)">
       <defs>
        <path id="TimesNewRomanPSMT-33" d="M 325 3431 
Q 506 3859 782 4092 
Q 1059 4325 1472 4325 
Q 1981 4325 2253 3994 
Q 2459 3747 2459 3466 
Q 2459 3003 1878 2509 
Q 2269 2356 2469 2072 
Q 2669 1788 2669 1403 
Q 2669 853 2319 450 
Q 1863 -75 997 -75 
Q 569 -75 414 31 
Q 259 138 259 259 
Q 259 350 332 419 
Q 406 488 509 488 
Q 588 488 669 463 
Q 722 447 909 348 
Q 1097 250 1169 231 
Q 1284 197 1416 197 
Q 1734 197 1970 444 
Q 2206 691 2206 1028 
Q 2206 1275 2097 1509 
Q 2016 1684 1919 1775 
Q 1784 1900 1550 2001 
Q 1316 2103 1072 2103 
L 972 2103 
L 972 2197 
Q 1219 2228 1467 2375 
Q 1716 2522 1828 2728 
Q 1941 2934 1941 3181 
Q 1941 3503 1739 3701 
Q 1538 3900 1238 3900 
Q 753 3900 428 3381 
L 325 3431 
z
" transform="scale(0.015625)"/>
       </defs>
       <use xlink:href="#TimesNewRomanPSMT-33"/>
       <use xlink:href="#TimesNewRomanPSMT-30" transform="translate(50 0)"/>
       <use xlink:href="#TimesNewRomanPSMT-30" transform="translate(100 0)"/>
      </g>
     </g>
    </g>
    <g id="ytick_4">
     <g id="line2d_107">
      <defs>
       <path id="m5d005f3ab8" d="M 0 0 
L 3 0 
" style="stroke: #000000; stroke-width: 0.75"/>
      </defs>
      <g>
       <use xlink:href="#m5d005f3ab8" x="56.915938" y="187.065421" style="fill: #ffffff; stroke: #000000; stroke-width: 0.75"/>
      </g>
     </g>
     <g id="line2d_108">
      <defs>
       <path id="ma58d82c4fc" d="M 0 0 
L -3 0 
" style="stroke: #000000; stroke-width: 0.75"/>
      </defs>
      <g>
       <use xlink:href="#ma58d82c4fc" x="336.442756" y="187.065421" style="fill: #ffffff; stroke: #000000; stroke-width: 0.75"/>
      </g>
     </g>
    </g>
    <g id="ytick_5">
     <g id="line2d_109">
      <g>
       <use xlink:href="#m5d005f3ab8" x="56.915938" y="176.731704" style="fill: #ffffff; stroke: #000000; stroke-width: 0.75"/>
      </g>
     </g>
     <g id="line2d_110">
      <g>
       <use xlink:href="#ma58d82c4fc" x="336.442756" y="176.731704" style="fill: #ffffff; stroke: #000000; stroke-width: 0.75"/>
      </g>
     </g>
    </g>
    <g id="ytick_6">
     <g id="line2d_111">
      <g>
       <use xlink:href="#m5d005f3ab8" x="56.915938" y="166.397987" style="fill: #ffffff; stroke: #000000; stroke-width: 0.75"/>
      </g>
     </g>
     <g id="line2d_112">
      <g>
       <use xlink:href="#ma58d82c4fc" x="336.442756" y="166.397987" style="fill: #ffffff; stroke: #000000; stroke-width: 0.75"/>
      </g>
     </g>
    </g>
    <g id="ytick_7">
     <g id="line2d_113">
      <g>
       <use xlink:href="#m5d005f3ab8" x="56.915938" y="156.06427" style="fill: #ffffff; stroke: #000000; stroke-width: 0.75"/>
      </g>
     </g>
     <g id="line2d_114">
      <g>
       <use xlink:href="#ma58d82c4fc" x="336.442756" y="156.06427" style="fill: #ffffff; stroke: #000000; stroke-width: 0.75"/>
      </g>
     </g>
    </g>
    <g id="ytick_8">
     <g id="line2d_115">
      <g>
       <use xlink:href="#m5d005f3ab8" x="56.915938" y="135.396835" style="fill: #ffffff; stroke: #000000; stroke-width: 0.75"/>
      </g>
     </g>
     <g id="line2d_116">
      <g>
       <use xlink:href="#ma58d82c4fc" x="336.442756" y="135.396835" style="fill: #ffffff; stroke: #000000; stroke-width: 0.75"/>
      </g>
     </g>
    </g>
    <g id="ytick_9">
     <g id="line2d_117">
      <g>
       <use xlink:href="#m5d005f3ab8" x="56.915938" y="125.063118" style="fill: #ffffff; stroke: #000000; stroke-width: 0.75"/>
      </g>
     </g>
     <g id="line2d_118">
      <g>
       <use xlink:href="#ma58d82c4fc" x="336.442756" y="125.063118" style="fill: #ffffff; stroke: #000000; stroke-width: 0.75"/>
      </g>
     </g>
    </g>
    <g id="ytick_10">
     <g id="line2d_119">
      <g>
       <use xlink:href="#m5d005f3ab8" x="56.915938" y="114.729401" style="fill: #ffffff; stroke: #000000; stroke-width: 0.75"/>
      </g>
     </g>
     <g id="line2d_120">
      <g>
       <use xlink:href="#ma58d82c4fc" x="336.442756" y="114.729401" style="fill: #ffffff; stroke: #000000; stroke-width: 0.75"/>
      </g>
     </g>
    </g>
    <g id="ytick_11">
     <g id="line2d_121">
      <g>
       <use xlink:href="#m5d005f3ab8" x="56.915938" y="104.395684" style="fill: #ffffff; stroke: #000000; stroke-width: 0.75"/>
      </g>
     </g>
     <g id="line2d_122">
      <g>
       <use xlink:href="#ma58d82c4fc" x="336.442756" y="104.395684" style="fill: #ffffff; stroke: #000000; stroke-width: 0.75"/>
      </g>
     </g>
    </g>
    <g id="ytick_12">
     <g id="line2d_123">
      <g>
       <use xlink:href="#m5d005f3ab8" x="56.915938" y="83.72825" style="fill: #ffffff; stroke: #000000; stroke-width: 0.75"/>
      </g>
     </g>
     <g id="line2d_124">
      <g>
       <use xlink:href="#ma58d82c4fc" x="336.442756" y="83.72825" style="fill: #ffffff; stroke: #000000; stroke-width: 0.75"/>
      </g>
     </g>
    </g>
    <g id="ytick_13">
     <g id="line2d_125">
      <g>
       <use xlink:href="#m5d005f3ab8" x="56.915938" y="73.394533" style="fill: #ffffff; stroke: #000000; stroke-width: 0.75"/>
      </g>
     </g>
     <g id="line2d_126">
      <g>
       <use xlink:href="#ma58d82c4fc" x="336.442756" y="73.394533" style="fill: #ffffff; stroke: #000000; stroke-width: 0.75"/>
      </g>
     </g>
    </g>
    <g id="ytick_14">
     <g id="line2d_127">
      <g>
       <use xlink:href="#m5d005f3ab8" x="56.915938" y="63.060816" style="fill: #ffffff; stroke: #000000; stroke-width: 0.75"/>
      </g>
     </g>
     <g id="line2d_128">
      <g>
       <use xlink:href="#ma58d82c4fc" x="336.442756" y="63.060816" style="fill: #ffffff; stroke: #000000; stroke-width: 0.75"/>
      </g>
     </g>
    </g>
    <g id="ytick_15">
     <g id="line2d_129">
      <g>
       <use xlink:href="#m5d005f3ab8" x="56.915938" y="52.727098" style="fill: #ffffff; stroke: #000000; stroke-width: 0.75"/>
      </g>
     </g>
     <g id="line2d_130">
      <g>
       <use xlink:href="#ma58d82c4fc" x="336.442756" y="52.727098" style="fill: #ffffff; stroke: #000000; stroke-width: 0.75"/>
      </g>
     </g>
    </g>
    <g id="ytick_16">
     <g id="line2d_131">
      <g>
       <use xlink:href="#m5d005f3ab8" x="56.915938" y="32.059664" style="fill: #ffffff; stroke: #000000; stroke-width: 0.75"/>
      </g>
     </g>
     <g id="line2d_132">
      <g>
       <use xlink:href="#ma58d82c4fc" x="336.442756" y="32.059664" style="fill: #ffffff; stroke: #000000; stroke-width: 0.75"/>
      </g>
     </g>
    </g>
    <g id="ytick_17">
     <g id="line2d_133">
      <g>
       <use xlink:href="#m5d005f3ab8" x="56.915938" y="21.725947" style="fill: #ffffff; stroke: #000000; stroke-width: 0.75"/>
      </g>
     </g>
     <g id="line2d_134">
      <g>
       <use xlink:href="#ma58d82c4fc" x="336.442756" y="21.725947" style="fill: #ffffff; stroke: #000000; stroke-width: 0.75"/>
      </g>
     </g>
    </g>
    <g id="ytick_18">
     <g id="line2d_135">
      <g>
       <use xlink:href="#m5d005f3ab8" x="56.915938" y="11.39223" style="fill: #ffffff; stroke: #000000; stroke-width: 0.75"/>
      </g>
     </g>
     <g id="line2d_136">
      <g>
       <use xlink:href="#ma58d82c4fc" x="336.442756" y="11.39223" style="fill: #ffffff; stroke: #000000; stroke-width: 0.75"/>
      </g>
     </g>
    </g>
    <g id="text_11">
     <!-- Mixture speed of sound [m/s] -->
     <g transform="translate(16.92125 181.032031) rotate(-90) scale(0.14 -0.14)">
      <defs>
       <path id="TimesNewRomanPSMT-4d" d="M 2619 0 
L 981 3566 
L 981 734 
Q 981 344 1066 247 
Q 1181 116 1431 116 
L 1581 116 
L 1581 0 
L 106 0 
L 106 116 
L 256 116 
Q 525 116 638 278 
Q 706 378 706 734 
L 706 3503 
Q 706 3784 644 3909 
Q 600 4000 483 4061 
Q 366 4122 106 4122 
L 106 4238 
L 1306 4238 
L 2844 922 
L 4356 4238 
L 5556 4238 
L 5556 4122 
L 5409 4122 
Q 5138 4122 5025 3959 
Q 4956 3859 4956 3503 
L 4956 734 
Q 4956 344 5044 247 
Q 5159 116 5409 116 
L 5556 116 
L 5556 0 
L 3756 0 
L 3756 116 
L 3906 116 
Q 4178 116 4288 278 
Q 4356 378 4356 734 
L 4356 3566 
L 2722 0 
L 2619 0 
z
" transform="scale(0.015625)"/>
       <path id="TimesNewRomanPSMT-78" d="M 84 2863 
L 1431 2863 
L 1431 2747 
Q 1303 2747 1251 2703 
Q 1200 2659 1200 2588 
Q 1200 2513 1309 2356 
Q 1344 2306 1413 2200 
L 1616 1875 
L 1850 2200 
Q 2075 2509 2075 2591 
Q 2075 2656 2022 2701 
Q 1969 2747 1850 2747 
L 1850 2863 
L 2819 2863 
L 2819 2747 
Q 2666 2738 2553 2663 
Q 2400 2556 2134 2200 
L 1744 1678 
L 2456 653 
Q 2719 275 2831 198 
Q 2944 122 3122 113 
L 3122 0 
L 1772 0 
L 1772 113 
Q 1913 113 1991 175 
Q 2050 219 2050 291 
Q 2050 363 1850 653 
L 1431 1266 
L 972 653 
Q 759 369 759 316 
Q 759 241 829 180 
Q 900 119 1041 113 
L 1041 0 
L 106 0 
L 106 113 
Q 219 128 303 191 
Q 422 281 703 653 
L 1303 1450 
L 759 2238 
Q 528 2575 401 2661 
Q 275 2747 84 2747 
L 84 2863 
z
" transform="scale(0.015625)"/>
       <path id="TimesNewRomanPSMT-65" d="M 681 1784 
Q 678 1147 991 784 
Q 1303 422 1725 422 
Q 2006 422 2214 576 
Q 2422 731 2563 1106 
L 2659 1044 
Q 2594 616 2278 264 
Q 1963 -88 1488 -88 
Q 972 -88 605 314 
Q 238 716 238 1394 
Q 238 2128 614 2539 
Q 991 2950 1559 2950 
Q 2041 2950 2350 2633 
Q 2659 2316 2659 1784 
L 681 1784 
z
M 681 1966 
L 2006 1966 
Q 1991 2241 1941 2353 
Q 1863 2528 1708 2628 
Q 1553 2728 1384 2728 
Q 1125 2728 920 2526 
Q 716 2325 681 1966 
z
" transform="scale(0.015625)"/>
       <path id="TimesNewRomanPSMT-73" d="M 2050 2947 
L 2050 1972 
L 1947 1972 
Q 1828 2431 1642 2597 
Q 1456 2763 1169 2763 
Q 950 2763 815 2647 
Q 681 2531 681 2391 
Q 681 2216 781 2091 
Q 878 1963 1175 1819 
L 1631 1597 
Q 2266 1288 2266 781 
Q 2266 391 1970 151 
Q 1675 -88 1309 -88 
Q 1047 -88 709 6 
Q 606 38 541 38 
Q 469 38 428 -44 
L 325 -44 
L 325 978 
L 428 978 
Q 516 541 762 319 
Q 1009 97 1316 97 
Q 1531 97 1667 223 
Q 1803 350 1803 528 
Q 1803 744 1651 891 
Q 1500 1038 1047 1263 
Q 594 1488 453 1669 
Q 313 1847 313 2119 
Q 313 2472 555 2709 
Q 797 2947 1181 2947 
Q 1350 2947 1591 2875 
Q 1750 2828 1803 2828 
Q 1853 2828 1881 2850 
Q 1909 2872 1947 2947 
L 2050 2947 
z
" transform="scale(0.015625)"/>
       <path id="TimesNewRomanPSMT-64" d="M 2222 322 
Q 2013 103 1813 7 
Q 1613 -88 1381 -88 
Q 913 -88 563 304 
Q 213 697 213 1313 
Q 213 1928 600 2439 
Q 988 2950 1597 2950 
Q 1975 2950 2222 2709 
L 2222 3238 
Q 2222 3728 2198 3840 
Q 2175 3953 2125 3993 
Q 2075 4034 2000 4034 
Q 1919 4034 1784 3984 
L 1744 4094 
L 2597 4444 
L 2738 4444 
L 2738 1134 
Q 2738 631 2761 520 
Q 2784 409 2836 365 
Q 2888 322 2956 322 
Q 3041 322 3181 375 
L 3216 266 
L 2366 -88 
L 2222 -88 
L 2222 322 
z
M 2222 541 
L 2222 2016 
Q 2203 2228 2109 2403 
Q 2016 2578 1861 2667 
Q 1706 2756 1559 2756 
Q 1284 2756 1069 2509 
Q 784 2184 784 1559 
Q 784 928 1059 592 
Q 1334 256 1672 256 
Q 1956 256 2222 541 
z
" transform="scale(0.015625)"/>
       <path id="TimesNewRomanPSMT-66" d="M 1319 2638 
L 1319 756 
Q 1319 356 1406 250 
Q 1522 113 1716 113 
L 1975 113 
L 1975 0 
L 266 0 
L 266 113 
L 394 113 
Q 519 113 622 175 
Q 725 238 764 344 
Q 803 450 803 756 
L 803 2638 
L 247 2638 
L 247 2863 
L 803 2863 
L 803 3050 
Q 803 3478 940 3775 
Q 1078 4072 1361 4255 
Q 1644 4438 1997 4438 
Q 2325 4438 2600 4225 
Q 2781 4084 2781 3909 
Q 2781 3816 2700 3733 
Q 2619 3650 2525 3650 
Q 2453 3650 2373 3701 
Q 2294 3753 2178 3923 
Q 2063 4094 1966 4153 
Q 1869 4213 1750 4213 
Q 1606 4213 1506 4136 
Q 1406 4059 1362 3898 
Q 1319 3738 1319 3069 
L 1319 2863 
L 2056 2863 
L 2056 2638 
L 1319 2638 
z
" transform="scale(0.015625)"/>
       <path id="TimesNewRomanPSMT-6e" d="M 1034 2341 
Q 1538 2947 1994 2947 
Q 2228 2947 2397 2830 
Q 2566 2713 2666 2444 
Q 2734 2256 2734 1869 
L 2734 647 
Q 2734 375 2778 278 
Q 2813 200 2889 156 
Q 2966 113 3172 113 
L 3172 0 
L 1756 0 
L 1756 113 
L 1816 113 
Q 2016 113 2095 173 
Q 2175 234 2206 353 
Q 2219 400 2219 647 
L 2219 1819 
Q 2219 2209 2117 2386 
Q 2016 2563 1775 2563 
Q 1403 2563 1034 2156 
L 1034 647 
Q 1034 356 1069 288 
Q 1113 197 1189 155 
Q 1266 113 1500 113 
L 1500 0 
L 84 0 
L 84 113 
L 147 113 
Q 366 113 442 223 
Q 519 334 519 647 
L 519 1709 
Q 519 2225 495 2337 
Q 472 2450 423 2490 
Q 375 2531 294 2531 
Q 206 2531 84 2484 
L 38 2597 
L 900 2947 
L 1034 2947 
L 1034 2341 
z
" transform="scale(0.015625)"/>
       <path id="TimesNewRomanPSMT-6d" d="M 1050 2338 
Q 1363 2650 1419 2697 
Q 1559 2816 1721 2881 
Q 1884 2947 2044 2947 
Q 2313 2947 2506 2790 
Q 2700 2634 2766 2338 
Q 3088 2713 3309 2830 
Q 3531 2947 3766 2947 
Q 3994 2947 4170 2830 
Q 4347 2713 4450 2447 
Q 4519 2266 4519 1878 
L 4519 647 
Q 4519 378 4559 278 
Q 4591 209 4675 161 
Q 4759 113 4950 113 
L 4950 0 
L 3538 0 
L 3538 113 
L 3597 113 
Q 3781 113 3884 184 
Q 3956 234 3988 344 
Q 4000 397 4000 647 
L 4000 1878 
Q 4000 2228 3916 2372 
Q 3794 2572 3525 2572 
Q 3359 2572 3192 2489 
Q 3025 2406 2788 2181 
L 2781 2147 
L 2788 2013 
L 2788 647 
Q 2788 353 2820 281 
Q 2853 209 2943 161 
Q 3034 113 3253 113 
L 3253 0 
L 1806 0 
L 1806 113 
Q 2044 113 2133 169 
Q 2222 225 2256 338 
Q 2272 391 2272 647 
L 2272 1878 
Q 2272 2228 2169 2381 
Q 2031 2581 1784 2581 
Q 1616 2581 1450 2491 
Q 1191 2353 1050 2181 
L 1050 647 
Q 1050 366 1089 281 
Q 1128 197 1204 155 
Q 1281 113 1516 113 
L 1516 0 
L 100 0 
L 100 113 
Q 297 113 375 155 
Q 453 197 493 289 
Q 534 381 534 647 
L 534 1741 
Q 534 2213 506 2350 
Q 484 2453 437 2492 
Q 391 2531 309 2531 
Q 222 2531 100 2484 
L 53 2597 
L 916 2947 
L 1050 2947 
L 1050 2338 
z
" transform="scale(0.015625)"/>
       <path id="TimesNewRomanPSMT-2f" d="M 1794 4444 
L 259 -88 
L 9 -88 
L 1544 4444 
L 1794 4444 
z
" transform="scale(0.015625)"/>
      </defs>
      <use xlink:href="#TimesNewRomanPSMT-4d"/>
      <use xlink:href="#TimesNewRomanPSMT-69" transform="translate(88.916016 0)"/>
      <use xlink:href="#TimesNewRomanPSMT-78" transform="translate(116.699219 0)"/>
      <use xlink:href="#TimesNewRomanPSMT-74" transform="translate(166.699219 0)"/>
      <use xlink:href="#TimesNewRomanPSMT-75" transform="translate(194.482422 0)"/>
      <use xlink:href="#TimesNewRomanPSMT-72" transform="translate(244.482422 0)"/>
      <use xlink:href="#TimesNewRomanPSMT-65" transform="translate(277.783203 0)"/>
      <use xlink:href="#TimesNewRomanPSMT-20" transform="translate(322.167969 0)"/>
      <use xlink:href="#TimesNewRomanPSMT-73" transform="translate(347.167969 0)"/>
      <use xlink:href="#TimesNewRomanPSMT-70" transform="translate(386.083984 0)"/>
      <use xlink:href="#TimesNewRomanPSMT-65" transform="translate(436.083984 0)"/>
      <use xlink:href="#TimesNewRomanPSMT-65" transform="translate(480.46875 0)"/>
      <use xlink:href="#TimesNewRomanPSMT-64" transform="translate(524.853516 0)"/>
      <use xlink:href="#TimesNewRomanPSMT-20" transform="translate(574.853516 0)"/>
      <use xlink:href="#TimesNewRomanPSMT-6f" transform="translate(599.853516 0)"/>
      <use xlink:href="#TimesNewRomanPSMT-66" transform="translate(649.853516 0)"/>
      <use xlink:href="#TimesNewRomanPSMT-20" transform="translate(683.154297 0)"/>
      <use xlink:href="#TimesNewRomanPSMT-73" transform="translate(708.154297 0)"/>
      <use xlink:href="#TimesNewRomanPSMT-6f" transform="translate(747.070312 0)"/>
      <use xlink:href="#TimesNewRomanPSMT-75" transform="translate(797.070312 0)"/>
      <use xlink:href="#TimesNewRomanPSMT-6e" transform="translate(847.070312 0)"/>
      <use xlink:href="#TimesNewRomanPSMT-64" transform="translate(897.070312 0)"/>
      <use xlink:href="#TimesNewRomanPSMT-20" transform="translate(947.070312 0)"/>
      <use xlink:href="#TimesNewRomanPSMT-5b" transform="translate(972.070312 0)"/>
      <use xlink:href="#TimesNewRomanPSMT-6d" transform="translate(1005.371094 0)"/>
      <use xlink:href="#TimesNewRomanPSMT-2f" transform="translate(1083.154297 0)"/>
      <use xlink:href="#TimesNewRomanPSMT-73" transform="translate(1110.9375 0)"/>
      <use xlink:href="#TimesNewRomanPSMT-5d" transform="translate(1149.853516 0)"/>
     </g>
    </g>
   </g>
   <g id="line2d_137">
    <path d="M 69.621702 15.473636 
L 71.757125 15.47371 
L 73.892547 15.473791 
L 76.02797 15.47388 
L 78.163392 15.473979 
L 80.298815 15.474087 
L 82.434238 15.474207 
L 84.56966 15.474338 
L 86.705083 15.474483 
L 88.840505 15.474643 
L 90.975928 15.474819 
L 93.111351 15.475012 
L 95.246773 15.475226 
L 97.382196 15.475461 
L 99.517618 15.47572 
L 101.653041 15.476005 
L 103.788464 15.476319 
L 105.923886 15.476666 
L 108.059309 15.477047 
L 110.194731 15.477467 
L 112.330154 15.47793 
L 114.465577 15.47844 
L 116.600999 15.479001 
L 118.736422 15.47962 
L 120.871844 15.480301 
L 123.007267 15.481052 
L 125.14269 15.481879 
L 127.278112 15.48279 
L 129.413535 15.483793 
L 131.548957 15.484898 
L 133.68438 15.486116 
L 135.819803 15.487458 
L 137.955225 15.488935 
L 140.090648 15.490563 
L 142.22607 15.492356 
L 144.361493 15.494332 
L 146.496916 15.496508 
L 148.632338 15.498905 
L 150.767761 15.501545 
L 152.903183 15.504454 
L 155.038606 15.507659 
L 157.174029 15.511189 
L 159.309451 15.515077 
L 161.444874 15.519361 
L 163.580296 15.52408 
L 165.715719 15.529279 
L 167.851142 15.535006 
L 169.986564 15.541315 
L 172.121987 15.548265 
L 174.257409 15.555921 
L 176.392832 15.564355 
L 178.528255 15.573647 
L 180.663677 15.583883 
L 182.7991 15.59516 
L 184.934522 15.607582 
L 187.069945 15.621268 
L 189.205367 15.636345 
L 191.34079 15.652955 
L 193.476213 15.671254 
L 195.611635 15.691415 
L 197.747058 15.713625 
L 199.88248 15.738095 
L 202.017903 15.765055 
L 204.153326 15.794758 
L 206.288748 15.827483 
L 208.424171 15.86354 
L 210.559593 15.903268 
L 212.695016 15.947041 
L 214.830439 15.995274 
L 216.965861 16.04842 
L 219.101284 16.106984 
L 221.236706 16.171518 
L 223.372129 16.242635 
L 225.507552 16.321008 
L 227.642974 16.407382 
L 229.778397 16.502577 
L 231.913819 16.6075 
L 234.049242 16.723153 
L 236.184665 16.850639 
L 238.320087 16.99118 
L 240.45551 17.146124 
L 242.590932 17.316962 
L 244.726355 17.505342 
L 246.861778 17.713087 
L 248.9972 17.942213 
L 251.132623 18.194953 
L 253.268045 18.47378 
L 255.403468 18.781435 
L 257.538891 19.120956 
L 259.674313 19.495717 
L 261.809736 19.909463 
L 263.945158 20.366357 
L 266.080581 20.871032 
L 268.216004 21.428648 
L 270.351426 22.044961 
L 272.486849 22.726397 
L 274.622271 23.480145 
L 276.757694 24.31426 
L 278.893117 25.237783 
L 281.028539 26.260889 
L 283.163962 27.39505 
L 285.299384 28.653245 
L 287.434807 30.0502 
L 289.57023 31.602684 
L 291.705652 33.329876 
L 293.841075 35.253815 
L 295.976497 37.399967 
L 298.11192 39.797957 
L 300.247343 42.482499 
L 302.382765 45.494648 
L 304.518188 48.883476 
L 306.65361 52.708393 
L 308.789033 57.042454 
L 310.924456 61.977242 
L 313.059878 67.630354 
L 315.195301 74.157514 
L 317.330723 81.773439 
L 319.466146 90.790935 
L 321.601569 101.703024 
L 323.736991 115.38734 
" clip-path="url(#pbdc6514429)" style="fill: none; stroke: #51127c; stroke-width: 1.5; stroke-linecap: square"/>
   </g>
   <g id="line2d_138">
    <path d="M 69.621702 15.667481 
L 71.757125 15.687209 
L 73.892547 15.708932 
L 76.02797 15.732852 
L 78.163392 15.759191 
L 80.298815 15.788191 
L 82.434238 15.820119 
L 84.56966 15.85527 
L 86.705083 15.893966 
L 88.840505 15.936562 
L 90.975928 15.983448 
L 93.111351 16.035051 
L 95.246773 16.091842 
L 97.382196 16.154336 
L 99.517618 16.223097 
L 101.653041 16.298747 
L 103.788464 16.381963 
L 105.923886 16.47349 
L 108.059309 16.574142 
L 110.194731 16.68481 
L 112.330154 16.806468 
L 114.465577 16.940179 
L 116.600999 17.087104 
L 118.736422 17.248508 
L 120.871844 17.42577 
L 123.007267 17.620389 
L 125.14269 17.833995 
L 127.278112 18.068353 
L 129.413535 18.32538 
L 131.548957 18.607145 
L 133.68438 18.915883 
L 135.819803 19.253998 
L 137.955225 19.624076 
L 140.090648 20.028887 
L 142.22607 20.471389 
L 144.361493 20.954736 
L 146.496916 21.482271 
L 148.632338 22.057528 
L 150.767761 22.684227 
L 152.903183 23.366259 
L 155.038606 24.107677 
L 157.174029 24.912671 
L 159.309451 25.785542 
L 161.444874 26.73067 
L 163.580296 27.752469 
L 165.715719 28.855341 
L 167.851142 30.043617 
L 169.986564 31.321488 
L 172.121987 32.692933 
L 174.257409 34.161636 
L 176.392832 35.730896 
L 178.528255 37.403531 
L 180.663677 39.181785 
L 182.7991 41.067227 
L 184.934522 43.060658 
L 187.069945 45.162018 
L 189.205367 47.370311 
L 191.34079 49.683535 
L 193.476213 52.098634 
L 195.611635 54.611472 
L 197.747058 57.216821 
L 199.88248 59.908387 
L 202.017903 62.67885 
L 204.153326 65.519937 
L 206.288748 68.422514 
L 208.424171 71.376705 
L 210.559593 74.372021 
L 212.695016 77.397511 
L 214.830439 80.441913 
L 216.965861 83.493812 
L 219.101284 86.541795 
L 221.236706 89.5746 
L 223.372129 92.581248 
L 225.507552 95.551167 
L 227.642974 98.474292 
L 229.778397 101.34115 
L 231.913819 104.142925 
L 234.049242 106.871497 
L 236.184665 109.519475 
L 238.320087 112.080196 
L 240.45551 114.547725 
L 242.590932 116.91683 
L 244.726355 119.182948 
L 246.861778 121.342153 
L 248.9972 123.391098 
L 251.132623 125.32697 
L 253.268045 127.147435 
L 255.403468 128.850577 
L 257.538891 130.43485 
L 259.674313 131.899014 
L 261.809736 133.24209 
L 263.945158 134.463303 
L 266.080581 135.562037 
L 268.216004 136.537791 
L 270.351426 137.390133 
L 272.486849 138.118665 
L 274.622271 138.722987 
L 276.757694 139.202663 
L 278.893117 139.557191 
L 281.028539 139.785981 
L 283.163962 139.888321 
L 285.299384 139.863362 
L 287.434807 139.710095 
L 289.57023 139.427332 
L 291.705652 139.013686 
L 293.841075 138.46756 
L 295.976497 137.787125 
L 298.11192 136.970312 
L 300.247343 136.014792 
L 302.382765 134.917969 
L 304.518188 133.676961 
L 306.65361 132.288591 
L 308.789033 130.749373 
L 310.924456 129.055498 
L 313.059878 127.202825 
L 315.195301 125.186862 
L 317.330723 123.002756 
L 319.466146 120.645281 
L 321.601569 118.108817 
L 323.736991 115.38734 
" clip-path="url(#pbdc6514429)" style="fill: none; stroke: #992d80; stroke-width: 1.5; stroke-linecap: square"/>
   </g>
   <g id="line2d_139">
    <path d="M 69.621702 15.756267 
L 71.757125 15.784973 
L 73.892547 15.816579 
L 76.02797 15.851375 
L 78.163392 15.889681 
L 80.298815 15.931849 
L 82.434238 15.978265 
L 84.56966 16.029352 
L 86.705083 16.085577 
L 88.840505 16.147449 
L 90.975928 16.215529 
L 93.111351 16.290432 
L 95.246773 16.372831 
L 97.382196 16.463463 
L 99.517618 16.563136 
L 101.653041 16.672734 
L 103.788464 16.793223 
L 105.923886 16.925658 
L 108.059309 17.071192 
L 110.194731 17.231082 
L 112.330154 17.406696 
L 114.465577 17.599526 
L 116.600999 17.811191 
L 118.736422 18.043449 
L 120.871844 18.298206 
L 123.007267 18.577522 
L 125.14269 18.883625 
L 127.278112 19.218914 
L 129.413535 19.585968 
L 131.548957 19.987555 
L 133.68438 20.426635 
L 135.819803 20.906361 
L 137.955225 21.430087 
L 140.090648 22.00136 
L 142.22607 22.623919 
L 144.361493 23.301686 
L 146.496916 24.038748 
L 148.632338 24.839345 
L 150.767761 25.70784 
L 152.903183 26.648688 
L 155.038606 27.666399 
L 157.174029 28.765486 
L 159.309451 29.950413 
L 161.444874 31.225528 
L 163.580296 32.594993 
L 165.715719 34.062698 
L 167.851142 35.632177 
L 169.986564 37.306514 
L 172.121987 39.088245 
L 174.257409 40.979257 
L 176.392832 42.980696 
L 178.528255 45.092871 
L 180.663677 47.315173 
L 182.7991 49.646003 
L 184.934522 52.082718 
L 187.069945 54.621596 
L 189.205367 57.257824 
L 191.34079 59.985509 
L 193.476213 62.797718 
L 195.611635 65.686541 
L 197.747058 68.643179 
L 199.88248 71.658058 
L 202.017903 74.720955 
L 204.153326 77.821144 
L 206.288748 80.947552 
L 208.424171 84.088914 
L 210.559593 87.233932 
L 212.695016 90.371425 
L 214.830439 93.490472 
L 216.965861 96.580533 
L 219.101284 99.631563 
L 221.236706 102.634099 
L 223.372129 105.579329 
L 225.507552 108.459144 
L 227.642974 111.266168 
L 229.778397 113.993767 
L 231.913819 116.636053 
L 234.049242 119.187858 
L 236.184665 121.644711 
L 238.320087 124.002793 
L 240.45551 126.258896 
L 242.590932 128.410371 
L 244.726355 130.455067 
L 246.861778 132.391281 
L 248.9972 134.217694 
L 251.132623 135.93332 
L 253.268045 137.537441 
L 255.403468 139.029562 
L 257.538891 140.409349 
L 259.674313 141.676587 
L 261.809736 142.831124 
L 263.945158 143.872832 
L 266.080581 144.801557 
L 268.216004 145.61708 
L 270.351426 146.319072 
L 272.486849 146.907053 
L 274.622271 147.380353 
L 276.757694 147.738062 
L 278.893117 147.978992 
L 281.028539 148.101622 
L 283.163962 148.104042 
L 285.299384 147.9839 
L 287.434807 147.738323 
L 289.57023 147.363837 
L 291.705652 146.856272 
L 293.841075 146.210641 
L 295.976497 145.420997 
L 298.11192 144.480254 
L 300.247343 143.37996 
L 302.382765 142.110021 
L 304.518188 140.658325 
L 306.65361 139.010278 
L 308.789033 137.148169 
L 310.924456 135.050335 
L 313.059878 132.690016 
L 315.195301 130.033766 
L 317.330723 127.039208 
L 319.466146 123.651777 
L 321.601569 119.799858 
L 323.736991 115.38734 
" clip-path="url(#pbdc6514429)" style="fill: none; stroke: #e34e65; stroke-width: 1.5; stroke-linecap: square"/>
   </g>
   <g id="line2d_140">
    <path d="M 69.621702 180.946364 
L 71.757125 180.946274 
L 73.892547 180.946176 
L 76.02797 180.946067 
L 78.163392 180.945948 
L 80.298815 180.945816 
L 82.434238 180.945671 
L 84.56966 180.945511 
L 86.705083 180.945335 
L 88.840505 180.945141 
L 90.975928 180.944927 
L 93.111351 180.944692 
L 95.246773 180.944432 
L 97.382196 180.944147 
L 99.517618 180.943832 
L 101.653041 180.943486 
L 103.788464 180.943104 
L 105.923886 180.942683 
L 108.059309 180.94222 
L 110.194731 180.94171 
L 112.330154 180.941147 
L 114.465577 180.940528 
L 116.600999 180.939846 
L 118.736422 180.939094 
L 120.871844 180.938267 
L 123.007267 180.937355 
L 125.14269 180.93635 
L 127.278112 180.935243 
L 129.413535 180.934024 
L 131.548957 180.932682 
L 133.68438 180.931202 
L 135.819803 180.929573 
L 137.955225 180.927778 
L 140.090648 180.925801 
L 142.22607 180.923623 
L 144.361493 180.921224 
L 146.496916 180.918581 
L 148.632338 180.91567 
L 150.767761 180.912463 
L 152.903183 180.90893 
L 155.038606 180.905039 
L 157.174029 180.900753 
L 159.309451 180.896031 
L 161.444874 180.89083 
L 163.580296 180.885101 
L 165.715719 180.878791 
L 167.851142 180.87184 
L 169.986564 180.864183 
L 172.121987 180.855749 
L 174.257409 180.846459 
L 176.392832 180.836227 
L 178.528255 180.824956 
L 180.663677 180.812541 
L 182.7991 180.798868 
L 184.934522 180.783807 
L 187.069945 180.767219 
L 189.205367 180.748949 
L 191.34079 180.728827 
L 193.476213 180.706665 
L 195.611635 180.682257 
L 197.747058 180.655376 
L 199.88248 180.625773 
L 202.017903 180.593172 
L 204.153326 180.557272 
L 206.288748 180.517738 
L 208.424171 180.474206 
L 210.559593 180.426273 
L 212.695016 180.373496 
L 214.830439 180.315388 
L 216.965861 180.251415 
L 219.101284 180.180988 
L 221.236706 180.103462 
L 223.372129 180.018126 
L 225.507552 179.924202 
L 227.642974 179.820833 
L 229.778397 179.707082 
L 231.913819 179.581917 
L 234.049242 179.44421 
L 236.184665 179.292721 
L 238.320087 179.126096 
L 240.45551 178.942848 
L 242.590932 178.741352 
L 244.726355 178.519832 
L 246.861778 178.276345 
L 248.9972 178.008771 
L 251.132623 177.714796 
L 253.268045 177.391899 
L 255.403468 177.037335 
L 257.538891 176.648117 
L 259.674313 176.221003 
L 261.809736 175.752476 
L 263.945158 175.238724 
L 266.080581 174.675629 
L 268.216004 174.058742 
L 270.351426 173.383272 
L 272.486849 172.644065 
L 274.622271 171.835596 
L 276.757694 170.951947 
L 278.893117 169.986805 
L 281.028539 168.933448 
L 283.163962 167.784744 
L 285.299384 166.533148 
L 287.434807 165.170706 
L 289.57023 163.689065 
L 291.705652 162.079484 
L 293.841075 160.332855 
L 295.976497 158.439729 
L 298.11192 156.390343 
L 300.247343 154.174659 
L 302.382765 151.782399 
L 304.518188 149.203095 
L 306.65361 146.426126 
L 308.789033 143.44077 
L 310.924456 140.236244 
L 313.059878 136.801743 
L 315.195301 133.12648 
L 317.330723 129.199704 
L 319.466146 125.01072 
L 321.601569 120.548892 
L 323.736991 115.80363 
" clip-path="url(#pbdc6514429)" style="fill: none; stroke: #fe9f6d; stroke-width: 1.5; stroke-linecap: square"/>
   </g>
   <g id="line2d_141">
    <defs>
     <path id="m55e67e0b2d" d="M 0 2.25 
C 0.596707 2.25 1.169055 2.012926 1.59099 1.59099 
C 2.012926 1.169055 2.25 0.596707 2.25 0 
C 2.25 -0.596707 2.012926 -1.169055 1.59099 -1.59099 
C 1.169055 -2.012926 0.596707 -2.25 0 -2.25 
C -0.596707 -2.25 -1.169055 -2.012926 -1.59099 -1.59099 
C -2.012926 -1.169055 -2.25 -0.596707 -2.25 0 
C -2.25 0.596707 -2.012926 1.169055 -1.59099 1.59099 
C -1.169055 2.012926 -0.596707 2.25 0 2.25 
z
" style="stroke: #000000; stroke-width: 1.25"/>
    </defs>
    <g clip-path="url(#pbdc6514429)">
     <use xlink:href="#m55e67e0b2d" x="69.621702" y="15.473636" style="fill: #ffffff; stroke: #000000; stroke-width: 1.25"/>
    </g>
   </g>
   <g id="line2d_142">
    <defs>
     <path id="ma519afbac4" d="M 0 2.828427 
L 2.828427 0 
L 0 -2.828427 
L -2.828427 0 
z
" style="stroke: #000000; stroke-width: 1.25; stroke-linejoin: miter"/>
    </defs>
    <g clip-path="url(#pbdc6514429)">
     <use xlink:href="#ma519afbac4" x="323.736991" y="115.38734" style="fill: #ffffff; stroke: #000000; stroke-width: 1.25; stroke-linejoin: miter"/>
    </g>
   </g>
   <g id="patch_3">
    <path d="M 56.915938 189.22 
L 56.915938 7.2 
" style="fill: none; stroke: #000000; stroke-width: 1.25; stroke-linejoin: miter; stroke-linecap: square"/>
   </g>
   <g id="patch_4">
    <path d="M 336.442756 189.22 
L 336.442756 7.2 
" style="fill: none; stroke: #000000; stroke-width: 1.25; stroke-linejoin: miter; stroke-linecap: square"/>
   </g>
   <g id="patch_5">
    <path d="M 56.915938 189.22 
L 336.442756 189.22 
" style="fill: none; stroke: #000000; stroke-width: 1.25; stroke-linejoin: miter; stroke-linecap: square"/>
   </g>
   <g id="patch_6">
    <path d="M 56.915938 7.2 
L 336.442756 7.2 
" style="fill: none; stroke: #000000; stroke-width: 1.25; stroke-linejoin: miter; stroke-linecap: square"/>
   </g>
   <g id="legend_1">
    <g id="patch_7">
     <path d="M 67.715938 180.22 
L 152.675938 180.22 
Q 154.475938 180.22 154.475938 178.42 
L 154.475938 108.204531 
Q 154.475938 106.404531 152.675938 106.404531 
L 67.715938 106.404531 
Q 65.915938 106.404531 65.915938 108.204531 
L 65.915938 178.42 
Q 65.915938 180.22 67.715938 180.22 
z
" style="fill: #ffffff; stroke: #000000; stroke-linejoin: miter"/>
    </g>
    <g id="line2d_143">
     <path d="M 71.315938 114.954531 
L 76.940938 114.954531 
L 82.565938 114.954531 
" style="fill: none; stroke: #51127c; stroke-width: 1.5; stroke-linecap: square"/>
    </g>
    <g id="text_12">
     <!-- No equilibrium -->
     <g transform="translate(89.765938 118.104531) scale(0.09 -0.09)">
      <defs>
       <path id="TimesNewRomanPSMT-4e" d="M -84 4238 
L 1066 4238 
L 3656 1059 
L 3656 3503 
Q 3656 3894 3569 3991 
Q 3453 4122 3203 4122 
L 3056 4122 
L 3056 4238 
L 4531 4238 
L 4531 4122 
L 4381 4122 
Q 4113 4122 4000 3959 
Q 3931 3859 3931 3503 
L 3931 -69 
L 3819 -69 
L 1025 3344 
L 1025 734 
Q 1025 344 1109 247 
Q 1228 116 1475 116 
L 1625 116 
L 1625 0 
L 150 0 
L 150 116 
L 297 116 
Q 569 116 681 278 
Q 750 378 750 734 
L 750 3681 
Q 566 3897 470 3965 
Q 375 4034 191 4094 
Q 100 4122 -84 4122 
L -84 4238 
z
" transform="scale(0.015625)"/>
       <path id="TimesNewRomanPSMT-62" d="M 984 2369 
Q 1400 2947 1881 2947 
Q 2322 2947 2650 2570 
Q 2978 2194 2978 1541 
Q 2978 778 2472 313 
Q 2038 -88 1503 -88 
Q 1253 -88 995 3 
Q 738 94 469 275 
L 469 3241 
Q 469 3728 445 3840 
Q 422 3953 372 3993 
Q 322 4034 247 4034 
Q 159 4034 28 3984 
L -16 4094 
L 844 4444 
L 984 4444 
L 984 2369 
z
M 984 2169 
L 984 456 
Q 1144 300 1314 220 
Q 1484 141 1663 141 
Q 1947 141 2192 453 
Q 2438 766 2438 1363 
Q 2438 1913 2192 2208 
Q 1947 2503 1634 2503 
Q 1469 2503 1303 2419 
Q 1178 2356 984 2169 
z
" transform="scale(0.015625)"/>
      </defs>
      <use xlink:href="#TimesNewRomanPSMT-4e"/>
      <use xlink:href="#TimesNewRomanPSMT-6f" transform="translate(72.216797 0)"/>
      <use xlink:href="#TimesNewRomanPSMT-20" transform="translate(122.216797 0)"/>
      <use xlink:href="#TimesNewRomanPSMT-65" transform="translate(147.216797 0)"/>
      <use xlink:href="#TimesNewRomanPSMT-71" transform="translate(191.601562 0)"/>
      <use xlink:href="#TimesNewRomanPSMT-75" transform="translate(241.601562 0)"/>
      <use xlink:href="#TimesNewRomanPSMT-69" transform="translate(291.601562 0)"/>
      <use xlink:href="#TimesNewRomanPSMT-6c" transform="translate(319.384766 0)"/>
      <use xlink:href="#TimesNewRomanPSMT-69" transform="translate(347.167969 0)"/>
      <use xlink:href="#TimesNewRomanPSMT-62" transform="translate(374.951172 0)"/>
      <use xlink:href="#TimesNewRomanPSMT-72" transform="translate(424.951172 0)"/>
      <use xlink:href="#TimesNewRomanPSMT-69" transform="translate(458.251953 0)"/>
      <use xlink:href="#TimesNewRomanPSMT-75" transform="translate(486.035156 0)"/>
      <use xlink:href="#TimesNewRomanPSMT-6d" transform="translate(536.035156 0)"/>
     </g>
    </g>
    <g id="line2d_144">
     <path d="M 71.315938 125.879688 
L 76.940938 125.879688 
L 82.565938 125.879688 
" style="fill: none; stroke: #992d80; stroke-width: 1.5; stroke-linecap: square"/>
    </g>
    <g id="text_13">
     <!-- $p$-equilibrium -->
     <g transform="translate(89.765938 129.029688) scale(0.09 -0.09)">
      <defs>
       <path id="STIXGeneral-Italic-70" d="M 1376 2739 
L 1190 2099 
Q 1670 2822 2285 2822 
Q 2637 2822 2829 2611 
Q 3021 2400 3021 2022 
Q 3021 1235 2422 582 
Q 1824 -70 1120 -70 
Q 890 -70 678 38 
Q 422 -1018 422 -1024 
Q 422 -1126 508 -1168 
Q 595 -1210 819 -1210 
L 819 -1312 
L -480 -1312 
L -480 -1210 
Q -275 -1203 -188 -1120 
Q -102 -1037 -45 -806 
L 691 1958 
Q 794 2330 794 2413 
Q 794 2586 512 2586 
L 371 2586 
L 358 2682 
L 1357 2822 
Q 1389 2822 1389 2797 
Q 1382 2765 1376 2739 
z
M 2445 2003 
Q 2445 2285 2352 2416 
Q 2259 2547 2048 2547 
Q 1798 2547 1548 2329 
Q 1299 2112 1184 1818 
Q 1043 1453 905 953 
Q 768 454 768 294 
Q 768 186 854 118 
Q 941 51 1075 51 
Q 1574 51 2003 659 
Q 2445 1274 2445 2003 
z
" transform="scale(0.015625)"/>
       <path id="TimesNewRomanPSMT-2d" d="M 259 1672 
L 1875 1672 
L 1875 1200 
L 259 1200 
L 259 1672 
z
" transform="scale(0.015625)"/>
      </defs>
      <use xlink:href="#STIXGeneral-Italic-70" transform="translate(0 0.5625)"/>
      <use xlink:href="#TimesNewRomanPSMT-2d" transform="translate(50.399994 0.5625)"/>
      <use xlink:href="#TimesNewRomanPSMT-65" transform="translate(83.700775 0.5625)"/>
      <use xlink:href="#TimesNewRomanPSMT-71" transform="translate(128.085541 0.5625)"/>
      <use xlink:href="#TimesNewRomanPSMT-75" transform="translate(178.085541 0.5625)"/>
      <use xlink:href="#TimesNewRomanPSMT-69" transform="translate(228.085541 0.5625)"/>
      <use xlink:href="#TimesNewRomanPSMT-6c" transform="translate(255.868744 0.5625)"/>
      <use xlink:href="#TimesNewRomanPSMT-69" transform="translate(283.651947 0.5625)"/>
      <use xlink:href="#TimesNewRomanPSMT-62" transform="translate(311.43515 0.5625)"/>
      <use xlink:href="#TimesNewRomanPSMT-72" transform="translate(361.43515 0.5625)"/>
      <use xlink:href="#TimesNewRomanPSMT-69" transform="translate(394.735931 0.5625)"/>
      <use xlink:href="#TimesNewRomanPSMT-75" transform="translate(422.519135 0.5625)"/>
      <use xlink:href="#TimesNewRomanPSMT-6d" transform="translate(472.519135 0.5625)"/>
     </g>
    </g>
    <g id="line2d_145">
     <path d="M 71.315938 136.859688 
L 76.940938 136.859688 
L 82.565938 136.859688 
" style="fill: none; stroke: #e34e65; stroke-width: 1.5; stroke-linecap: square"/>
    </g>
    <g id="text_14">
     <!-- $pT$-equilibrium -->
     <g transform="translate(89.765938 140.009688) scale(0.09 -0.09)">
      <defs>
       <path id="STIXGeneral-Italic-54" d="M 4051 4179 
L 3770 3130 
L 3661 3142 
Q 3680 3302 3680 3437 
Q 3680 3955 3034 3955 
L 2662 3955 
L 1786 819 
Q 1696 506 1696 397 
Q 1696 250 1766 195 
Q 1837 141 2035 122 
L 2259 102 
L 2259 0 
L 416 0 
L 416 102 
Q 749 134 889 230 
Q 1030 326 1101 582 
L 2016 3955 
Q 1254 3955 988 3817 
Q 723 3680 493 3162 
L 378 3187 
L 646 4179 
L 4051 4179 
z
" transform="scale(0.015625)"/>
      </defs>
      <use xlink:href="#STIXGeneral-Italic-70" transform="translate(0 0.5625)"/>
      <use xlink:href="#STIXGeneral-Italic-54" transform="translate(50.399994 0.5625)"/>
      <use xlink:href="#TimesNewRomanPSMT-2d" transform="translate(105.999985 0.5625)"/>
      <use xlink:href="#TimesNewRomanPSMT-65" transform="translate(139.300766 0.5625)"/>
      <use xlink:href="#TimesNewRomanPSMT-71" transform="translate(183.685532 0.5625)"/>
      <use xlink:href="#TimesNewRomanPSMT-75" transform="translate(233.685532 0.5625)"/>
      <use xlink:href="#TimesNewRomanPSMT-69" transform="translate(283.685532 0.5625)"/>
      <use xlink:href="#TimesNewRomanPSMT-6c" transform="translate(311.468735 0.5625)"/>
      <use xlink:href="#TimesNewRomanPSMT-69" transform="translate(339.251938 0.5625)"/>
      <use xlink:href="#TimesNewRomanPSMT-62" transform="translate(367.035141 0.5625)"/>
      <use xlink:href="#TimesNewRomanPSMT-72" transform="translate(417.035141 0.5625)"/>
      <use xlink:href="#TimesNewRomanPSMT-69" transform="translate(450.335922 0.5625)"/>
      <use xlink:href="#TimesNewRomanPSMT-75" transform="translate(478.119125 0.5625)"/>
      <use xlink:href="#TimesNewRomanPSMT-6d" transform="translate(528.119125 0.5625)"/>
     </g>
    </g>
    <g id="line2d_146">
     <path d="M 71.315938 147.839687 
L 76.940938 147.839687 
L 82.565938 147.839687 
" style="fill: none; stroke: #fe9f6d; stroke-width: 1.5; stroke-linecap: square"/>
    </g>
    <g id="text_15">
     <!-- $pT\mu$-equilibrium -->
     <g transform="translate(89.765938 150.989688) scale(0.09 -0.09)">
      <defs>
       <path id="STIXGeneral-Italic-3bc" d="M 3002 749 
L 3091 691 
Q 2797 237 2614 83 
Q 2432 -70 2214 -70 
Q 2080 -70 1990 6 
Q 1901 83 1901 218 
Q 1901 416 1997 704 
L 2208 1370 
L 2202 1370 
Q 1766 595 1475 268 
Q 1184 -58 902 -58 
Q 723 -58 672 122 
Q 614 -109 547 -374 
Q 480 -640 451 -758 
Q 422 -877 384 -1005 
Q 346 -1133 314 -1197 
Q 282 -1261 243 -1312 
L -211 -1312 
Q -58 -1088 70 -595 
L 909 2739 
L 1389 2739 
L 909 832 
Q 883 717 883 659 
Q 883 352 1139 352 
Q 1395 352 1811 969 
Q 2227 1587 2323 1958 
L 2534 2739 
L 3027 2739 
L 2522 819 
Q 2400 333 2400 326 
Q 2400 230 2470 230 
Q 2547 230 2652 329 
Q 2758 429 3002 749 
z
" transform="scale(0.015625)"/>
      </defs>
      <use xlink:href="#STIXGeneral-Italic-70" transform="translate(0 0.5625)"/>
      <use xlink:href="#STIXGeneral-Italic-54" transform="translate(50.399994 0.5625)"/>
      <use xlink:href="#STIXGeneral-Italic-3bc" transform="translate(105.999985 0.5625)"/>
      <use xlink:href="#TimesNewRomanPSMT-2d" transform="translate(158.599976 0.5625)"/>
      <use xlink:href="#TimesNewRomanPSMT-65" transform="translate(191.900757 0.5625)"/>
      <use xlink:href="#TimesNewRomanPSMT-71" transform="translate(236.285522 0.5625)"/>
      <use xlink:href="#TimesNewRomanPSMT-75" transform="translate(286.285522 0.5625)"/>
      <use xlink:href="#TimesNewRomanPSMT-69" transform="translate(336.285522 0.5625)"/>
      <use xlink:href="#TimesNewRomanPSMT-6c" transform="translate(364.068726 0.5625)"/>
      <use xlink:href="#TimesNewRomanPSMT-69" transform="translate(391.851929 0.5625)"/>
      <use xlink:href="#TimesNewRomanPSMT-62" transform="translate(419.635132 0.5625)"/>
      <use xlink:href="#TimesNewRomanPSMT-72" transform="translate(469.635132 0.5625)"/>
      <use xlink:href="#TimesNewRomanPSMT-69" transform="translate(502.935913 0.5625)"/>
      <use xlink:href="#TimesNewRomanPSMT-75" transform="translate(530.719116 0.5625)"/>
      <use xlink:href="#TimesNewRomanPSMT-6d" transform="translate(580.719116 0.5625)"/>
     </g>
    </g>
    <g id="line2d_147">
     <g>
      <use xlink:href="#m55e67e0b2d" x="76.940938" y="158.819687" style="fill: #ffffff; stroke: #000000; stroke-width: 1.25"/>
     </g>
    </g>
    <g id="text_16">
     <!-- Saturated liquid -->
     <g transform="translate(89.765938 161.969687) scale(0.09 -0.09)">
      <defs>
       <path id="TimesNewRomanPSMT-53" d="M 2934 4334 
L 2934 2869 
L 2819 2869 
Q 2763 3291 2617 3541 
Q 2472 3791 2203 3937 
Q 1934 4084 1647 4084 
Q 1322 4084 1109 3886 
Q 897 3688 897 3434 
Q 897 3241 1031 3081 
Q 1225 2847 1953 2456 
Q 2547 2138 2764 1967 
Q 2981 1797 3098 1565 
Q 3216 1334 3216 1081 
Q 3216 600 2842 251 
Q 2469 -97 1881 -97 
Q 1697 -97 1534 -69 
Q 1438 -53 1133 45 
Q 828 144 747 144 
Q 669 144 623 97 
Q 578 50 556 -97 
L 441 -97 
L 441 1356 
L 556 1356 
Q 638 900 775 673 
Q 913 447 1195 297 
Q 1478 147 1816 147 
Q 2206 147 2432 353 
Q 2659 559 2659 841 
Q 2659 997 2573 1156 
Q 2488 1316 2306 1453 
Q 2184 1547 1640 1851 
Q 1097 2156 867 2337 
Q 638 2519 519 2737 
Q 400 2956 400 3219 
Q 400 3675 750 4004 
Q 1100 4334 1641 4334 
Q 1978 4334 2356 4169 
Q 2531 4091 2603 4091 
Q 2684 4091 2736 4139 
Q 2788 4188 2819 4334 
L 2934 4334 
z
" transform="scale(0.015625)"/>
      </defs>
      <use xlink:href="#TimesNewRomanPSMT-53"/>
      <use xlink:href="#TimesNewRomanPSMT-61" transform="translate(55.615234 0)"/>
      <use xlink:href="#TimesNewRomanPSMT-74" transform="translate(100 0)"/>
      <use xlink:href="#TimesNewRomanPSMT-75" transform="translate(127.783203 0)"/>
      <use xlink:href="#TimesNewRomanPSMT-72" transform="translate(177.783203 0)"/>
      <use xlink:href="#TimesNewRomanPSMT-61" transform="translate(211.083984 0)"/>
      <use xlink:href="#TimesNewRomanPSMT-74" transform="translate(255.46875 0)"/>
      <use xlink:href="#TimesNewRomanPSMT-65" transform="translate(283.251953 0)"/>
      <use xlink:href="#TimesNewRomanPSMT-64" transform="translate(327.636719 0)"/>
      <use xlink:href="#TimesNewRomanPSMT-20" transform="translate(377.636719 0)"/>
      <use xlink:href="#TimesNewRomanPSMT-6c" transform="translate(402.636719 0)"/>
      <use xlink:href="#TimesNewRomanPSMT-69" transform="translate(430.419922 0)"/>
      <use xlink:href="#TimesNewRomanPSMT-71" transform="translate(458.203125 0)"/>
      <use xlink:href="#TimesNewRomanPSMT-75" transform="translate(508.203125 0)"/>
      <use xlink:href="#TimesNewRomanPSMT-69" transform="translate(558.203125 0)"/>
      <use xlink:href="#TimesNewRomanPSMT-64" transform="translate(585.986328 0)"/>
     </g>
    </g>
    <g id="line2d_148">
     <g>
      <use xlink:href="#ma519afbac4" x="76.940938" y="169.744844" style="fill: #ffffff; stroke: #000000; stroke-width: 1.25; stroke-linejoin: miter"/>
     </g>
    </g>
    <g id="text_17">
     <!-- Saturated vapor -->
     <g transform="translate(89.765938 172.894844) scale(0.09 -0.09)">
      <defs>
       <path id="TimesNewRomanPSMT-76" d="M 53 2863 
L 1400 2863 
L 1400 2747 
L 1313 2747 
Q 1191 2747 1127 2687 
Q 1063 2628 1063 2528 
Q 1063 2419 1128 2269 
L 1794 688 
L 2463 2328 
Q 2534 2503 2534 2594 
Q 2534 2638 2509 2666 
Q 2475 2713 2422 2730 
Q 2369 2747 2206 2747 
L 2206 2863 
L 3141 2863 
L 3141 2747 
Q 2978 2734 2916 2681 
Q 2806 2588 2719 2369 
L 1703 -88 
L 1575 -88 
L 553 2328 
Q 484 2497 421 2570 
Q 359 2644 263 2694 
Q 209 2722 53 2747 
L 53 2863 
z
" transform="scale(0.015625)"/>
      </defs>
      <use xlink:href="#TimesNewRomanPSMT-53"/>
      <use xlink:href="#TimesNewRomanPSMT-61" transform="translate(55.615234 0)"/>
      <use xlink:href="#TimesNewRomanPSMT-74" transform="translate(100 0)"/>
      <use xlink:href="#TimesNewRomanPSMT-75" transform="translate(127.783203 0)"/>
      <use xlink:href="#TimesNewRomanPSMT-72" transform="translate(177.783203 0)"/>
      <use xlink:href="#TimesNewRomanPSMT-61" transform="translate(211.083984 0)"/>
      <use xlink:href="#TimesNewRomanPSMT-74" transform="translate(255.46875 0)"/>
      <use xlink:href="#TimesNewRomanPSMT-65" transform="translate(283.251953 0)"/>
      <use xlink:href="#TimesNewRomanPSMT-64" transform="translate(327.636719 0)"/>
      <use xlink:href="#TimesNewRomanPSMT-20" transform="translate(377.636719 0)"/>
      <use xlink:href="#TimesNewRomanPSMT-76" transform="translate(402.636719 0)"/>
      <use xlink:href="#TimesNewRomanPSMT-61" transform="translate(452.636719 0)"/>
      <use xlink:href="#TimesNewRomanPSMT-70" transform="translate(497.021484 0)"/>
      <use xlink:href="#TimesNewRomanPSMT-6f" transform="translate(547.021484 0)"/>
      <use xlink:href="#TimesNewRomanPSMT-72" transform="translate(597.021484 0)"/>
     </g>
    </g>
   </g>
  </g>
 </g>
 <defs>
  <clipPath id="pbdc6514429">
   <rect x="56.915938" y="7.2" width="279.526818" height="182.02"/>
  </clipPath>
 </defs>
</svg>
